<svg xmlns="http://www.w3.org/2000/svg" width="64" height="64" viewBox="0 0 64 64" fill="none"><path fill-rule="evenodd" clip-rule="evenodd" d="M16.3097 55.6837H5.88115C3.68981 55.6837 2.60738 55.6837 1.94739 55.2682C1.23452 54.8133 0.798915 54.0597 0.74611 53.228C0.70647 52.4618 1.24776 51.526 2.33019 49.655L28.0795 4.9832C29.1751 3.08624 29.7295 2.13776 30.4292 1.78697C31.1816 1.4102 32.0793 1.4102 32.8317 1.78697C33.5313 2.13776 34.0858 3.08624 35.1814 4.9832L40.4749 14.0781L40.5019 14.1245C41.6853 16.1596 42.2854 17.1916 42.5474 18.2747C42.8378 19.4571 42.8378 20.7044 42.5474 21.8868C42.2834 22.9781 41.6894 24.0176 40.4881 26.0834L26.9626 49.6161L26.9276 49.6764C25.7364 51.7282 25.1328 52.7682 24.2961 53.5527C23.3853 54.4105 22.2896 55.0337 21.0883 55.3851C19.9926 55.6837 18.765 55.6837 16.3097 55.6837ZM42.6451 55.6837H57.5879C59.7924 55.6837 60.9015 55.6837 61.5619 55.2556C62.2746 54.8006 62.7232 54.0337 62.7633 53.2027C62.8012 52.4611 62.2717 51.5618 61.2342 49.7995C61.1984 49.7395 61.1626 49.6785 61.1262 49.6164L53.6411 37.0134L53.556 36.8715C52.5042 35.1209 51.9733 34.2369 51.2914 33.8952C50.5394 33.5183 49.6543 33.5183 48.9022 33.8952C48.2157 34.2459 47.6614 35.1684 46.5657 37.0264L39.1073 49.6294L39.0817 49.6728C37.9899 51.5278 37.4443 52.4548 37.4836 53.2153C37.5364 54.0471 37.972 54.8133 38.6848 55.2682C39.3317 55.6837 40.4406 55.6837 42.6451 55.6837Z" fill="#FF0000"></path></svg>