<svg xmlns="http://www.w3.org/2000/svg" width="80" height="80" viewBox="0 0 80 80" fill="none"><circle cx="40" cy="40" r="40" fill="white"></circle><path d="M30.2891 36.0098L40 26.2998L49.7139 36.0137L55.3643 30.3643L40 15L24.6396 30.3594L30.2891 36.0088M15 40L20.6504 34.3486L26.2998 40L20.6494 45.6475L15 40ZM30.2891 43.9893L40 53.6982L49.7139 43.9844L55.3672 49.6309L40 65L24.6396 49.6387L24.6318 49.6299L30.2891 43.9883M53.6982 40L59.3477 34.3506L65 40L59.3506 45.6494L53.6982 40Z" fill="#263238"></path><path d="M45.9959 40.0015L40.0026 34L35.5683 38.4314L35.0575 38.9422L34.0082 39.9913L34 39.9995L34.0082 40.0077L40.0026 46L46 40.0036H45.9949" fill="#263238"></path></svg>