<svg xmlns="http://www.w3.org/2000/svg" xmlns:xlink="http://www.w3.org/1999/xlink" width="537px" height="316px" viewBox="0 0 537 316"><title>leo-privacy</title><desc>Created with Sketch.</desc><defs><path d="M112.147,283.468 C66.4841,283.468 0.418,207.282 0.418,69.563 L0.418,61.3047 L7.7856,59.0378 C7.7856,59.0378 35.718,54.9896 60.088,41.3877 C78.062,31.4293 105.185,6.5735 105.427,6.3306 L111.824,0.1774 L122.43,0.09644 L118.867,5.7639 C119.11,6.0068 145.423,26.9763 165.097,39.3637 C186.958,53.1274 215.376,59.1997 215.619,59.2807 L223.877,60.9809 L223.877,69.563 C223.877,148.583 203.393,199.023 186.148,227.523 C165.34,262.094 136.922,283.468 112.147,283.468 Z" id="path-1"></path></defs><g id="Page-1" stroke="none" stroke-width="1" fill="none" fill-rule="evenodd"><g id="Artboard" transform="translate(-278.000000, -73.000000)"><g id="leo-privacy" transform="translate(278.000000, 73.000000)"><path d="M43.0724,147.191 C43.0724,149.134 41.5341,150.673 39.591,150.673 L4.291,150.673 C2.34787,150.673 0.80957,149.134 0.80957,147.191 L0.80957,124.36 C0.80957,122.416 2.34787,120.878 4.291,120.878 L39.591,120.878 C41.5341,120.878 43.0724,122.416 43.0724,124.36 L43.0724,147.191 Z" id="Path" fill="#FFFFFF" fill-rule="nonzero"></path><path d="M39.5911,151.482 L4.29106,151.482 C1.94312,151.482 0,149.539 0,147.191 L0,124.36 C0,122.012 1.94312,120.069 4.29106,120.069 L39.5911,120.069 C41.939,120.069 43.8821,122.012 43.8821,124.36 L43.8821,147.191 C43.8821,149.539 41.939,151.482 39.5911,151.482 Z M4.29106,121.607 C2.83372,121.607 1.61927,122.821 1.61927,124.279 L1.61927,147.11 C1.61927,148.568 2.83372,149.782 4.29106,149.782 L39.5911,149.782 C41.0484,149.782 42.2629,148.568 42.2629,147.11 L42.2629,124.279 C42.2629,122.821 41.0484,121.607 39.5911,121.607 L4.29106,121.607 Z" id="Shape" fill="#D9D9D9" fill-rule="nonzero"></path><path d="M37.0005,131.97 L17.0836,131.97 C16.5978,131.97 16.2739,131.646 16.2739,131.16 C16.2739,130.675 16.5978,130.351 17.0836,130.351 L37.0005,130.351 C37.4863,130.351 37.8102,130.675 37.8102,131.16 C37.8102,131.646 37.4863,131.97 37.0005,131.97 Z" id="Path" fill="#D9D9D9" fill-rule="nonzero"></path><path d="M11.1732,126.789 C10.0397,126.141 9.95875,125.493 9.95875,125.493 C9.95875,125.493 9.87779,126.222 8.7443,126.789 C8.01563,127.193 6.72021,127.193 6.72021,127.193 C6.72021,130.837 9.87779,132.537 9.87779,132.537 C9.87779,132.537 13.0354,130.918 13.0354,127.193 C13.1973,127.193 11.9019,127.193 11.1732,126.789 Z" id="Path" fill="#DFF5E3" fill-rule="nonzero"></path><path d="M19.9169,138.366 L6.80084,138.366 C6.31506,138.366 5.99121,138.042 5.99121,137.557 C5.99121,137.071 6.31506,136.747 6.80084,136.747 L19.9169,136.747 C20.4027,136.747 20.7265,137.071 20.7265,137.557 C20.7265,138.042 20.4027,138.366 19.9169,138.366 Z" id="Path" fill="#D9D9D9" fill-rule="nonzero"></path><path d="M37.1621,138.366 L24.127,138.366 C23.6412,138.366 23.3174,138.042 23.3174,137.557 C23.3174,137.071 23.6412,136.747 24.127,136.747 L37.1621,136.747 C37.6479,136.747 37.9718,137.071 37.9718,137.557 C37.9718,138.042 37.5669,138.366 37.1621,138.366 Z" id="Path" fill="#D9D9D9" fill-rule="nonzero"></path><path d="M24.127,144.196 L6.80084,144.196 C6.31506,144.196 5.99121,143.872 5.99121,143.386 C5.99121,142.9 6.31506,142.576 6.80084,142.576 L24.046,142.576 C24.5318,142.576 24.8557,142.9 24.8557,143.386 C24.8557,143.872 24.5318,144.196 24.127,144.196 Z" id="Path" fill="#D9D9D9" fill-rule="nonzero"></path><path d="M36.3524,144.196 L27.9322,144.196 C27.4464,144.196 27.1226,143.872 27.1226,143.386 C27.1226,142.9 27.4464,142.576 27.9322,142.576 L36.3524,142.576 C36.8382,142.576 37.162,142.9 37.162,143.386 C37.162,143.872 36.8382,144.196 36.3524,144.196 Z" id="Path" fill="#D9D9D9" fill-rule="nonzero"></path><path d="M499.301,292.764 L517.518,292.764 C527.557,292.764 535.653,284.667 535.653,274.628 L535.653,258.03 C535.653,257.14 534.925,256.411 534.034,256.411 L482.784,256.411 C481.894,256.411 481.165,257.14 481.165,258.03 L481.165,274.628 C481.165,284.667 489.261,292.764 499.301,292.764 Z" id="Path" fill="#FFFFFF" fill-rule="nonzero"></path><path d="M497.601,292.764 L518.651,292.764 C522.132,292.764 535.653,288.716 535.653,277.381 L535.653,257.869 C535.653,257.059 540.349,269.932 524.318,284.182 C511.931,295.112 497.601,292.764 497.601,292.764 Z" id="Path" fill="#F2F2F2" fill-rule="nonzero"></path><path d="M520.432,210.991 C519.866,201.923 518.894,192.936 517.437,183.868 C515.979,174.8 514.117,165.813 511.122,156.745 C510.96,156.26 510.474,155.774 509.826,155.612 C508.855,155.369 507.802,155.855 507.478,156.745 C504.402,165.813 502.62,174.8 501.163,183.868 C499.706,192.936 498.734,201.923 498.167,210.991 L500.92,256.411 L519.785,256.411 L520.432,210.991 Z" id="Path" fill="#34B151" fill-rule="nonzero"></path><path d="M519.785,257.221 L500.92,257.221 C500.516,257.221 500.111,256.897 500.111,256.492 L497.439,211.072 L497.439,210.991 C498.087,201.356 499.058,192.45 500.435,183.787 C501.73,175.772 503.511,166.299 506.831,156.502 C507.236,155.288 508.693,154.559 510.15,154.883 C511.041,155.126 511.769,155.693 512.012,156.502 C515.332,166.299 517.113,175.772 518.408,183.787 C519.785,192.531 520.756,201.437 521.404,210.991 L521.404,211.072 L520.756,256.492 C520.594,256.897 520.19,257.221 519.785,257.221 Z M501.649,255.602 L518.975,255.602 L519.623,210.991 C518.975,201.437 518.004,192.612 516.627,183.949 C515.332,176.015 513.551,166.623 510.312,156.907 C510.231,156.664 509.907,156.421 509.583,156.34 C509.017,156.179 508.369,156.502 508.207,156.907 C504.969,166.542 503.187,176.015 501.892,183.949 C500.516,192.612 499.544,201.437 498.896,210.991 L501.649,255.602 Z" id="Shape" fill="#333333" fill-rule="nonzero"></path><path d="M509.583,256.411 C509.664,256.087 509.664,255.844 509.745,255.521 C510.96,247.586 512.822,239.733 514.684,231.879 C516.708,223.783 519.056,215.687 521.809,207.671 C524.562,199.656 527.638,191.64 531.767,183.787 C532.091,183.139 533.063,182.815 533.873,183.139 C534.439,183.301 534.763,183.787 534.844,184.192 C535.816,192.693 535.735,201.113 535.411,209.452 C535.087,217.792 534.277,226.131 533.225,234.308 C532.253,241.433 531.201,248.558 529.743,255.682" id="Path" fill="#DFF5E3" fill-rule="nonzero"></path><path d="M488.614,256.006 C488.29,255.035 487.966,253.982 487.723,252.93 C485.861,244.752 484.647,236.575 483.513,228.317 C482.461,220.058 481.651,211.8 481.327,203.461 C481.003,195.122 481.003,186.702 481.894,178.2 C481.975,177.472 482.785,176.905 483.594,176.986 C484.161,177.067 484.647,177.391 484.89,177.796 C488.938,185.649 492.014,193.664 494.848,201.68 C495.901,204.837 496.953,207.995 497.925,211.153 C499.382,216.091 500.758,221.03 502.054,225.969 C504.078,234.065 505.94,242.242 507.155,250.501 C507.397,252.363 507.478,254.225 507.559,256.168" id="Path" fill="#DFF5E3" fill-rule="nonzero"></path><path d="M508.854,256.816 C508.854,256.816 508.773,256.816 508.692,256.816 C508.288,256.735 507.964,256.33 508.045,255.925 C509.178,248.315 516.627,219.006 521.08,207.509 C523.509,200.465 526.666,192.045 531.038,183.544 C531.605,182.492 532.9,182.006 534.115,182.492 C534.925,182.815 535.491,183.463 535.572,184.273 C536.625,193.503 536.463,202.247 536.22,209.695 C535.896,217.711 535.167,225.888 534.034,234.632 C533.143,241.514 532.01,248.882 530.553,256.006 C530.472,256.411 530.067,256.735 529.581,256.654 C529.176,256.573 528.852,256.168 528.933,255.682 C530.472,248.558 531.524,241.271 532.415,234.389 C533.548,225.645 534.277,217.549 534.601,209.533 C534.925,202.247 535.005,193.503 534.034,184.354 C534.034,184.192 533.872,184.03 533.629,183.949 C533.143,183.787 532.658,183.949 532.577,184.273 C528.205,192.693 525.128,200.951 522.699,207.995 C518.246,219.411 510.878,248.558 509.745,256.087 C509.583,256.492 509.259,256.816 508.854,256.816 Z" id="Path" fill="#000000" fill-rule="nonzero"></path><path d="M520.433,212.205 C520.028,212.205 519.623,211.881 519.623,211.476 C518.975,201.923 518.004,193.098 516.627,184.435 C515.332,176.5 513.551,167.108 510.312,157.393 C510.231,157.15 509.907,156.907 509.583,156.826 C509.017,156.664 508.369,156.988 508.207,157.393 C504.969,167.027 503.187,176.5 501.892,184.435 C500.516,193.098 499.544,201.923 498.896,211.476 C498.896,211.962 498.491,212.286 498.006,212.205 C497.52,212.205 497.196,211.8 497.277,211.314 C497.925,201.68 498.896,192.774 500.273,184.111 C501.568,176.095 503.349,166.623 506.669,156.826 C507.074,155.612 508.531,154.883 509.988,155.207 C510.879,155.45 511.608,156.016 511.85,156.826 C515.17,166.623 516.951,176.095 518.247,184.111 C519.623,192.855 520.594,201.761 521.242,211.314 C521.242,211.8 520.918,212.205 520.433,212.205 Z" id="Path" fill="#000000" fill-rule="nonzero"></path><path d="M507.559,256.816 C507.155,256.816 506.75,256.492 506.75,256.006 C506.75,254.144 506.588,252.282 506.345,250.42 C505.05,241.838 503.025,233.336 501.244,226.05 C499.058,217.468 496.791,209.614 494.119,201.923 C491.691,194.879 488.614,186.54 484.242,178.2 C484.161,178.038 483.918,177.877 483.594,177.877 C483.108,177.877 482.785,178.119 482.704,178.362 C481.651,187.511 481.813,196.174 482.137,203.542 C482.461,211.557 483.189,219.654 484.323,228.398 C485.294,235.846 486.59,244.428 488.533,252.93 C488.776,253.901 489.1,254.954 489.424,255.925 C489.585,256.33 489.343,256.816 488.938,256.978 C488.533,257.14 488.047,256.897 487.885,256.492 C487.561,255.439 487.238,254.468 486.995,253.415 C484.971,244.833 483.756,236.17 482.785,228.722 C481.651,219.977 480.922,211.8 480.599,203.785 C480.275,196.417 480.194,187.592 481.246,178.362 C481.408,177.229 482.542,176.338 483.837,176.419 C484.647,176.5 485.456,176.986 485.78,177.634 C490.152,186.135 493.31,194.474 495.739,201.599 C498.41,209.29 500.758,217.306 502.944,225.888 C504.726,233.255 506.831,241.838 508.045,250.501 C508.288,252.444 508.45,254.387 508.45,256.249 C508.369,256.411 508.045,256.816 507.559,256.816 Z" id="Path" fill="#000000" fill-rule="nonzero"></path><path d="M519.785,256.087 C519.704,256.087 519.704,256.087 519.623,256.087 C519.218,256.006 518.894,255.601 518.975,255.116 L523.509,231.393 C523.59,230.989 523.995,230.665 524.48,230.746 C524.885,230.827 525.209,231.231 525.128,231.717 L520.594,255.439 C520.513,255.844 520.108,256.087 519.785,256.087 Z" id="Path" fill="#000000" fill-rule="nonzero"></path><path d="M498.329,256.816 C497.924,256.816 497.601,256.573 497.52,256.168 L491.69,225.564 C491.609,225.159 491.933,224.674 492.338,224.593 C492.743,224.512 493.229,224.835 493.309,225.24 L499.139,255.844 C499.22,256.249 498.896,256.735 498.491,256.816 C498.41,256.816 498.329,256.816 498.329,256.816 Z" id="Path" fill="#000000" fill-rule="nonzero"></path><path d="M508.855,256.816 C508.369,256.816 508.045,256.492 508.045,256.006 L508.045,193.422 C508.045,192.936 508.369,192.612 508.855,192.612 C509.34,192.612 509.664,192.936 509.664,193.422 L509.664,256.006 C509.664,256.411 509.259,256.816 508.855,256.816 Z" id="Path" fill="#000000" fill-rule="nonzero"></path><path d="M517.437,270.094 L482.056,270.094 C481.165,270.094 480.437,269.365 480.437,268.475 C480.437,267.584 481.165,266.855 482.056,266.855 L517.437,266.855 C518.327,266.855 519.056,267.584 519.056,268.475 C519.056,269.365 518.327,270.094 517.437,270.094 Z" id="Path" fill="#D9D9D9" fill-rule="nonzero"></path><path d="M517.437,280.295 L482.623,280.295 C481.732,280.295 481.003,279.567 481.003,278.676 C481.003,277.785 481.732,277.057 482.623,277.057 L517.437,277.057 C518.328,277.057 519.056,277.785 519.056,278.676 C519.056,279.567 518.328,280.295 517.437,280.295 Z" id="Path" fill="#D9D9D9" fill-rule="nonzero"></path><path d="M517.518,293.573 L499.301,293.573 C488.857,293.573 480.355,285.072 480.355,274.628 L480.355,258.03 C480.355,256.654 481.408,255.601 482.784,255.601 L534.034,255.601 C535.411,255.601 536.463,256.654 536.463,258.03 L536.463,274.628 C536.382,285.072 527.962,293.573 517.518,293.573 Z M482.784,257.221 C482.299,257.221 481.975,257.544 481.975,258.03 L481.975,274.628 C481.975,284.181 489.747,291.954 499.301,291.954 L517.518,291.954 C527.071,291.954 534.844,284.181 534.844,274.628 L534.844,258.03 C534.844,257.544 534.52,257.221 534.034,257.221 L482.784,257.221 Z" id="Shape" fill="#000000" fill-rule="nonzero"></path><path d="M527.8,296.569 L488.938,296.569 C488.047,296.569 487.318,295.84 487.318,294.95 C487.318,294.059 488.047,293.33 488.938,293.33 L527.8,293.33 C528.691,293.33 529.419,294.059 529.419,294.95 C529.338,295.84 528.691,296.569 527.8,296.569 Z" id="Path" fill="#F2F2F2" fill-rule="nonzero"></path><path d="M140.147,291.468 C94.4841,291.468 28.418,215.282 28.418,77.563 L28.418,69.3047 L35.7856,67.0378 C35.7856,67.0378 63.718,62.9896 88.088,49.3877 C106.062,39.4293 133.185,14.5735 133.427,14.3306 L139.824,8.1774 L150.43,8.09644 L146.867,13.7639 C147.11,14.0068 173.423,34.9763 193.097,47.3637 C214.958,61.1274 243.376,67.1997 243.619,67.2807 L251.877,68.9809 L251.877,77.563 C251.877,156.583 231.393,207.023 214.148,235.523 C193.34,270.094 164.922,291.468 140.147,291.468 Z" id="Path" fill="#F2F2F2" fill-rule="nonzero"></path><g id="Clipped" transform="translate(28.000000, 8.000000)"><mask id="mask-2" fill="white"><use xlink:href="#path-1"></use></mask><g id="Path"></g><g id="Group" mask="url(#mask-2)" stroke="#D9D9D9" stroke-width="1.61927"><g transform="translate(-32.000000, 6.000000)" id="Path"><line x1="0.0332" y1="1.2212" x2="288.263" y2="1.2212"></line><line x1="0.03271" y1="9.8843" x2="288.262" y2="9.8843"></line><line x1="0.03271" y1="18.5474" x2="288.262" y2="18.5474"></line><line x1="0.03271" y1="27.2104" x2="288.262" y2="27.2104"></line><line x1="0.03271" y1="35.8735" x2="288.262" y2="35.8735"></line><line x1="0.03271" y1="44.5366" x2="288.262" y2="44.5366"></line><line x1="0.03271" y1="53.1997" x2="288.262" y2="53.1997"></line><line x1="0.03271" y1="61.8628" x2="288.262" y2="61.8628"></line><line x1="0.03271" y1="70.5259" x2="288.262" y2="70.5259"></line><line x1="0.03271" y1="79.189" x2="288.262" y2="79.189"></line><line x1="0.03271" y1="87.771" x2="288.262" y2="87.771"></line><line x1="0.03271" y1="96.434" x2="288.262" y2="96.434"></line><line x1="0.03271" y1="105.097" x2="288.262" y2="105.097"></line><line x1="0.03271" y1="113.76" x2="288.262" y2="113.76"></line><line x1="0.03271" y1="122.423" x2="288.262" y2="122.423"></line><line x1="0.03271" y1="131.086" x2="288.262" y2="131.086"></line><line x1="0.03271" y1="139.75" x2="288.262" y2="139.75"></line><line x1="0.03271" y1="148.413" x2="288.262" y2="148.413"></line><line x1="0.03271" y1="157.076" x2="288.262" y2="157.076"></line><line x1="0.03271" y1="165.739" x2="288.262" y2="165.739"></line><line x1="0.03271" y1="174.402" x2="288.262" y2="174.402"></line><line x1="0.03271" y1="183.065" x2="288.262" y2="183.065"></line><line x1="0.03271" y1="191.728" x2="288.262" y2="191.728"></line><line x1="0.03271" y1="200.391" x2="288.262" y2="200.391"></line><line x1="0.03271" y1="209.054" x2="288.262" y2="209.054"></line><line x1="0.03271" y1="217.717" x2="288.262" y2="217.717"></line><line x1="0.03271" y1="226.38" x2="288.262" y2="226.38"></line><line x1="0.03271" y1="235.043" x2="288.262" y2="235.043"></line><line x1="0.03271" y1="243.707" x2="288.262" y2="243.707"></line><line x1="0.03271" y1="252.289" x2="288.262" y2="252.289"></line><line x1="0.03271" y1="260.952" x2="288.262" y2="260.952"></line><line x1="0.03271" y1="269.615" x2="288.262" y2="269.615"></line></g></g></g><path d="M151.32,291.468 C105.657,291.468 39.5908,215.282 39.5908,77.5632 L39.5908,68.3334 L48.6587,67.1999 C48.9016,67.1999 74.8099,63.6375 99.1799,50.1166 C117.154,40.1581 144.276,14.6547 144.519,14.4118 L150.996,8.25854 L157.959,13.845 C158.202,14.0879 184.515,35.0574 204.189,47.4448 C226.049,61.2086 254.468,67.2808 254.71,67.3618 L262.969,69.062 L262.969,77.6442 C262.969,156.664 242.485,207.105 225.24,235.604 C204.513,270.094 176.095,291.468 151.32,291.468 Z" id="Path" fill="#FFFFFF" fill-rule="nonzero"></path><path d="M151.32,292.278 C105.333,292.278 38.7812,215.848 38.7812,77.563 L38.7812,68.3332 C38.7812,67.9284 39.1051,67.6045 39.5099,67.5236 L48.5778,66.3901 C48.8207,66.3901 74.5671,62.9087 98.8561,49.3878 C116.506,39.5102 142.9,14.8164 144.034,13.7639 L150.511,7.61068 C150.835,7.36779 151.239,7.28682 151.563,7.52971 L158.526,13.1162 C158.769,13.3591 185.001,34.2476 204.675,46.635 C226.373,60.3178 254.711,66.3901 254.953,66.471 L263.212,68.1713 C263.617,68.2522 263.859,68.5761 263.859,68.9809 L263.859,77.563 C263.859,156.745 243.295,207.428 225.969,235.927 C204.999,270.742 176.419,292.278 151.32,292.278 Z M40.4005,69.0619 L40.4005,77.644 C40.4005,214.796 105.981,290.74 151.32,290.74 C175.852,290.74 203.947,269.446 224.673,235.199 C241.837,206.862 262.321,156.502 262.321,77.644 L262.321,69.7096 L254.711,68.0903 C254.387,68.0093 225.807,61.8561 203.866,48.0114 C184.191,35.543 157.878,14.5735 157.555,14.4116 L151.158,9.31091 L145.167,14.9783 C144.034,16.0309 117.478,40.8866 99.6657,50.8451 C74.9719,64.447 48.9826,67.9284 48.7397,67.9284 L40.4005,69.0619 Z" id="Shape" fill="#1E120D" fill-rule="nonzero"></path><path d="M252.686,77.6441 C252.686,213.015 189.94,280.943 151.32,280.943 C114.563,280.943 49.9541,213.339 49.9541,77.6441 C49.9541,77.6441 77.6436,74.0818 104.2,59.3464 C123.469,48.5783 151.644,22.1033 151.644,22.1033 C151.644,22.1033 178.443,43.4776 198.765,56.3508 C222.568,71.329 252.686,77.6441 252.686,77.6441 Z" id="Path" fill="#DFF5E3" fill-rule="nonzero"></path><path d="M151.32,281.753 C130.756,281.753 105.171,261.674 86.1448,230.584 C69.2234,203.056 49.1445,154.073 49.1445,77.6441 C49.1445,77.2393 49.4684,76.9154 49.8732,76.8344 C50.1161,76.8344 77.7246,73.1101 103.795,58.6177 C122.74,48.0924 150.754,21.7793 151.077,21.5365 C151.401,21.2936 151.806,21.2126 152.13,21.4555 C152.373,21.6984 179.091,42.9917 199.17,55.622 C222.568,70.4383 252.605,76.7535 252.848,76.8344 C253.253,76.9154 253.496,77.2393 253.496,77.6441 C253.496,154.397 233.741,203.137 217.144,230.503 C198.036,262.079 172.857,281.753 151.32,281.753 Z M50.7638,78.3727 C50.9257,154.073 70.8427,202.49 87.5212,229.774 C106.305,260.378 131.322,280.133 151.32,280.133 C172.29,280.133 196.984,260.783 215.848,229.612 C232.284,202.49 251.796,154.235 251.958,78.2918 C247.424,77.2392 220.139,70.7622 198.36,56.9984 C179.819,45.2587 155.611,26.2323 151.725,23.1557 C147.839,26.7991 122.416,50.1975 104.685,59.9941 C80.5583,73.434 55.2977,77.6441 50.7638,78.3727 Z" id="Shape" fill="#1E120D" fill-rule="nonzero"></path><path d="M217.63,140.957 L165.975,88.3312 C160.55,82.7447 151.564,82.7447 146.139,88.3312 L94.4034,141.038 C88.9788,146.625 88.9788,155.693 94.4034,161.279 L128.975,196.498 C133.509,201.113 139.662,203.704 146.058,203.704 L165.975,203.704 C172.371,203.704 178.524,201.113 183.058,196.498 L217.63,161.279 C223.135,155.612 223.135,146.544 217.63,140.957 Z" id="Path" fill="#34B151" fill-rule="nonzero"></path><path d="M165.975,204.433 L146.058,204.433 C139.338,204.433 133.104,201.761 128.408,196.984 L93.8367,161.765 C88.0883,155.855 88.0883,146.301 93.8367,140.391 L145.572,87.6835 C148.406,84.8497 152.13,83.2305 156.098,83.2305 C160.065,83.2305 163.789,84.7688 166.623,87.6835 L218.358,140.391 C224.107,146.301 224.107,155.855 218.358,161.765 L183.787,196.984 C179.01,201.761 172.695,204.433 165.975,204.433 Z M156.017,84.9307 C152.454,84.9307 149.135,86.3071 146.706,88.8979 L94.9702,141.605 C89.7885,146.868 89.7885,155.45 94.9702,160.712 L129.542,195.931 C133.995,200.465 139.824,202.894 146.058,202.894 L165.975,202.894 C172.209,202.894 178.12,200.384 182.492,195.931 L217.063,160.712 C222.245,155.45 222.245,146.868 217.063,141.605 L165.327,88.8979 C162.898,86.3071 159.579,84.9307 156.017,84.9307 Z" id="Shape" fill="#1E120D" fill-rule="nonzero"></path><path d="M129.703,156.098 C126.951,158.85 122.579,158.85 119.826,156.098 C117.073,153.345 117.073,148.811 119.826,146.058 L150.673,114.563 C153.426,111.811 157.798,111.811 160.55,114.563 C163.303,117.316 163.303,121.85 160.55,124.603 L129.703,156.098 Z" id="Path" fill="#FFFFFF"></path><path d="M124.764,159.012 C124.683,159.012 124.683,159.012 124.764,159.012 C122.659,159.012 120.716,158.203 119.259,156.664 C116.263,153.588 116.263,148.568 119.259,145.491 L150.106,113.997 C151.563,112.458 153.506,111.649 155.611,111.649 C157.717,111.649 159.66,112.458 161.117,113.997 C164.113,117.073 164.113,122.093 161.117,125.17 L130.27,156.664 C128.732,158.203 126.789,159.012 124.764,159.012 Z M155.611,113.349 C153.992,113.349 152.454,113.997 151.239,115.211 L120.392,146.706 C117.964,149.135 117.964,153.183 120.392,155.612 C121.526,156.826 123.064,157.474 124.764,157.474 C126.384,157.474 127.922,156.826 129.136,155.612 L159.984,124.117 C162.412,121.688 162.412,117.64 159.984,115.211 C158.769,113.997 157.231,113.349 155.611,113.349 Z" id="Shape" fill="#1E120D" fill-rule="nonzero"></path><path d="M160.874,187.916 C158.121,190.669 153.749,190.669 150.997,187.916 C148.244,185.163 148.244,180.629 150.997,177.877 C153.749,175.124 158.121,175.124 160.874,177.877 C163.546,180.629 163.546,185.082 160.874,187.916 Z" id="Path" fill="#FFFFFF"></path><path d="M155.935,190.75 C153.83,190.75 151.887,189.94 150.43,188.402 C147.434,185.325 147.434,180.305 150.43,177.229 C151.887,175.69 153.83,174.881 155.935,174.881 C158.04,174.881 159.984,175.69 161.441,177.229 C164.436,180.305 164.436,185.325 161.441,188.402 C159.984,189.94 157.959,190.75 155.935,190.75 Z M155.935,176.581 C154.316,176.581 152.778,177.229 151.563,178.443 C149.134,180.872 149.134,184.92 151.563,187.349 C152.697,188.564 154.316,189.211 155.935,189.211 C157.555,189.211 159.093,188.564 160.307,187.349 C162.736,184.92 162.736,180.872 160.307,178.443 C159.093,177.229 157.555,176.581 155.935,176.581 Z" id="Shape" fill="#1E120D" fill-rule="nonzero"></path><path d="M160.955,156.017 L145.248,172.047 C142.495,174.8 138.123,174.8 135.371,172.047 C132.618,169.295 132.618,164.761 135.371,162.008 L151.078,145.977 C153.83,143.224 158.202,143.224 160.955,145.977 C163.708,148.73 163.708,153.264 160.955,156.017 Z" id="Path" fill="#FFFFFF"></path><path d="M140.309,174.881 C138.204,174.881 136.261,174.071 134.804,172.533 C131.808,169.456 131.808,164.437 134.804,161.36 L150.511,145.329 C151.968,143.791 153.911,142.981 156.016,142.981 C158.121,142.981 160.064,143.791 161.522,145.329 C164.517,148.406 164.517,153.426 161.522,156.502 L145.815,172.533 C144.358,174.071 142.414,174.881 140.309,174.881 Z M156.016,144.682 C154.397,144.682 152.859,145.329 151.644,146.544 L135.937,162.575 C133.508,165.003 133.508,169.052 135.937,171.481 C137.071,172.695 138.69,173.343 140.309,173.343 C141.929,173.343 143.467,172.695 144.681,171.481 L160.388,155.45 C162.817,153.021 162.817,148.973 160.388,146.544 C159.174,145.329 157.636,144.682 156.016,144.682 Z" id="Shape" fill="#1E120D" fill-rule="nonzero"></path><path d="M153.183,292.278 L140.147,292.278 C94.1603,292.278 27.6084,215.848 27.6084,77.5628 L27.6084,67.6852 L28.2561,67.6043 C28.58,67.5233 63.6371,62.0178 87.6022,48.6588 C105.495,38.7003 132.537,14.0065 132.78,13.7636 L139.419,7.44849 L150.997,7.44849 L150.997,9.06775 L140.067,9.06775 L133.913,14.9781 C133.67,15.221 106.467,40.0767 88.4119,50.1162 C66.066,62.5036 34.2474,68.252 29.2277,69.0616 L29.2277,77.6437 C29.2277,214.796 94.808,290.739 140.147,290.739 L153.183,290.739 L153.183,292.278 Z" id="Path" fill="#1E120D" fill-rule="nonzero"></path><path d="M171.885,296.731 L120.393,296.731 C119.502,296.731 118.773,296.002 118.773,295.111 C118.773,294.221 119.502,293.492 120.393,293.492 L171.885,293.492 C172.776,293.492 173.505,294.221 173.505,295.111 C173.424,296.002 172.695,296.731 171.885,296.731 Z" id="Path" fill="#F2F2F2" fill-rule="nonzero"></path><path d="M465.863,304.827 C465.863,308.632 478.898,315.19 407.65,315.19 C384.819,315.19 334.622,308.875 304.179,306.851 C239.571,302.479 221.516,302.803 215.362,292.764 C214.958,292.116 248.638,292.278 319.886,292.278 C343.204,292.278 364.416,295.192 385.709,296.569 C429.511,299.403 465.863,302.236 465.863,304.827 Z" id="Path" fill="#D9D9D9" fill-rule="nonzero"></path><path d="M171.885,293.573 L15.626,293.573 C15.1403,293.573 14.8164,293.249 14.8164,292.763 C14.8164,292.278 15.1403,291.954 15.626,291.954 L171.885,291.954 C172.371,291.954 172.695,292.278 172.695,292.763 C172.695,293.249 172.29,293.573 171.885,293.573 Z" id="Path" fill="#000000" fill-rule="nonzero"></path><path d="M310.494,293.573 L201.599,293.573 C201.113,293.573 200.789,293.249 200.789,292.763 C200.789,292.278 201.113,291.954 201.599,291.954 L310.494,291.954 C310.98,291.954 311.304,292.278 311.304,292.763 C311.304,293.249 310.98,293.573 310.494,293.573 Z" id="Path" fill="#000000" fill-rule="nonzero"></path><path d="M534.601,293.573 L337.617,293.573 C337.131,293.573 336.808,293.249 336.808,292.763 C336.808,292.278 337.131,291.954 337.617,291.954 L534.601,291.954 C535.087,291.954 535.411,292.278 535.411,292.763 C535.411,293.249 535.006,293.573 534.601,293.573 Z" id="Path" fill="#000000" fill-rule="nonzero"></path><path d="M116.83,262.159 L28.013,262.159 C26.3128,262.159 24.8555,260.783 24.8555,259.002 L24.8555,219.492 C24.8555,217.791 26.2318,216.334 28.013,216.334 L116.911,216.334 C118.611,216.334 120.068,217.71 120.068,219.492 L120.068,259.083 C119.987,260.783 118.611,262.159 116.83,262.159 Z" id="Path" fill="#FFFFFF" fill-rule="nonzero"></path><path d="M116.83,262.969 L28.0131,262.969 C25.8271,262.969 24.0459,261.188 24.0459,259.002 L24.0459,219.492 C24.0459,217.306 25.8271,215.524 28.0131,215.524 L116.911,215.524 C119.097,215.524 120.878,217.306 120.878,219.492 L120.878,259.083 C120.797,261.269 119.016,262.969 116.83,262.969 Z M28.0131,217.225 C26.7177,217.225 25.6652,218.277 25.6652,219.573 L25.6652,259.083 C25.6652,260.378 26.7177,261.431 28.0131,261.431 L116.911,261.431 C118.206,261.431 119.259,260.378 119.259,259.083 L119.259,219.573 C119.259,218.277 118.206,217.225 116.911,217.225 L28.0131,217.225 Z" id="Shape" fill="#9E9E9E" fill-rule="nonzero"></path><path d="M108.086,230.422 L86.3878,230.422 C85.902,230.422 85.5781,230.098 85.5781,229.612 C85.5781,229.126 85.902,228.802 86.3878,228.802 L108.086,228.802 C108.572,228.802 108.896,229.126 108.896,229.612 C108.896,230.098 108.572,230.422 108.086,230.422 Z" id="Path" fill="#9E9E9E" fill-rule="nonzero"></path><path d="M77.7246,230.422 L49.9542,230.422 C49.4684,230.422 49.1445,230.098 49.1445,229.612 C49.1445,229.126 49.4684,228.802 49.9542,228.802 L77.7246,228.802 C78.2104,228.802 78.5342,229.126 78.5342,229.612 C78.5342,230.098 78.2104,230.422 77.7246,230.422 Z" id="Path" fill="#9E9E9E" fill-rule="nonzero"></path><path d="M105.414,240.137 L58.2935,240.137 C57.8077,240.137 57.4839,239.813 57.4839,239.328 C57.4839,238.842 57.8077,238.518 58.2935,238.518 L105.414,238.518 C105.9,238.518 106.224,238.842 106.224,239.328 C106.224,239.813 105.9,240.137 105.414,240.137 Z" id="Path" fill="#9E9E9E" fill-rule="nonzero"></path><path d="M47.2013,240.137 L34.2471,240.137 C33.7614,240.137 33.4375,239.813 33.4375,239.328 C33.4375,238.842 33.7614,238.518 34.2471,238.518 L47.2013,238.518 C47.6871,238.518 48.0109,238.842 48.0109,239.328 C48.0109,239.813 47.6871,240.137 47.2013,240.137 Z" id="Path" fill="#9E9E9E" fill-rule="nonzero"></path><path d="M111.405,249.853 L77.7247,249.853 C77.2389,249.853 76.915,249.529 76.915,249.043 C76.915,248.557 77.2389,248.234 77.7247,248.234 L111.405,248.234 C111.891,248.234 112.215,248.557 112.215,249.043 C112.215,249.529 111.891,249.853 111.405,249.853 Z" id="Path" fill="#9E9E9E" fill-rule="nonzero"></path><path d="M66.6325,249.853 L34.2471,249.853 C33.7614,249.853 33.4375,249.529 33.4375,249.043 C33.4375,248.557 33.7614,248.234 34.2471,248.234 L66.6325,248.234 C67.1183,248.234 67.4421,248.557 67.4421,249.043 C67.4421,249.529 67.1183,249.853 66.6325,249.853 Z" id="Path" fill="#9E9E9E" fill-rule="nonzero"></path><path d="M41.048,225.645 C39.3478,224.673 39.1858,223.54 39.1858,223.54 C39.1858,223.54 39.0239,224.673 37.3237,225.645 C36.1902,226.293 34.2471,226.212 34.2471,226.212 C34.2471,231.96 39.1858,234.47 39.1858,234.47 C39.1858,234.47 44.1246,231.96 44.1246,226.212 C44.2056,226.212 42.1815,226.293 41.048,225.645 Z" id="Path" fill="#DFF5E3" fill-rule="nonzero"></path><path d="M389.191,103.957 L310.818,103.957 C309.118,103.957 307.661,102.581 307.661,100.799 L307.661,59.4271 C307.661,57.7269 309.037,56.2695 310.818,56.2695 L389.191,56.2695 C390.891,56.2695 392.348,57.6459 392.348,59.4271 L392.348,100.799 C392.348,102.581 390.972,103.957 389.191,103.957 Z" id="Path" fill="#FFFFFF" fill-rule="nonzero"></path><path d="M389.191,104.767 L310.818,104.767 C308.632,104.767 306.851,102.985 306.851,100.799 L306.851,59.4272 C306.851,57.2412 308.632,55.46 310.818,55.46 L389.191,55.46 C391.377,55.46 393.158,57.2412 393.158,59.4272 L393.158,100.799 C393.158,102.985 391.377,104.767 389.191,104.767 Z M310.818,57.1602 C309.523,57.1602 308.47,58.2127 308.47,59.5081 L308.47,100.88 C308.47,102.176 309.523,103.228 310.818,103.228 L389.191,103.228 C390.486,103.228 391.539,102.176 391.539,100.88 L391.539,59.4272 C391.539,58.1318 390.486,57.0792 389.191,57.0792 L310.818,57.0792 L310.818,57.1602 Z" id="Shape" fill="#757575" fill-rule="nonzero"></path><path d="M321.667,62.4227 C319.967,61.4511 319.805,60.3176 319.805,60.3176 C319.805,60.3176 319.643,61.4511 317.943,62.4227 C316.809,63.0704 314.866,62.9894 314.866,62.9894 C314.866,68.7378 319.805,71.2477 319.805,71.2477 C319.805,71.2477 324.744,68.7378 324.744,62.9894 C324.744,62.9894 322.801,63.0704 321.667,62.4227 Z" id="Path" fill="#DFF5E3" fill-rule="nonzero"></path><path d="M381.823,67.4425 L362.554,67.4425 C362.068,67.4425 361.744,67.1187 361.744,66.6329 C361.744,66.1471 362.068,65.8232 362.554,65.8232 L381.823,65.8232 C382.309,65.8232 382.633,66.1471 382.633,66.6329 C382.633,67.1187 382.228,67.4425 381.823,67.4425 Z" id="Path" fill="#757575" fill-rule="nonzero"></path><path d="M354.782,67.4425 L330.816,67.4425 C330.331,67.4425 330.007,67.1187 330.007,66.6329 C330.007,66.1471 330.331,65.8232 330.816,65.8232 L354.782,65.8232 C355.267,65.8232 355.591,66.1471 355.591,66.6329 C355.591,67.1187 355.186,67.4425 354.782,67.4425 Z" id="Path" fill="#757575" fill-rule="nonzero"></path><path d="M348.709,76.1056 L316.081,76.1056 C315.595,76.1056 315.271,75.7817 315.271,75.296 C315.271,74.8102 315.595,74.4863 316.081,74.4863 L348.709,74.4863 C349.195,74.4863 349.519,74.8102 349.519,75.296 C349.519,75.7817 349.195,76.1056 348.709,76.1056 Z" id="Path" fill="#757575" fill-rule="nonzero"></path><path d="M374.051,84.7687 L341.503,84.7687 C341.018,84.7687 340.694,84.4448 340.694,83.959 C340.694,83.4733 341.018,83.1494 341.503,83.1494 L374.051,83.1494 C374.537,83.1494 374.86,83.4733 374.86,83.959 C374.86,84.4448 374.456,84.7687 374.051,84.7687 Z" id="Path" fill="#757575" fill-rule="nonzero"></path><path d="M335.431,84.7687 L316.081,84.7687 C315.595,84.7687 315.271,84.4448 315.271,83.959 C315.271,83.4733 315.595,83.1494 316.081,83.1494 L335.431,83.1494 C335.917,83.1494 336.241,83.4733 336.241,83.959 C336.241,84.4448 335.917,84.7687 335.431,84.7687 Z" id="Path" fill="#757575" fill-rule="nonzero"></path><path d="M381.823,93.6747 L362.554,93.6747 C362.068,93.6747 361.744,93.3508 361.744,92.8651 C361.744,92.3793 362.068,92.0554 362.554,92.0554 L381.823,92.0554 C382.309,92.0554 382.633,92.3793 382.633,92.8651 C382.633,93.3508 382.228,93.6747 381.823,93.6747 Z" id="Path" fill="#757575" fill-rule="nonzero"></path><path d="M354.782,93.6747 L316.162,93.6747 C315.676,93.6747 315.353,93.3508 315.353,92.8651 C315.353,92.3793 315.676,92.0554 316.162,92.0554 L354.782,92.0554 C355.267,92.0554 355.591,92.3793 355.591,92.8651 C355.591,93.3508 355.187,93.6747 354.782,93.6747 Z" id="Path" fill="#757575" fill-rule="nonzero"></path><path d="M368.302,76.1056 L354.781,76.1056 C354.296,76.1056 353.972,75.7817 353.972,75.296 C353.972,74.8102 354.296,74.4863 354.781,74.4863 L368.302,74.4863 C368.788,74.4863 369.112,74.8102 369.112,75.296 C369.112,75.7817 368.707,76.1056 368.302,76.1056 Z" id="Path" fill="#757575" fill-rule="nonzero"></path><path d="M381.823,76.1056 L373.403,76.1056 C372.917,76.1056 372.593,75.7817 372.593,75.296 C372.593,74.8102 372.917,74.4863 373.403,74.4863 L381.823,74.4863 C382.309,74.4863 382.633,74.8102 382.633,75.296 C382.633,75.7817 382.228,76.1056 381.823,76.1056 Z" id="Path" fill="#757575" fill-rule="nonzero"></path><path d="M316.729,37.0812 L249.529,37.0812 C247.829,37.0812 246.372,35.7048 246.372,33.9236 L246.372,3.96714 C246.372,2.26691 247.748,0.80957 249.529,0.80957 L316.729,0.80957 C318.429,0.80957 319.886,2.18595 319.886,3.96714 L319.886,34.0046 C319.805,35.7048 318.429,37.0812 316.729,37.0812 Z" id="Path" fill="#FFFFFF" fill-rule="nonzero"></path><path d="M316.729,37.8909 L249.529,37.8909 C247.343,37.8909 245.562,36.1097 245.562,33.9237 L245.562,3.96721 C245.562,1.78119 247.343,0 249.529,0 L316.729,0 C318.915,0 320.696,1.78119 320.696,3.96721 L320.696,34.0046 C320.615,36.1097 318.915,37.8909 316.729,37.8909 Z M249.529,1.61927 C248.234,1.61927 247.181,2.67179 247.181,3.96721 L247.181,34.0046 C247.181,35.3 248.234,36.3526 249.529,36.3526 L316.729,36.3526 C318.024,36.3526 319.077,35.3 319.077,34.0046 L319.077,3.96721 C319.077,2.67179 318.024,1.61927 316.729,1.61927 L249.529,1.61927 Z" id="Shape" fill="#9E9E9E" fill-rule="nonzero"></path><path d="M312.519,12.0636 L295.274,12.0636 C294.788,12.0636 294.464,11.7397 294.464,11.254 C294.464,10.7682 294.788,10.4443 295.274,10.4443 L312.519,10.4443 C313.004,10.4443 313.328,10.7682 313.328,11.254 C313.328,11.7397 312.924,12.0636 312.519,12.0636 Z" id="Path" fill="#9E9E9E" fill-rule="nonzero"></path><path d="M288.392,12.0636 L267.665,12.0636 C267.179,12.0636 266.855,11.7397 266.855,11.254 C266.855,10.7682 267.179,10.4443 267.665,10.4443 L288.392,10.4443 C288.878,10.4443 289.201,10.7682 289.201,11.254 C289.201,11.7397 288.878,12.0636 288.392,12.0636 Z" id="Path" fill="#9E9E9E" fill-rule="nonzero"></path><path d="M308.39,19.755 L272.928,19.755 C272.442,19.755 272.118,19.4312 272.118,18.9454 C272.118,18.4596 272.442,18.1357 272.928,18.1357 L308.39,18.1357 C308.876,18.1357 309.199,18.4596 309.199,18.9454 C309.199,19.4312 308.876,19.755 308.39,19.755 Z" id="Path" fill="#9E9E9E" fill-rule="nonzero"></path><path d="M264.184,19.755 L253.901,19.755 C253.416,19.755 253.092,19.4312 253.092,18.9454 C253.092,18.4596 253.416,18.1357 253.901,18.1357 L264.184,18.1357 C264.67,18.1357 264.993,18.4596 264.993,18.9454 C264.993,19.4312 264.589,19.755 264.184,19.755 Z" id="Path" fill="#9E9E9E" fill-rule="nonzero"></path><path d="M305.718,27.4467 L287.015,27.4467 C286.529,27.4467 286.206,27.1228 286.206,26.637 C286.206,26.1512 286.529,25.8274 287.015,25.8274 L305.718,25.8274 C306.204,25.8274 306.527,26.1512 306.527,26.637 C306.527,27.1228 306.204,27.4467 305.718,27.4467 Z" id="Path" fill="#9E9E9E" fill-rule="nonzero"></path><path d="M279.567,27.4467 L253.901,27.4467 C253.416,27.4467 253.092,27.1228 253.092,26.637 C253.092,26.1512 253.416,25.8274 253.901,25.8274 L279.567,25.8274 C280.053,25.8274 280.376,26.1512 280.376,26.637 C280.376,27.1228 280.053,27.4467 279.567,27.4467 Z" id="Path" fill="#9E9E9E" fill-rule="nonzero"></path><path d="M259.973,6.31501 C258.273,5.34345 258.111,4.20996 258.111,4.20996 C258.111,4.20996 257.949,5.34345 256.249,6.31501 C255.115,6.96272 253.172,6.88175 253.172,6.88175 C253.172,12.6302 258.111,15.14 258.111,15.14 C258.111,15.14 263.05,12.6302 263.05,6.88175 C263.05,6.96272 261.107,6.96272 259.973,6.31501 Z" id="Path" fill="#DFF5E3" fill-rule="nonzero"></path><path d="M286.691,99.6657 C286.853,89.5453 278.19,81.368 267.908,81.9348 C259.164,82.4205 252.039,89.3834 251.31,98.1274 C251.31,98.3703 251.31,98.6132 251.229,98.8561 C250.986,103.552 248.881,107.843 245.562,111.163 C242.242,114.482 237.384,117.397 237.87,126.303 C238.599,138.366 246.938,142.981 256.006,143.467 C266.369,144.196 286.043,142.414 286.691,99.6657 Z" id="Path" fill="#333333" fill-rule="nonzero"></path><path d="M252.12,135.29 C265.155,137.314 274.466,148.244 278.514,160.55 C282.4,172.371 287.177,199.494 287.177,199.494 L341.585,207.752 L325.716,223.459 L281.672,218.925 C276.085,218.196 271.227,214.796 268.556,209.776 C259.973,193.421 243.214,162.574 244.995,145.896 C245.643,140.309 247.505,134.561 252.12,135.29 Z" id="Path" fill="#FFFFFF" fill-rule="nonzero"></path><path d="M250.501,149.539 C263.536,151.563 269.608,159.498 272.766,172.047 C275.599,183.139 277.624,197.631 278.676,206.618 C279.243,211.233 283.21,214.715 287.906,214.634 L324.42,218.52 L323.368,224.268 L281.753,218.844 C276.166,218.115 271.308,214.715 268.637,209.695 C260.054,193.34 243.295,162.493 245.076,145.815 C245.643,140.309 245.886,148.81 250.501,149.539 Z" id="Path" fill="#D9D9D9" fill-rule="nonzero"></path><path d="M292.278,220.787 C291.954,220.787 291.63,220.544 291.468,220.22 C289.606,213.419 291.387,208.481 293.249,205.647 C295.273,202.489 297.702,200.951 297.864,200.951 C298.269,200.708 298.755,200.87 298.998,201.194 C299.241,201.599 299.079,202.084 298.755,202.327 C298.35,202.57 289.768,207.995 293.087,219.815 C293.168,220.22 292.925,220.706 292.521,220.787 C292.359,220.787 292.278,220.787 292.278,220.787 Z" id="Path" fill="#34B151" fill-rule="nonzero"></path><path d="M325.149,224.997 L325.068,224.997 L287.42,220.139 C285.801,220.139 280.295,219.411 278.919,219.006 C274.142,217.629 270.094,214.391 267.827,209.938 L266.532,207.428 C257.545,190.345 242.404,161.684 244.186,145.572 C244.591,142.01 245.562,137.395 248.234,135.29 C249.367,134.399 250.663,134.075 252.201,134.318 C264.346,136.18 273.656,144.843 278.19,158.688 C281.753,169.537 287.015,194.555 287.825,198.522 L337.051,206.942 C337.294,207.023 337.536,207.185 337.698,207.428 C337.779,207.671 337.779,207.995 337.617,208.238 L325.797,224.511 C325.716,224.916 325.473,224.997 325.149,224.997 Z M287.501,218.52 L287.582,218.52 L324.744,223.297 L335.512,208.481 L287.015,200.222 C286.691,200.141 286.449,199.898 286.368,199.575 C286.287,199.251 280.457,170.994 276.652,159.336 C272.28,146.058 263.455,137.799 251.958,136.018 C250.906,135.856 250.015,136.099 249.205,136.666 C247.505,137.961 246.291,141.281 245.724,145.815 C244.024,161.441 259.002,189.778 267.908,206.699 L269.203,209.209 C271.308,213.176 274.952,216.172 279.324,217.467 C280.7,217.872 286.287,218.601 287.501,218.52 Z" id="Shape" fill="#333333" fill-rule="nonzero"></path><path d="M366.602,207.428 L307.904,223.297 L323.53,176.176 C324.744,172.776 327.416,172.047 329.845,171.561 L385.548,159.255 C387.491,158.85 388.624,159.903 388.3,162.413 C388.058,164.194 387.329,166.38 385.467,170.671 L370.408,204.19 C369.679,205.809 368.302,207.023 366.602,207.428 Z" id="Path" fill="#FFFFFF" fill-rule="nonzero"></path><path d="M317.377,208.966 C320.291,200.06 323.935,188.807 327.173,178.524 C327.659,176.986 328.469,175.043 331.302,174.314 L388.867,161.522 C388.867,161.522 388.624,158.769 386.357,159.174 C378.504,160.712 348.547,167.594 333.245,170.914 C324.663,172.776 325.068,173.747 324.501,174.476 C323.125,176.176 307.904,223.378 307.904,223.378 L366.602,207.509 C368.302,207.023 369.679,205.89 370.408,204.271 L371.379,202.165 C360.287,205.566 334.379,211.314 334.379,211.314 C335.269,207.266 330.897,206.942 326.768,207.833 C324.016,208.481 319.239,208.4 317.377,208.966 Z" id="Path" fill="#D9D9D9" fill-rule="nonzero"></path><path d="M357.592,192.522 C358.541,189.917 358.049,187.346 356.495,186.78 C354.94,186.214 352.911,187.867 351.962,190.472 C351.014,193.078 351.505,195.648 353.06,196.214 C354.615,196.78 356.644,195.127 357.592,192.522 Z" id="Path" fill="#FFFFFF" fill-rule="nonzero"></path><path d="M353.729,197.146 C353.405,197.146 353.081,197.065 352.838,196.984 C350.814,196.255 350.166,193.259 351.3,190.183 C352.433,187.106 354.862,185.244 356.886,185.973 C358.91,186.701 359.558,189.697 358.425,192.774 C357.939,194.15 357.129,195.364 356.158,196.174 C355.267,196.822 354.457,197.146 353.729,197.146 Z M355.915,187.43 C354.943,187.43 353.567,188.645 352.757,190.75 C351.867,193.097 352.352,195.122 353.324,195.445 C353.81,195.607 354.377,195.445 355.024,194.879 C355.753,194.231 356.401,193.259 356.805,192.126 C357.696,189.778 357.21,187.754 356.239,187.43 C356.158,187.43 355.996,187.43 355.915,187.43 Z" id="Shape" fill="#333333" fill-rule="nonzero"></path><path d="M314.219,219.33 C314.138,219.33 314.057,219.33 313.976,219.249 C313.571,219.087 313.328,218.682 313.49,218.196 L317.214,207.023 C317.376,206.618 317.781,206.376 318.267,206.538 C318.672,206.699 318.915,207.104 318.753,207.59 L315.028,218.763 C314.867,219.087 314.543,219.33 314.219,219.33 Z" id="Path" fill="#333333" fill-rule="nonzero"></path><path d="M307.985,224.188 C307.742,224.188 307.58,224.107 307.418,223.945 C307.175,223.702 307.175,223.378 307.256,223.135 L322.882,176.014 C324.258,172.209 327.011,171.399 329.764,170.914 L385.386,158.607 C386.762,158.364 387.895,158.607 388.624,159.336 C389.11,159.822 389.758,160.793 389.515,162.493 C389.272,164.194 388.381,166.299 386.762,169.78 L386.195,171.076 L371.136,204.594 C370.326,206.376 368.707,207.752 366.845,208.238 L308.147,224.107 C308.147,224.188 308.066,224.188 307.985,224.188 Z M386.438,160.065 C386.195,160.065 386.033,160.065 385.79,160.146 L330.088,172.452 C327.578,172.938 325.473,173.585 324.339,176.5 L309.199,222.163 L366.44,206.618 C367.898,206.214 369.112,205.242 369.679,203.866 L385.305,169.051 C386.762,165.651 387.653,163.627 387.895,162.17 C387.976,161.603 387.976,160.874 387.491,160.388 C387.329,160.146 386.924,160.065 386.438,160.065 Z" id="Shape" fill="#333333" fill-rule="nonzero"></path><path d="M321.182,198.441 C321.101,198.441 321.02,198.441 320.939,198.441 C320.534,198.279 320.291,197.874 320.372,197.389 L326.282,178.605 C326.444,178.2 326.849,177.957 327.335,178.038 C327.74,178.2 327.983,178.605 327.902,179.091 L321.991,197.874 C321.91,198.198 321.586,198.441 321.182,198.441 Z" id="Path" fill="#333333" fill-rule="nonzero"></path><path d="M255.439,96.1035 C255.601,85.9831 246.938,77.8058 236.656,78.3725 C227.912,78.8583 220.382,95.6987 220.382,95.9416 C220.139,100.637 218.358,104.524 214.391,107.6 C210.667,110.434 204.675,113.511 204.675,123.469 C204.675,135.533 215.767,139.419 224.835,139.986 C235.118,140.633 254.873,138.852 255.439,96.1035 Z" id="Path" fill="#333333" fill-rule="nonzero"></path><path d="M216.253,265.803 L278.028,232.689 L269.851,189.049 C270.418,184.677 275.519,184.111 272.766,172.047 C271.956,168.404 269.365,164.76 268.151,161.279 C263.536,148.001 258.192,137.314 252.363,135.856 L232.041,130.27 C204.109,133.104 192.774,147.92 197.551,179.739 L204.676,217.629 L216.253,265.803 Z" id="Path" fill="#FFFFFF" fill-rule="nonzero"></path><polygon id="Path" fill="#F2F2F2" fill-rule="nonzero" points="261.593 189.13 270.337 196.336 270.256 187.268"></polygon><path d="M226.779,230.098 C220.949,220.382 214.067,207.509 208.319,194.312 L207.995,194.393 C207.995,194.393 222.407,228.074 227.183,235.927 C227.75,236.818 228.317,237.87 228.965,239.004 C232.284,244.995 239.895,247.262 245.967,244.024 L263.779,236.251 L263.455,235.684 L246.615,240.299 C246.453,240.461 233.58,241.595 226.779,230.098 Z" id="Path" fill="#D9D9D9" fill-rule="nonzero"></path><path d="M241.271,122.74 L237.384,111.163 L235.441,110.029 C235.441,110.029 234.146,123.226 232.122,127.112 C231.231,128.813 226.697,132.537 226.697,132.537 C226.697,132.537 232.041,142.252 242.566,147.11 C245.562,148.487 258.516,149.701 252.363,137.88 L253.496,132.78 C252.848,132.699 252.12,132.618 251.472,132.456 C245.967,131.322 242.485,125.493 241.271,122.74 Z" id="Path" fill="#FFFFFF" fill-rule="nonzero"></path><path d="M251.553,135.452 C251.553,134.966 251.877,134.156 253.091,133.104 L255.844,121.931 L240.623,113.106 C240.623,113.106 238.923,120.797 240.218,124.926 C242.647,132.618 247.181,134.48 250.986,135.856 C251.31,135.937 251.553,135.775 251.553,135.452 Z" id="Path" fill="#D9D9D9" fill-rule="nonzero"></path><path d="M268.555,89.0596 C255.115,107.762 238.923,100.799 238.923,100.799 L234.551,100.152 C232.527,101.204 230.988,103.228 230.664,105.738 C230.179,109.705 232.85,113.268 236.656,113.753 L238.356,114.077 L241.271,122.74 C242.485,125.493 246.047,131.322 251.391,132.456 C252.12,132.618 252.767,132.699 253.415,132.78 C264.507,134.075 270.903,126.627 276.247,113.187 C277.785,109.381 279.971,101.771 281.024,98.0465 C280.943,98.0465 280.943,98.0465 280.862,98.0465 C277.461,97.4798 268.555,89.0596 268.555,89.0596 Z" id="Path" fill="#FFFFFF" fill-rule="nonzero"></path><path d="M256.411,133.913 C254.711,133.913 252.929,133.67 251.148,133.185 C245.319,131.646 240.38,125.25 239.49,120.231 C239.409,119.826 239.732,119.34 240.137,119.259 C240.623,119.178 241.028,119.502 241.109,119.907 C241.918,124.441 246.371,130.189 251.634,131.565 C261.431,134.237 269.365,128.894 273.899,116.587 C276.004,110.839 281.752,95.1319 281.995,94.3222 C282.076,93.9174 282.481,93.6745 282.886,93.7555 C283.291,93.8365 283.615,94.2413 283.534,94.6461 C283.453,95.0509 275.437,116.911 275.437,117.154 C271.308,128.165 264.75,133.913 256.411,133.913 Z" id="Path" fill="#333333" fill-rule="nonzero"></path><path d="M236.656,114.563 L236.575,114.563 C234.551,114.32 232.689,113.268 231.474,111.567 C230.26,109.867 229.693,107.762 229.936,105.657 C230.179,103.552 231.231,101.609 232.851,100.314 C234.47,99.0181 236.494,98.3704 238.599,98.6133 C239.004,98.6943 239.328,99.0991 239.328,99.5039 C239.247,99.9087 238.842,100.233 238.437,100.233 C236.818,99.9897 235.199,100.475 233.903,101.528 C232.608,102.581 231.798,104.119 231.555,105.819 C231.312,107.519 231.798,109.22 232.77,110.515 C233.741,111.891 235.199,112.701 236.818,112.944 C237.223,113.025 237.547,113.43 237.547,113.834 C237.385,114.239 237.061,114.563 236.656,114.563 Z" id="Path" fill="#333333" fill-rule="nonzero"></path><path d="M282.481,75.9436 C273.818,72.6241 265.317,66.7947 251.31,66.066 C223.216,64.6087 220.301,89.7073 220.301,97.8846 L234.551,100.071 L238.923,100.718 C238.923,100.718 255.116,107.681 268.555,88.9787 C268.555,88.9787 277.461,97.3989 280.862,97.8846 C280.943,97.8846 280.943,97.8846 281.024,97.8846 C285.801,98.4514 289.201,96.1844 291.063,93.7555 C294.949,88.7358 294.545,80.5585 282.481,75.9436 Z" id="Path" fill="#333333" fill-rule="nonzero"></path><path d="M266.531,120.959 C266.45,120.959 266.369,120.959 266.288,120.959 L262.402,119.745 C261.997,119.583 261.754,119.178 261.835,118.692 C261.997,118.287 262.402,118.045 262.807,118.125 L265.722,119.016 L266.288,113.673 C266.369,113.268 266.774,112.944 267.179,112.944 C267.584,113.025 267.908,113.43 267.908,113.834 L267.179,120.15 C267.179,120.392 267.017,120.635 266.855,120.716 C266.855,120.878 266.693,120.959 266.531,120.959 Z" id="Path" fill="#333333" fill-rule="nonzero"></path><path d="M383.847,218.52 C380.123,212.772 373.403,206.375 366.602,207.509 C366.602,207.509 263.617,242.728 260.783,243.619 C215.12,258.111 227.912,297.216 243.052,297.216 C243.052,297.216 272.118,300.374 300.05,283.938 C325.716,268.879 362.554,250.258 362.554,250.258 L409.432,286.124 C409.432,286.124 418.823,283.776 420.443178,280.052 C420.524,279.971 392.996,232.769 383.847,218.52 Z" id="Path" fill="#FFFFFF" fill-rule="nonzero"></path><path d="M402.469,284.262 L410.241,295.273 C410.241,295.273 428.053,297.135 430.401,293.087 L418.095,277.704 L402.469,284.262 Z" id="Path" fill="#FFFFFF" fill-rule="nonzero"></path><path d="M402.469,284.262 L408.703,294.464 C408.703,294.464 414.127,295.03 417.042,294.464 L409.432,284.91 L402.469,284.262 Z" id="Path" fill="#D9D9D9" fill-rule="nonzero"></path><path d="M408.217,294.787 L408.217,305.717 C408.217,307.984 409.998,309.766 412.265,309.766 L460.682,309.766 C464.568,309.766 467.24,305.475 465.135,302.155 C464.73,301.426 464.082,300.86 463.353,300.698 C459.71,299.726 432.263,289.201 432.263,289.201 C432.263,289.201 429.834,293.006 419.066,294.221 C416.718,294.383 408.217,294.787 408.217,294.787 Z" id="Path" fill="#FFFFFF" fill-rule="nonzero"></path><path d="M408.217,294.787 L408.217,305.717 C408.217,307.984 409.998,309.766 412.265,309.766 L421.9,309.685 L421.9,293.654 C415.342,295.111 408.055,294.625 408.217,294.787 Z" id="Path" fill="#D9D9D9" fill-rule="nonzero"></path><path d="M409.836,295.354 C409.594,295.354 409.351,295.192 409.189,295.03 L404.736,288.391 C404.493,287.986 404.574,287.501 404.979,287.258 C405.383,287.015 405.869,287.096 406.112,287.501 L410.565,294.14 C410.808,294.544 410.727,295.03 410.322,295.273 C410.16,295.273 409.998,295.354 409.836,295.354 Z" id="Path" fill="#333333" fill-rule="nonzero"></path><path d="M427.325,291.144 C427.082,291.144 426.839,291.063 426.677,290.82 L419.633,282.076 C419.39,281.752 419.39,281.186 419.795,280.943 C420.119,280.7 420.686,280.7 420.928,281.105 L427.972,289.849 C428.215,290.172 428.215,290.739 427.81,290.982 C427.648,291.063 427.486,291.144 427.325,291.144 Z" id="Path" fill="#333333" fill-rule="nonzero"></path><path d="M427.568,293.897 C427.568,293.897 425.625,291.63 425.058,290.82 C423.762,289.12 423.277,287.663 425.058,286.529 C425.867,286.043 427.811,285.558 429.025,285.315 C429.754,285.153 430.482,285.396 430.968,285.8 L435.907,292.116" id="Path" fill="#FFFFFF" fill-rule="nonzero"></path><path d="M427.567,294.706 C427.324,294.706 427.081,294.625 426.92,294.383 C426.839,294.302 424.976,292.116 424.41,291.306 C423.681,290.253 422.871,289.039 423.114,287.824 C423.276,287.015 423.762,286.367 424.653,285.881 C425.381,285.477 426.758,284.991 428.863,284.586 C429.834,284.424 430.806,284.667 431.534,285.315 L436.473,290.091 C436.797,290.415 436.797,290.901 436.473,291.225 C436.149,291.549 435.664,291.549 435.34,291.225 L430.401,286.529 C430.077,286.205 429.591,286.124 429.187,286.205 C427.324,286.61 426.029,287.015 425.462,287.339 C424.734,287.743 424.734,288.148 424.653,288.229 C424.572,288.877 425.138,289.768 425.624,290.415 C426.191,291.144 428.053,293.411 428.053,293.411 C428.377,293.735 428.296,294.302 427.972,294.544 C427.891,294.625 427.729,294.706 427.567,294.706 Z" id="Path" fill="#333333" fill-rule="nonzero"></path><path d="M458.171,305.151 L409.107,305.151 C408.622,305.151 408.298,304.827 408.298,304.341 C408.298,303.855 408.622,303.531 409.107,303.531 L458.171,303.531 C458.657,303.531 458.981,303.855 458.981,304.341 C458.981,304.827 458.657,305.151 458.171,305.151 Z" id="Path" fill="#333333" fill-rule="nonzero"></path><path d="M374.537,227.669 C370.812,221.92 361.582,209.614 354.782,210.666 C354.782,210.666 271.065,235.522 268.232,236.413 C255.358,240.461 244.752,250.339 240.785,257.139 C230.503,274.466 238.275,297.135 249.124,297.135 C249.124,297.135 272.037,300.293 300.05,283.857 C325.716,268.798 362.554,250.177 362.554,250.177 L404.574,288.148 C404.574,288.148 411.375,286.529 414.29016,284.424 C414.371,284.424 383.685,241.999 374.537,227.669 Z" id="Path" fill="#D9D9D9" fill-rule="nonzero"></path><path d="M253.901,298.188 C251.148,298.188 249.448,298.026 249.124,297.945 C242.647,297.864 236.737,290.092 235.361,279.809 C233.094,263.374 242.081,242.647 274.142,233.741 C276.976,232.931 365.55,206.942 366.44,206.699 L366.521,206.699 C373.646,205.566 380.69,212.124 384.576,218.115 C393.644,232.284 421.01,279.162 421.252,279.647 C421.414,279.89 421.414,280.133 421.333,280.376 C419.633,284.343 406.355,288.472 404.898,288.958 C404.655,289.039 404.331,288.958 404.088,288.796 L362.473,251.229 C358.02,253.496 324.258,270.741 300.455,284.667 C280.052,296.569 262.159,298.188 253.901,298.188 Z M366.845,208.238 C364.335,208.966 277.381,234.551 274.628,235.279 C243.619,243.943 234.875,263.859 236.98,279.566 C238.275,288.958 243.619,296.326 249.205,296.326 L249.286,296.326 C249.529,296.326 272.28,299.24 299.645,283.129 C325.068,268.232 361.825,249.61 362.23,249.367 C362.554,249.205 362.878,249.286 363.121,249.448 L404.817,287.096 C409.999,285.477 418.014,282.238 419.633,279.89 C416.961,275.275 391.782,232.203 383.2,218.763 C379.637,213.338 373.16,207.266 366.845,208.238 Z" id="Shape" fill="#333333" fill-rule="nonzero"></path><path d="M460.277,310.494 L412.751,310.494 C410.08,310.494 407.894,308.308 407.894,305.637 L407.894,294.707 C407.894,294.302 408.217,293.897 408.703,293.897 C408.784,293.897 416.233,293.573 418.581,293.249 C422.467,292.763 424.329,292.521 425.22,292.278 C425.301,291.873 425.625,291.63 426.11,291.711 C427.163,291.792 427.406,292.278 427.406,292.682 C427.406,293.492 427.406,293.897 418.824,294.868 C416.88,295.111 411.537,295.354 409.594,295.435 L409.594,305.637 C409.594,307.418 411.051,308.875 412.832,308.875 L460.358,308.875 C462.058,308.875 463.758,307.904 464.649,306.365 C465.378,305.07 465.378,303.693 464.649,302.56 C464.325,302.074 463.434,301.507 462.868,301.346 C459.224,300.374 436.717,291.711 435.826,291.306 C435.421,291.144 435.178,290.658 435.34,290.254 C435.502,289.849 435.988,289.606 436.393,289.768 C436.636,289.849 459.791,298.755 463.353,299.726 C464.244,299.969 465.539,300.698 466.106,301.669 C467.159,303.37 467.159,305.313 466.106,307.094 C464.811,309.118 462.544,310.494 460.277,310.494 Z" id="Path" fill="#333333" fill-rule="nonzero"></path><path d="M392.187,293.087 L396.559,301.912 C396.559,301.912 414.775,302.965 417.123,298.917 L407.57,287.339 L392.187,293.087 Z" id="Path" fill="#FFFFFF" fill-rule="nonzero"></path><path d="M395.425,300.212 L395.425,311.142 C395.425,313.409 397.206,315.19 399.473,315.19 L447.889,315.19 C451.775,315.19 454.447,310.899 452.342,307.58 C451.937,306.851 451.29,306.284 450.561,306.122 C446.918,305.151 419.471,294.625 419.471,294.625 C419.471,294.625 417.042,298.431 406.274,299.645 C403.845,299.807 395.425,300.212 395.425,300.212 Z" id="Path" fill="#FFFFFF" fill-rule="nonzero"></path><path d="M447.889,316 L399.473,316 C396.801,316 394.615,313.814 394.615,311.142 L394.615,300.212 C394.615,299.807 394.939,299.402 395.425,299.402 C395.506,299.402 403.926,299.079 406.274,298.755 C416.394,297.54 418.904,294.14 418.904,294.059 C419.147,293.735 419.552,293.573 419.876,293.735 C420.119,293.816 447.322,304.26 450.885,305.232 C451.775,305.475 452.585,306.122 453.152,307.094 C454.204,308.875 454.285,310.98 453.233,312.842 C452.018,314.785 450.075,316 447.889,316 Z M396.235,300.941 L396.235,311.061 C396.235,312.842 397.692,314.3 399.473,314.3 L447.889,314.3 C449.508,314.3 450.966,313.409 451.694,312.033 C452.423,310.737 452.423,309.199 451.613,307.903 C451.209,307.256 450.804,306.932 450.318,306.77 C446.918,305.798 423.681,296.892 419.714,295.435 C418.58,296.569 415.099,299.321 406.355,300.293 C404.331,300.617 398.34,300.86 396.235,300.941 Z" id="Shape" fill="#333333" fill-rule="nonzero"></path><path d="M395.992,300.86 C395.749,300.86 395.425,300.698 395.263,300.455 L391.458,294.059 C391.215,293.654 391.377,293.168 391.701,292.925 C392.105,292.682 392.591,292.844 392.834,293.168 L396.639,299.564 C396.882,299.969 396.72,300.455 396.397,300.698 C396.316,300.779 396.154,300.86 395.992,300.86 Z" id="Path" fill="#333333" fill-rule="nonzero"></path><path d="M414.937,296.65 C414.694,296.65 414.452,296.569 414.29,296.326 L407.246,287.582 C407.003,287.258 407.003,286.691 407.408,286.448 C407.732,286.205 408.298,286.205 408.541,286.61 L415.585,295.354 C415.828,295.678 415.828,296.245 415.423,296.488 C415.261,296.569 415.099,296.65 414.937,296.65 Z" id="Path" fill="#333333" fill-rule="nonzero"></path><path d="M415.18,299.402 C415.18,299.402 413.237,297.135 412.67,296.326 C411.375,294.626 410.889,293.168 412.67,292.035 C413.48,291.549 415.423,291.063 416.637,290.82 C417.366,290.658 418.095,290.901 418.58,291.306 L423.519,297.621" id="Path" fill="#FFFFFF" fill-rule="nonzero"></path><path d="M415.18,300.212 C414.937,300.212 414.694,300.131 414.532,299.888 C414.451,299.807 412.589,297.621 412.022,296.812 C411.294,295.759 410.484,294.545 410.727,293.33 C410.889,292.52 411.375,291.873 412.265,291.387 C412.994,290.982 414.37,290.496 416.475,290.092 C417.447,289.93 418.419,290.173 419.147,290.82 L424.086,295.597 C424.41,295.921 424.41,296.407 424.086,296.731 C423.762,297.054 423.276,297.054 422.953,296.731 L418.014,292.035 C417.69,291.711 417.204,291.63 416.799,291.711 C414.937,292.116 413.642,292.52 413.075,292.844 C412.346,293.249 412.346,293.654 412.265,293.735 C412.184,294.383 412.751,295.273 413.237,295.921 C413.804,296.65 415.666,298.917 415.666,298.917 C415.99,299.24 415.909,299.807 415.585,300.05 C415.504,300.131 415.342,300.212 415.18,300.212 Z" id="Path" fill="#333333" fill-rule="nonzero"></path><path d="M445.784,310.656 L397.935,310.656 C397.449,310.656 397.125,310.333 397.125,309.847 C397.125,309.361 397.449,309.037 397.935,309.037 L445.784,309.037 C446.27,309.037 446.594,309.361 446.594,309.847 C446.594,310.333 446.27,310.656 445.784,310.656 Z" id="Path" fill="#333333" fill-rule="nonzero"></path><path d="M270.094,233.741 C304.018,224.269 345.714,213.096 345.714,213.096 C352.515,211.962 359.316,214.715 363.445,220.22 L409.513,286.125 C399.959,291.63 390.405,293.492 390.405,293.492 C390.405,293.492 389.839,292.844 359.477,271.632 C342.313,259.65 337.779,250.177 337.779,250.177 L275.842,287.906 C265.884,293.978 254.468,297.217 242.728,297.217 C227.669,297.217 214.634,283.291 215.363,265.803 C215.363,265.803 235.118,250.258 242.323,246.048 C248.881,242.242 270.094,233.741 270.094,233.741 Z" id="Path" fill="#FFFFFF" fill-rule="nonzero"></path><path d="M262.241,279 C296.812,272.28 337.618,240.461 337.618,240.461 C344.419,239.327 353.325,254.063 364.012,261.673 L397.935,290.982 C393.806,292.682 390.325,293.573 390.325,293.573 C390.325,293.573 389.758,292.925 359.397,271.713 C342.233,259.73 337.699,250.258 337.699,250.258 L275.762,287.986 C265.803,294.059 254.387,297.297 242.648,297.297 C227.589,297.297 214.553,283.372 215.282,265.883 C215.282,265.883 217.873,261.673 225.079,257.463 C225.16,257.382 221.354,287.015 262.241,279 Z" id="Path" fill="#F2F2F2" fill-rule="nonzero"></path><path d="M242.647,298.026 C235.361,298.026 228.479,294.949 223.135,289.363 C217.225,283.21 214.067,274.547 214.472,265.722 C214.472,265.236 214.877,264.912 215.282,264.912 C215.768,264.912 216.091,265.317 216.091,265.722 C215.687,274.142 218.682,282.319 224.269,288.148 C229.288,293.411 235.766,296.326 242.566,296.326 C254.063,296.326 265.398,293.168 275.195,287.177 L337.132,249.448 C337.294,249.367 337.536,249.286 337.779,249.367 C338.022,249.448 338.184,249.61 338.265,249.772 C338.346,249.853 342.961,259.164 359.72,270.903 C377.047,282.967 388.139,290.82 390.406,292.521 C392.187,292.116 400.121,290.173 408.137,285.72 L362.554,220.544 C358.587,215.281 352.11,212.691 345.552,213.743 C345.309,213.824 318.348,220.382 290.902,228.155 C281.105,230.988 272.199,233.903 264.427,236.899 C264.022,237.061 263.536,236.818 263.374,236.413 C263.212,236.008 263.455,235.522 263.86,235.36 C271.632,232.365 280.538,229.369 290.416,226.535 C317.862,218.682 344.904,212.124 345.147,212.043 C352.272,210.909 359.397,213.743 363.769,219.492 L409.837,285.396 C409.999,285.558 409.999,285.801 409.999,286.043 C409.918,286.286 409.837,286.448 409.594,286.529 C400.04,292.035 390.648,293.897 390.244,293.978 C390.001,294.059 389.758,293.978 389.515,293.816 C389.272,293.654 386.843,291.711 358.587,272.037 C344.014,261.835 338.508,253.577 336.97,251.067 L275.761,288.31 C266.046,294.787 254.468,298.026 242.647,298.026 Z" id="Path" fill="#333333" fill-rule="nonzero"></path><path d="M337.698,250.986 C337.374,250.986 337.132,250.824 336.97,250.581 C336.727,250.177 336.889,249.691 337.293,249.448 L342.475,246.614 C342.88,246.371 343.366,246.533 343.609,246.938 C343.851,247.343 343.69,247.829 343.285,248.071 L338.103,250.905 C337.941,250.986 337.86,250.986 337.698,250.986 Z" id="Path" fill="#333333" fill-rule="nonzero"></path><path d="M215.282,266.612 C215.201,266.612 215.12,266.612 215.039,266.612 C214.796,266.531 214.553,266.288 214.472,265.964 C212.772,257.625 210.343,246.857 208.157,237.384 C207.023,232.446 206.052,227.993 205.323,224.673 L205.08,223.702 C198.846,195.283 197.227,187.673 196.255,175.366 C194.312,150.106 201.842,142.657 209.048,137.638 C219.087,130.675 228.155,130.27 228.56,130.27 C228.964,130.189 229.369,130.594 229.369,131.08 C229.369,131.565 229.045,131.889 228.56,131.889 C228.479,131.889 219.492,132.294 209.938,139.014 C203.056,143.791 195.931,150.916 197.875,175.286 C198.846,187.43 200.465,195.041 206.7,223.378 L206.942,224.349 C207.671,227.669 208.643,232.122 209.776,237.061 C211.8,246.047 214.067,256.087 215.767,264.264 C219.978,260.378 236.494,246.128 256.978,238.356 C267.746,234.227 274.628,231.879 276.733,231.15 C272.28,213.338 268.717,188.321 269.446,186.944 C274.871,177.876 271.632,171.156 268.879,165.246 C267.746,162.817 266.612,160.469 266.289,158.202 C266.208,157.797 266.531,157.393 267.017,157.312 C267.503,157.231 267.827,157.555 267.908,158.04 C268.151,159.983 269.203,162.25 270.337,164.598 C273.17,170.59 276.652,177.957 270.904,187.673 C270.823,189.778 273.575,212.367 278.433,231.474 C278.514,231.879 278.271,232.284 277.866,232.446 C277.785,232.446 270.499,234.875 257.464,239.894 C233.984,248.8 215.848,266.288 215.686,266.45 C215.686,266.531 215.525,266.612 215.282,266.612 Z" id="Path" fill="#333333" fill-rule="nonzero"></path><path d="M247.424,148.487 C241.595,148.487 236.089,145.734 231.555,140.471 C227.993,136.342 226.293,132.294 226.212,132.132 C226.131,131.889 226.131,131.646 226.293,131.404 C226.455,131.161 226.617,130.999 226.86,130.999 C226.86,130.999 229.612,130.432 232.041,124.926 C234.632,118.773 233.741,113.349 233.741,113.268 C233.661,112.863 233.984,112.377 234.389,112.296 C234.794,112.215 235.28,112.539 235.361,112.944 C235.442,113.187 236.413,118.935 233.58,125.493 C231.636,129.946 229.45,131.646 228.155,132.213 C229.693,135.371 236.332,147.272 248.153,146.868 C250.096,146.787 251.553,145.977 252.282,144.601 C253.254,142.819 252.849,140.229 251.149,137.638 C250.906,137.233 250.987,136.747 251.391,136.504 C251.796,136.261 252.282,136.342 252.525,136.747 C254.468,139.743 254.954,142.981 253.739,145.329 C252.768,147.272 250.744,148.406 248.234,148.487 C247.91,148.487 247.667,148.487 247.424,148.487 Z" id="Path" fill="#333333" fill-rule="nonzero"></path><path d="M258.597,143.305 C258.192,143.305 257.868,142.981 257.788,142.576 C257.545,140.714 256.654,138.528 255.197,136.261 C254.954,135.856 255.035,135.37 255.44,135.128 C255.844,134.885 256.33,134.966 256.573,135.37 C258.192,137.799 259.083,140.147 259.407,142.333 C259.488,142.738 259.164,143.224 258.678,143.224 C258.678,143.305 258.597,143.305 258.597,143.305 Z" id="Path" fill="#333333" fill-rule="nonzero"></path><path d="M246.776,153.425 C237.546,153.425 231.231,148.001 227.345,142.981 C227.102,142.657 227.102,142.091 227.507,141.848 C227.831,141.605 228.397,141.605 228.64,142.01 C232.77,147.353 239.975,153.263 250.743,151.401 C252.444,151.077 255.034,150.025 256.573,147.839 C256.816,147.515 257.301,147.353 257.706,147.677 C258.03,147.92 258.111,148.406 257.868,148.811 C256.087,151.32 253.01,152.616 250.986,153.021 C249.529,153.263 248.072,153.425 246.776,153.425 Z" id="Path" fill="#333333" fill-rule="nonzero"></path><path d="M250.501,143.305 C250.501,143.305 250.42,143.305 250.501,143.305 C250.015,143.305 249.691,142.9 249.691,142.414 C249.691,142.171 250.096,136.828 252.444,132.699 C252.687,132.294 253.172,132.132 253.577,132.375 C253.982,132.618 254.144,133.104 253.901,133.508 C251.715,137.395 251.391,142.495 251.391,142.576 C251.229,142.981 250.905,143.305 250.501,143.305 Z" id="Path" fill="#333333" fill-rule="nonzero"></path><path d="M295.84,221.273 C295.435,221.273 295.03,220.949 295.03,220.544 C293.978,203.137 303.613,201.842 304.017,201.761 C304.422,201.68 304.827,202.004 304.908,202.489 C304.989,202.894 304.665,203.299 304.179,203.38 C303.856,203.461 295.678,204.675 296.65,220.463 C296.65,220.868 296.326,221.192 295.84,221.273 Z" id="Path" fill="#333333" fill-rule="nonzero"></path><path d="M270.175,117.478 C271.065,117.802 271.956,117.316 272.28,116.506 L273.17,113.996 C273.494,113.106 273.008,112.215 272.199,111.891 C271.308,111.567 270.417,112.053 270.094,112.863 L269.203,115.373 C268.879,116.182 269.365,117.154 270.175,117.478 Z" id="Path" fill="#333333" fill-rule="nonzero"></path><path d="M261.026,113.591 C261.835,113.996 262.807,113.591 263.212,112.782 L264.345,110.353 C264.75,109.543 264.345,108.572 263.535,108.167 C262.726,107.762 261.754,108.167 261.349,108.977 L260.216,111.405 C259.811,112.296 260.216,113.268 261.026,113.591 Z" id="Path" fill="#333333" fill-rule="nonzero"></path><path d="M275.518,108.896 C275.195,108.896 274.871,108.734 274.79,108.41 C274.304,107.276 272.847,107.681 272.766,107.762 C272.361,107.924 271.875,107.681 271.794,107.195 C271.632,106.791 271.875,106.305 272.361,106.224 C273.413,105.9 275.599,105.819 276.328,107.843 C276.49,108.248 276.328,108.734 275.842,108.896 C275.68,108.896 275.599,108.896 275.518,108.896 Z" id="Path" fill="#333333" fill-rule="nonzero"></path><path d="M266.855,105.414 C266.612,105.414 266.288,105.252 266.126,105.009 C264.993,103.147 263.617,103.714 263.374,103.795 C262.969,103.957 262.483,103.876 262.321,103.471 C262.078,103.066 262.24,102.58 262.645,102.419 C263.617,101.852 265.965,101.528 267.584,104.2 C267.827,104.605 267.665,105.09 267.341,105.333 C267.098,105.333 266.936,105.414 266.855,105.414 Z" id="Path" fill="#333333" fill-rule="nonzero"></path><path d="M258.273,123.145 C253.739,123.145 250.986,119.259 250.096,116.83 C249.934,116.425 250.177,115.939 250.581,115.778 C250.986,115.616 251.472,115.858 251.634,116.263 C251.715,116.506 254.225,122.821 260.054,121.283 C260.459,121.202 260.945,121.445 261.026,121.85 C261.107,122.255 260.864,122.74 260.459,122.821 C259.73,123.064 259.002,123.145 258.273,123.145 Z" id="Path" fill="#333333" fill-rule="nonzero"></path><path d="M332.516,213.014 C332.516,213.014 333.65,210.667 331.383,209.857 C331.14,209.776 324.906,210.667 319.643,210.828 C315.676,210.909 312.114,210.262 312.114,210.262 L313.166,206.537 C309.28,206.942 300.293,214.31 300.293,214.31 L250.824,213.824 L249.043,213.824 L245.805,205.161 L234.551,174.881 C231.312,161.846 230.988,149.62 222.487,145.977 C202.327,137.476 197.307,164.76 202.408,179.334 C204.108,184.272 206.132,189.292 208.318,194.312 C214.067,207.509 220.949,220.382 226.778,230.098 C233.66,241.514 246.533,240.38 246.533,240.38 L263.374,235.765 L295.921,226.778 L329.844,217.629 C329.844,217.629 334.702,216.496 335.836,215.12 C336.483,214.391 335.269,212.853 332.516,213.014 Z" id="Path" fill="#FFFFFF" fill-rule="nonzero"></path><path d="M259.649,237.627 C259.406,237.627 259.082,237.465 258.92,237.222 C252.686,226.292 257.949,214.553 258.111,214.067 C258.273,213.662 258.758,213.5 259.163,213.662 C259.568,213.824 259.73,214.31 259.568,214.715 C259.487,214.796 254.467,226.211 260.297,236.413 C260.54,236.818 260.378,237.303 259.973,237.546 C259.892,237.627 259.73,237.627 259.649,237.627 Z" id="Path" fill="#34B151" fill-rule="nonzero"></path><path d="M292.278,215.201 C291.63,215.201 291.063,215.201 290.577,215.201 C290.092,215.201 289.687,215.201 289.444,215.201 L248.557,214.715 C248.234,214.715 247.91,214.472 247.829,214.229 C247.262,212.691 233.741,177.067 231.312,164.113 C231.231,163.708 231.555,163.222 231.96,163.141 C232.365,163.06 232.851,163.384 232.932,163.789 C235.118,175.771 247.505,208.643 249.205,213.096 L289.525,213.581 C289.768,213.581 290.173,213.581 290.658,213.581 C292.683,213.581 296.569,213.581 298.674,213.419 C299.322,213.338 299.888,213.177 300.374,212.853 C306.446,208.804 310.818,206.457 313.409,205.809 C313.814,205.728 314.3,205.971 314.381,206.376 C314.462,206.78 314.219,207.266 313.814,207.347 C312.114,207.752 308.551,209.29 301.265,214.148 C300.536,214.634 299.645,214.958 298.755,215.039 C297.055,215.12 294.383,215.201 292.278,215.201 Z" id="Path" fill="#333333" fill-rule="nonzero"></path><path d="M330.33,214.634 C330.007,214.634 329.602,214.391 329.521,213.986 C329.44,213.581 329.683,213.096 330.087,213.015 C330.897,212.853 331.869,212.448 331.788,211.719 C331.788,211.557 331.707,211.395 331.626,211.314 C331.302,211.071 330.654,210.909 330.007,210.99 C329.926,210.99 329.764,210.99 329.44,211.071 C320.372,212.205 314.623,212.448 312.195,211.638 C311.79,211.476 311.547,211.071 311.628,210.586 C311.79,210.181 312.195,209.938 312.68,210.019 C314.219,210.505 318.267,210.748 329.278,209.371 C329.602,209.371 329.764,209.29 329.845,209.29 C331.059,209.128 332.112,209.452 332.759,210.019 C333.245,210.424 333.488,210.99 333.488,211.638 C333.488,212.448 333.083,213.905 330.492,214.553 C330.492,214.634 330.411,214.634 330.33,214.634 Z" id="Path" fill="#333333" fill-rule="nonzero"></path><path d="M244.995,241.271 C244.347,241.271 243.78,241.271 243.213,241.19 C233.66,240.218 227.749,233.013 224.511,227.102 C215.929,211.476 205.485,190.75 201.76,179.658 C201.598,179.253 201.841,178.767 202.246,178.605 C202.651,178.443 203.137,178.686 203.299,179.091 C206.942,190.021 217.386,210.667 225.968,226.212 C229.045,231.798 234.55,238.599 243.375,239.49 C245.642,239.732 248.071,239.49 250.581,238.761 L303.936,223.945 C313.894,221.192 329.035,217.063 329.763,216.82 C330.168,216.658 330.654,216.901 330.816,217.306 C330.978,217.71 330.735,218.196 330.33,218.358 C329.439,218.682 306.932,224.835 304.422,225.483 L251.067,240.299 C248.881,240.947 246.857,241.271 244.995,241.271 Z" id="Path" fill="#333333" fill-rule="nonzero"></path><path d="M264.507,236.251 C264.183,236.251 263.94,236.089 263.778,235.765 C257.544,222.892 262.969,213.905 263.212,213.581 C263.454,213.176 263.94,213.095 264.345,213.338 C264.75,213.581 264.831,214.067 264.588,214.472 C264.507,214.553 259.406,223.135 265.236,235.117 C265.398,235.522 265.236,236.008 264.831,236.17 C264.75,236.251 264.588,236.251 264.507,236.251 Z" id="Path" fill="#333333" fill-rule="nonzero"></path><path d="M244.347,214.634 C243.861,214.634 243.538,214.31 243.538,213.824 C243.538,213.338 243.861,213.014 244.347,213.014 L249.61,213.014 C250.096,213.014 250.419,213.338 250.419,213.824 C250.419,214.31 250.096,214.634 249.61,214.634 L244.347,214.634 Z" id="Path" fill="#333333" fill-rule="nonzero"></path><path d="M329.925,218.439 C329.601,218.439 329.277,218.196 329.115,217.872 C329.035,217.468 329.277,216.982 329.682,216.901 L333.649,215.767 C334.945,215.282 335.593,214.796 335.431,214.229 C335.35,214.067 335.269,213.905 335.107,213.824 C334.702,213.581 333.892,213.662 333.326,213.824 C332.759,213.986 332.111,214.148 331.463,214.31 C330.897,214.472 330.33,214.553 329.682,214.715 C325.391,215.929 321.667,216.01 321.505,216.01 C321.1,216.01 320.695,215.686 320.695,215.201 C320.695,214.715 321.019,214.391 321.505,214.391 C321.505,214.391 325.229,214.31 329.277,213.176 C329.925,213.015 330.573,212.853 331.14,212.691 C331.787,212.529 332.354,212.448 332.921,212.286 C333.73,212.043 335.026,211.881 335.997,212.448 C336.564,212.772 336.888,213.257 337.05,213.905 C337.374,215.362 336.483,216.496 334.216,217.306 L330.168,218.439 C330.087,218.439 330.006,218.439 329.925,218.439 Z" id="Path" fill="#333333" fill-rule="nonzero"></path></g></g></g></svg>