<svg xmlns="http://www.w3.org/2000/svg" width="80" height="80" viewBox="0 0 80 80" fill="none"><circle cx="40" cy="40" r="40" fill="white"></circle><path d="M52.8591 31.4462C51.9455 30.9244 50.7701 30.9244 49.7256 31.4462L42.4153 35.7556L37.4548 38.4966L30.2744 42.8089C29.3608 43.3307 28.1854 43.3307 27.1409 42.8089L21.5297 39.4142C21.0525 39.133 20.6569 38.7322 20.3821 38.2513C20.1072 37.7704 19.9626 37.2261 19.9625 36.6722V30.1407C19.9625 29.0961 20.4852 28.0515 21.5297 27.3988L27.1409 24.135C28.0545 23.6122 29.2299 23.6122 30.2744 24.135L35.8856 27.5297C36.3629 27.8107 36.7586 28.2115 37.0335 28.6924C37.3084 29.1733 37.4529 29.7177 37.4528 30.2717V34.5801L42.4133 31.7071V27.2688C42.4133 26.2242 41.8916 25.1796 40.8471 24.5268L30.4043 18.3921C29.4908 17.8693 28.3163 17.8693 27.2719 18.3921L16.5662 24.6568C15.5217 25.1796 15 26.2242 15 27.2688V39.5412C15 40.5858 15.5217 41.6275 16.5662 42.2832L27.1409 48.4209C28.0545 48.9436 29.2299 48.9436 30.2744 48.4209L37.4548 44.2424L42.4153 41.3705L49.5957 37.1921C50.5092 36.6703 51.6846 36.6703 52.7291 37.1921L58.3404 40.4568C58.8184 40.7381 59.2146 41.1395 59.4896 41.6212C59.7647 42.1028 59.9091 42.648 59.9085 43.2027V49.7303C59.9085 50.7749 59.3868 51.8195 58.3423 52.4723L52.8591 55.737C51.9455 56.2588 50.7701 56.2588 49.7256 55.737L44.1144 52.4723C43.6373 52.1911 43.2419 51.7902 42.9672 51.3093C42.6925 50.8284 42.5481 50.2841 42.5482 49.7303V45.5479L37.5847 48.4209V52.7292C37.5847 53.7738 38.1074 54.8185 39.1519 55.4712L49.7256 61.6079C50.6402 62.1307 51.8146 62.1307 52.8591 61.6079L63.4338 55.4702C63.9109 55.189 64.3063 54.7882 64.581 54.3073C64.8557 53.8264 65.0001 53.2821 65 52.7283V40.3229C65 39.2783 64.4783 38.2337 63.4338 37.581L52.8591 31.4462Z" fill="#263238"></path></svg>