<svg xmlns="http://www.w3.org/2000/svg" viewBox="0 0 64 64"><defs><style>.cls-1{fill:#a2d0ff;}.cls-2{fill:#2e58ff;}.cls-3{fill:#d1e7ff;}.cls-4{fill:#8bc4ff;}</style></defs><title></title><g id="Favorite"><path class="cls-1" d="M57,44l-1.36.18a4.63,4.63,0,0,0-3.94,5.43L52,50.93a4.62,4.62,0,0,1-6.74,4.91l-1.44-.78a4.61,4.61,0,0,0-6.26,1.84L36,59.59a4.61,4.61,0,0,1-8.09,0L26.48,56.9a4.61,4.61,0,0,0-6.26-1.84l-1.44.78A4.62,4.62,0,0,1,12,50.93l.25-1.35a4.63,4.63,0,0,0-3.94-5.43L7,44A4.63,4.63,0,0,1,4.42,36l1-.94a4.64,4.64,0,0,0,0-6.72l-1-.94a4.63,4.63,0,0,1,2.57-8l1.36-.17a4.63,4.63,0,0,0,3.94-5.43L12,12.51A4.62,4.62,0,0,1,18.78,7.6l1.59.87a4.61,4.61,0,0,0,6.17-1.7L28,4.26a4.61,4.61,0,0,1,7.93,0l1.49,2.51a4.61,4.61,0,0,0,6.17,1.7l1.59-.87A4.62,4.62,0,0,1,52,12.51l-.25,1.36a4.63,4.63,0,0,0,3.94,5.43l1.36.17a4.63,4.63,0,0,1,2.57,8l-1,.94a4.64,4.64,0,0,0,0,6.72l1,.94A4.63,4.63,0,0,1,57,44Z"></path><path class="cls-2" d="M26.19,60.55l-1.47-2.69a2.62,2.62,0,0,0-3.54-1l-1.44.79a6.62,6.62,0,0,1-9.67-7l.25-1.36a2.61,2.61,0,0,0-2.23-3.08L6.73,46A6.62,6.62,0,0,1,3,34.58l1-.95a2.63,2.63,0,0,0,0-3.82l-1-.94A6.63,6.63,0,0,1,6.73,17.49l1.36-.18a2.61,2.61,0,0,0,2.23-3.08l-.25-1.36a6.62,6.62,0,0,1,9.67-7l1.59.87a2.61,2.61,0,0,0,3.49-1l1.49-2.51a6.62,6.62,0,0,1,11.37,0l1.49,2.51a2.6,2.6,0,0,0,3.49,1l1.59-.87a6.62,6.62,0,0,1,9.67,7l-.25,1.36a2.61,2.61,0,0,0,2.23,3.08l1.36.18A6.63,6.63,0,0,1,61,28.87l-1,.94a2.63,2.63,0,0,0,0,3.82l1,.95A6.62,6.62,0,0,1,57.25,46c-1.34.18-2.33.15-3.13,1.23s-.45,2-.2,3.39a6.62,6.62,0,0,1-9.67,7l-1.44-.79a2.62,2.62,0,0,0-3.54,1L37.8,60.55A6.61,6.61,0,0,1,26.19,60.55Zm-3.77-8a6.61,6.61,0,0,1,5.81,3.44l1.47,2.69a2.61,2.61,0,0,0,4.59,0l1.47-2.69a6.62,6.62,0,0,1,9-2.64l1.45.79A2.61,2.61,0,0,0,50,51.3c-.32-1.73-.91-4,.91-6.47s3.9-2.59,5.84-2.84a2.63,2.63,0,0,0,1.46-4.52c-1.54-1.46-3-2.8-3-5.75s1.65-4.42,3-5.75a2.62,2.62,0,0,0-1.45-4.51c-2.11-.28-4.12-.47-5.85-2.85S49.64,14,50,12.14a2.61,2.61,0,0,0-3.81-2.78l-1.59.86a6.59,6.59,0,0,1-8.85-2.43C34.39,5.53,33.87,4,32,4a2.54,2.54,0,0,0-2.24,1.28L28.26,7.8a6.59,6.59,0,0,1-8.85,2.42l-1.59-.86A2.61,2.61,0,0,0,14,12.14c.33,1.79.9,4-.9,6.47S9.2,21.2,7.25,21.46A2.63,2.63,0,0,0,5.79,26c1.54,1.45,3.06,2.8,3.06,5.75s-1.63,4.4-3.06,5.75A2.64,2.64,0,0,0,7.25,42c2.11.27,4.12.46,5.85,2.84s1.25,4.58.9,6.47a2.62,2.62,0,0,0,3.82,2.79C19.44,53.21,20.49,52.5,22.42,52.5ZM57,44Z"></path><circle class="cls-3" cx="32" cy="32" r="18"></circle><path class="cls-2" d="M32,52A20,20,0,1,1,52,32,20,20,0,0,1,32,52Zm0-36A16,16,0,1,0,48,32,16,16,0,0,0,32,16Z"></path><polygon class="cls-4" points="32 23 34.75 28.58 40.91 29.47 36.45 33.81 37.51 39.95 32 37.05 26.49 39.95 27.55 33.81 23.09 29.47 29.25 28.58 32 23"></polygon><path class="cls-2" d="M37.51,42c-.66,0-.48,0-5.51-2.64l-4.58,2.41a2,2,0,0,1-2.9-2.11l.88-5.1-3.7-3.6a2,2,0,0,1,1.1-3.42l5.12-.74,2.29-4.63a2,2,0,0,1,3.58,0l2.29,4.63,5.12.74a2,2,0,0,1,1.1,3.42l-3.7,3.6.88,5.1A2,2,0,0,1,37.51,42Zm-2.66-5.66c-.61-3.53-.79-2.93,1.76-5.42-3.55-.52-3-.14-4.61-3.35-1.58,3.21-1.07,2.84-4.61,3.35,2.55,2.49,2.37,1.87,1.76,5.42C32.31,34.63,31.69,34.63,34.85,36.29Z"></path></g></svg>