<svg xmlns="http://www.w3.org/2000/svg" width="80" height="80" viewBox="0 0 80 80" fill="none"><circle cx="40" cy="40" r="40" fill="white"></circle><path d="M40.4742 46.9225L47.0848 57.2977L53.1913 53.7588L44.5097 40.0751L40.4742 46.9225Z" fill="#263238"></path><path d="M58.7522 49.5968L58.7477 46.7614L49.2615 31.9862L45.742 37.958L54.8997 52.7687L58.2108 50.8501C58.5356 50.5864 58.7321 50.1993 58.7528 49.7815L58.7522 49.5968Z" fill="#263238"></path><path d="M19.0001 52.2707L23.676 54.965L39.2358 30.0114L36.595 29.9417C34.345 29.9098 31.9213 30.4947 30.8087 32.3108L21.9727 46.0061L19 50.5735V52.2707H19.0001Z" fill="#263238"></path><path d="M48.2164 30.0115L41.2567 30.0368L25.5103 56.0211L31.014 59.1901L32.5108 56.6516L48.2164 30.0115Z" fill="#263238"></path><path d="M61.6851 29.9756C61.627 28.5201 60.8389 27.1875 59.6043 26.4118L42.3017 16.4616C41.0806 15.8466 39.555 15.8458 38.3319 16.4611C38.1873 16.534 21.5054 26.2089 21.5054 26.2089C21.2746 26.3196 21.0522 26.4515 20.843 26.6011C19.7409 27.391 19.0692 28.6182 19.0002 29.9667V50.5737L21.9728 46.0063L21.9468 30.106C21.9503 30.0479 21.9576 29.9908 21.9679 29.9343C22.035 29.5601 22.2439 29.2264 22.5585 29.0009C22.637 28.9447 39.6038 19.1237 39.6578 19.0966C40.0566 18.8963 40.5633 18.8942 40.9626 19.0905L58.0414 28.9145C58.4455 29.1718 58.6988 29.6081 58.7212 30.0851V49.7816C58.7006 50.1994 58.5355 50.5864 58.2107 50.8502L54.8995 52.7689L53.1912 53.7589L47.0846 57.2977L40.8919 60.8867C40.5583 61.0072 40.1683 61.0005 39.8376 60.8659L32.5106 56.6517L31.0139 59.1901L37.5984 62.9811C37.8161 63.1049 38.0102 63.2146 38.1694 63.3042C38.4159 63.4425 38.5838 63.5348 38.6432 63.5635C39.1112 63.7908 39.7845 63.9232 40.3913 63.9232C40.9476 63.9232 41.49 63.821 42.0034 63.6199L59.9906 53.203C61.023 52.4032 61.6304 51.1969 61.6851 49.8901V29.9756Z" fill="#263238"></path></svg>