<svg xmlns="http://www.w3.org/2000/svg" width="80" height="80" viewBox="0 0 80 80" fill="none"><circle cx="40" cy="40" r="40" fill="white"></circle><path d="M49.9585 43.4765C50.9369 41.8156 52.5186 41.8156 53.4926 43.4765L59.5824 53.9857C60.5608 55.6455 59.7605 57 57.8015 57H45.535C43.6015 57 42.8012 55.6455 43.754 53.9857L49.9585 43.4765ZM38.1785 23.2449C39.1558 21.585 40.7119 21.585 41.6903 23.2449L43.0461 25.6519L46.2463 31.1795C46.6303 31.9593 46.8299 32.8144 46.8299 33.6807C46.8299 34.547 46.6303 35.4021 46.2463 36.1819L35.5104 54.466C35.031 55.1985 34.3829 55.8096 33.6184 56.2499C32.8539 56.6901 31.9946 56.9471 31.1102 57H22.1965C20.2408 57 19.4404 55.6673 20.4155 53.9857L38.1785 23.2449Z" fill="#263238"></path></svg>