<svg xmlns="http://www.w3.org/2000/svg" width="80" height="80" viewBox="0 0 80 80" fill="none"><circle cx="40" cy="40" r="40" fill="white"></circle><path d="M40.1792 46.3437L56.3459 38.2604L40.1792 14.0104L24.0125 38.2604L40.1792 46.3437Z" fill="white"></path><path d="M40.1792 47.3542C40.0221 47.3536 39.8672 47.317 39.7265 47.2471L23.5599 39.1638C23.4315 39.0998 23.3182 39.0093 23.2275 38.8982C23.1369 38.7871 23.0709 38.6579 23.034 38.5193C22.9971 38.3807 22.9901 38.2359 23.0136 38.0944C23.037 37.9529 23.0903 37.818 23.1698 37.6987L39.3365 13.4487C39.7124 12.8869 40.642 12.8869 41.0179 13.4487L57.1845 37.6987C57.2635 37.8182 57.3162 37.9531 57.3393 38.0944C57.3623 38.2358 57.3552 38.3804 57.3184 38.5188C57.2815 38.6572 57.2158 38.7862 57.1255 38.8974C57.0352 39.0086 56.9224 39.0994 56.7945 39.1638L40.6278 47.2471C40.4887 47.3174 40.3351 47.354 40.1792 47.3542ZM25.4877 37.8684L40.1792 45.2142L54.8707 37.8684L40.1792 15.8312L25.4877 37.8684Z" fill="#263238"></path><path d="M40.1792 51.3958L24.0125 43.3125L40.1792 66.5521L56.3459 43.3125L40.1792 51.3958Z" fill="white"></path><path d="M40.1792 67.5625C40.0164 67.5627 39.8561 67.5234 39.7118 67.4481C39.5675 67.3728 39.4436 67.2637 39.3507 67.1301L23.184 43.8905C23.0555 43.7062 22.9922 43.4844 23.0039 43.26C23.0156 43.0357 23.1018 42.8217 23.2487 42.6518C23.3957 42.4819 23.5951 42.3658 23.8154 42.3219C24.0357 42.2779 24.2643 42.3087 24.4652 42.4092L40.1792 50.2662L55.8932 42.4092C56.094 42.3106 56.3219 42.2813 56.5411 42.3259C56.7604 42.3705 56.9587 42.4865 57.1051 42.6557C57.2514 42.825 57.3376 43.0379 57.3502 43.2613C57.3627 43.4847 57.3009 43.7059 57.1744 43.8905L41.0077 67.1301C40.9148 67.2637 40.7909 67.3728 40.6466 67.4481C40.5023 67.5234 40.3419 67.5627 40.1792 67.5625ZM27.1044 45.9881L40.1792 64.7819L53.254 45.9881L40.6319 52.2992C40.4915 52.369 40.3369 52.4053 40.1802 52.4053C40.0235 52.4053 39.8689 52.369 39.7285 52.2992L27.1044 45.9881Z" fill="#263238"></path><path d="M40.1792 47.3542C39.9112 47.3542 39.6542 47.2477 39.4647 47.0582C39.2752 46.8687 39.1688 46.6117 39.1688 46.3438V14.0104C39.1688 13.7424 39.2752 13.4854 39.4647 13.2959C39.6542 13.1065 39.9112 13 40.1792 13C40.4472 13 40.7042 13.1065 40.8937 13.2959C41.0832 13.4854 41.1896 13.7424 41.1896 14.0104V46.3438C41.1896 46.6117 41.0832 46.8687 40.8937 47.0582C40.7042 47.2477 40.4472 47.3542 40.1792 47.3542Z" fill="#263238"></path><path d="M40.1792 67.5625C39.9112 67.5625 39.6542 67.456 39.4647 67.2665C39.2752 67.077 39.1688 66.82 39.1688 66.552V51.3958C39.1688 51.1278 39.2752 50.8708 39.4647 50.6813C39.6542 50.4918 39.9112 50.3854 40.1792 50.3854C40.4472 50.3854 40.7042 50.4918 40.8937 50.6813C41.0832 50.8708 41.1896 51.1278 41.1896 51.3958V66.552C41.1896 66.82 41.0832 67.077 40.8937 67.2665C40.7042 67.456 40.4472 67.5625 40.1792 67.5625Z" fill="#263238"></path><path d="M56.3459 39.2709C56.2467 39.2706 56.148 39.2564 56.0528 39.2284L40.1792 34.435L24.3056 39.2284C24.0554 39.2858 23.7929 39.246 23.571 39.1171C23.3491 38.9882 23.1844 38.7799 23.1102 38.5343C23.036 38.2886 23.0579 38.024 23.1714 37.7938C23.2848 37.5637 23.4815 37.3852 23.7215 37.2945L39.8882 32.4122C40.0788 32.3556 40.2817 32.3556 40.4722 32.4122L56.6389 37.2945C56.87 37.3654 57.068 37.5168 57.197 37.7212C57.326 37.9256 57.3774 38.1695 57.342 38.4086C57.3065 38.6477 57.1865 38.8662 57.0038 39.0244C56.821 39.1826 56.5876 39.2701 56.3459 39.2709Z" fill="#263238"></path></svg>