<svg xmlns="http://www.w3.org/2000/svg" width="160" height="68" viewBox="0 0 160 68" fill="none"><g clip-path="url(#clip0_307_43794)"><path fill-rule="evenodd" clip-rule="evenodd" d="M121.865 2.19385H120.923C120.521 2.61602 120.224 3.11439 119.935 3.59807C119.68 4.02673 119.431 4.44384 119.122 4.78615C114.882 10.2757 109.969 15.2231 105.022 20.0689C105.016 19.6111 105.02 19.1534 105.023 18.6963C105.031 17.7829 105.038 16.872 104.971 15.9686C104.778 15.5313 104.247 15.4501 103.818 15.3846C103.798 15.3816 103.779 15.3786 103.76 15.3756C103.776 14.8673 103.76 14.1049 103.12 14.0202C100.882 13.8507 98.6442 13.7321 96.4063 13.6305C95.851 13.5627 95.2453 14.0032 95.2116 14.5793C95.1552 15.0055 95.1135 15.4377 95.0718 15.8708C95.014 16.4708 94.956 17.0726 94.8582 17.663C94.1317 21.1854 93.9216 24.7728 93.7117 28.3559C93.6591 29.2539 93.6065 30.1517 93.5458 31.0481C93.5316 31.1727 93.5257 31.3048 93.5196 31.4392C93.4968 31.9443 93.4725 32.4819 93.0073 32.7763C92.9718 30.8319 92.9745 28.886 92.9772 26.94C92.9834 22.4251 92.9897 17.9094 92.5193 13.4102C92.4857 12.9189 92.2501 12.4953 91.9809 12.1056C91.8715 12.1056 91.7579 12.1098 91.6444 12.1141C91.5308 12.1183 91.4172 12.1225 91.3078 12.1225C91.2405 11.5634 91.0723 11.0212 90.7021 10.5977C89.9096 10.6101 89.1263 10.7235 88.3453 10.8366C88.065 10.8771 87.785 10.9177 87.505 10.9535C86.543 11.088 85.5999 10.9187 84.6581 10.7496C83.8208 10.5993 82.9847 10.4491 82.1373 10.5129C81.4138 11.2923 81.3801 12.4445 81.4979 13.4441C81.8477 15.6914 81.8689 17.9561 81.8901 20.2194C81.8984 21.113 81.9068 22.0064 81.9354 22.8984C81.9396 23.5999 81.9449 24.3003 81.9502 25.0001C81.9659 27.0895 81.9816 29.1742 81.969 31.2683C81.9017 31.1497 81.8512 31.0311 81.8008 30.8956C80.6242 27.2647 79.7439 23.5485 78.863 19.8299C78.3833 17.8049 77.9034 15.7792 77.3754 13.766C76.9715 12.1903 76.0629 10.784 74.9523 9.61495C74.6922 9.34279 74.4507 9.04729 74.209 8.75156C73.6531 8.07151 73.0962 7.39024 72.3105 6.98876C72.27 6.96769 72.2293 6.9464 72.1886 6.92506C71.7049 6.67189 71.2047 6.41006 70.6615 6.37881C70.2667 6.3517 69.8718 6.36315 69.4769 6.37459C69.1314 6.38461 68.7859 6.39462 68.4404 6.37881C68.3955 6.42964 68.3432 6.4767 68.2908 6.52377C68.1861 6.6179 68.0814 6.71202 68.0366 6.83627C67.9943 7.34736 68.011 7.85845 68.0275 8.35957C68.0307 8.45651 68.0338 8.55307 68.0366 8.64919C67.2794 8.39505 66.4549 8.32727 65.6472 8.34422C64.9933 8.96229 64.8474 9.8574 64.7059 10.7253C64.669 10.9519 64.6324 11.1766 64.5871 11.394C64.4114 12.2111 64.2898 13.0324 64.1685 13.8516C64.0458 14.6801 63.9235 15.5066 63.7458 16.3244C63.7127 16.5157 63.5986 16.6702 63.485 16.8241C63.3672 16.9837 63.2498 17.1426 63.2241 17.341C63.0793 19.8525 62.6575 22.3485 62.2383 24.8289C62.2191 24.9422 62.2 25.0555 62.1809 25.1688C61.8569 27.0883 61.5155 29.006 61.1741 30.9243C60.4517 34.9831 59.7288 39.0441 59.1689 43.1285C59.0848 42.5525 59.0511 41.9594 59.068 41.3834C58.9165 35.2838 58.9838 29.1843 59.2531 23.0848C59.2264 22.7626 59.3359 22.4735 59.4451 22.185C59.5427 21.9274 59.6401 21.6702 59.6401 21.3905C59.6737 20.6111 59.6401 19.8317 59.6064 19.0523C59.4045 18.8998 59.2026 18.7643 59.0007 18.6287C59.0007 18.4423 59.0049 18.256 59.0091 18.0696C59.0133 17.8832 59.0175 17.6968 59.0175 17.5105C58.6473 17.2055 58.2266 17.0191 57.7723 16.9005C57.7659 16.8225 57.7644 16.7382 57.7628 16.6517C57.7563 16.2877 57.7492 15.8853 57.3685 15.7484C57.2239 15.6954 57.0781 15.6367 56.931 15.5775C56.3246 15.3332 55.6964 15.0802 55.0464 15.1893C54.5014 15.6126 54.3311 16.3116 54.1753 16.9506C54.1628 17.0021 54.1503 17.0533 54.1378 17.1038C53.9527 17.0869 53.7508 17.0869 53.5657 17.0869H53.5656C53.0783 16.8873 52.6356 16.606 52.1936 16.3253C51.7353 16.0341 51.2779 15.7435 50.7724 15.5451C50.4359 15.4434 49.9984 15.4773 49.746 15.7653C48.9551 16.6803 48.4167 17.8154 48.2653 19.0184C48.0779 22.6903 48.0387 26.3747 47.9995 30.0501C47.993 30.6654 47.9864 31.2805 47.9792 31.8952C47.9455 37.6559 47.9792 43.4166 48.5681 49.1434C47.8746 49.2515 47.1868 49.3997 46.4981 49.548C46.0003 49.6552 45.5021 49.7626 45.0009 49.855C44.7227 48.5178 44.4339 47.1816 44.1449 45.8445C43.1228 41.116 42.0986 36.3773 41.5346 31.5563C41.4505 31.0311 40.8952 30.8278 40.424 30.7939C40.4177 30.7555 40.4114 30.7159 40.405 30.6754C40.3267 30.179 40.2269 29.5468 39.6668 29.4215C38.3953 29.2081 37.1134 29.3412 35.8375 29.4736C35.4924 29.5094 35.1478 29.5451 34.8039 29.574L34.8041 29.5738C38.0348 26.8969 41.2654 24.2199 44.4119 21.4243C44.6057 21.2439 44.8036 21.0705 45.0008 20.8976C45.489 20.4699 45.9732 20.0456 46.3807 19.5267C46.4575 19.4304 46.5343 19.334 46.6113 19.2376C48.3875 17.0111 50.1818 14.7619 51.6979 12.3259C52.0512 11.7328 52.4214 11.1398 52.8589 10.5977C52.8539 10.5113 52.8534 10.4249 52.8529 10.339C52.8517 10.1384 52.8505 9.94031 52.7916 9.7505C52.5327 9.4898 52.1804 9.40146 51.8545 9.31973C51.8415 9.31647 51.8286 9.31322 51.8157 9.30998C52.2195 8.81862 52.5729 8.19173 52.4887 7.514C52.2737 7.26927 52.0328 7.05068 51.7918 6.83209C51.599 6.65722 51.4062 6.48235 51.2267 6.29409C51.2183 6.25174 51.2057 6.18396 51.1931 6.11619C51.1805 6.04842 51.1678 5.98064 51.1594 5.93829C51.0131 5.80866 50.875 5.67084 50.7372 5.53337C50.4788 5.27554 50.2216 5.01896 49.9143 4.82004C49.6955 4.71838 49.4726 4.62519 49.2496 4.53201C49.0267 4.43882 48.8037 4.34563 48.585 4.24397C48.1065 3.98627 47.5765 4.01753 47.0485 4.04868C46.7781 4.06463 46.5082 4.08055 46.2461 4.0576C46.0515 4.01843 45.8585 3.96652 45.6651 3.91456C45.1895 3.78671 44.7125 3.6585 44.21 3.71873C43.4309 3.79257 42.6668 3.68039 41.9041 3.56842C41.2666 3.47483 40.6301 3.38138 39.9865 3.39681C34.316 3.10878 28.6454 3.53236 23.0084 4.19314C22.3522 4.23871 21.696 4.24002 21.0397 4.24133C20.232 4.24294 19.4244 4.24455 18.6167 4.32869C18.1343 4.33563 17.6546 4.39373 17.1755 4.45177C16.4849 4.53543 15.7953 4.61897 15.0999 4.54895C14.9053 4.5435 14.7089 4.52232 14.5125 4.50113C14.0976 4.45636 13.6824 4.41157 13.2826 4.51506C12.9017 4.84055 12.885 5.31758 12.8687 5.78745C12.8612 6.00243 12.8537 6.21591 12.8115 6.41269C12.4532 6.67275 12.0579 6.85389 11.6642 7.03426C11.2627 7.21819 10.863 7.40131 10.5062 7.66649C10.5062 9.05052 11.0073 10.3215 11.5081 11.5915C11.7062 12.0939 11.9042 12.5962 12.0711 13.1052C12.006 13.1342 11.9406 13.1629 11.8752 13.1916C11.366 13.4154 10.8526 13.641 10.4053 13.9863C10.3666 14.5321 10.5456 15.0481 10.7223 15.557C10.776 15.7116 10.8294 15.8655 10.8764 16.0195C10.9854 16.4126 11.2658 16.6774 11.5485 16.9444C11.7897 17.1723 12.0326 17.4017 12.1721 17.7138C13.4878 20.4816 14.4506 23.4017 15.4117 26.3169C15.692 27.1671 15.9722 28.0169 16.261 28.8624C14.2987 30.2717 12.2582 31.5684 10.2214 32.8626C9.76056 33.1554 9.29991 33.4481 8.8404 33.742C7.12167 34.9819 5.35949 36.1605 3.59581 37.3401C1.88887 38.4817 0.18054 39.6243 -1.49116 40.8243C-2.16423 41.2648 -2.23154 42.3322 -1.77722 42.9422C-0.666656 44.5687 0.376596 46.2291 1.3862 47.9065C1.51438 48.1388 1.71201 48.31 1.91075 48.4821C2.10333 48.6489 2.29695 48.8166 2.42945 49.0417C2.48689 49.1265 2.54085 49.2166 2.59509 49.3072C2.77917 49.6146 2.96651 49.9274 3.30443 50.0583C3.87654 50.2277 4.51595 50.2108 5.02075 49.8889C7.58376 48.4783 10.0413 46.8705 12.4932 45.2665C12.633 45.175 12.7727 45.0836 12.9125 44.9923C12.9413 44.9749 12.9696 44.957 12.9977 44.9392C13.134 44.853 13.2667 44.7691 13.4341 44.7551C13.645 44.7325 13.8548 44.7135 14.0637 44.6946C14.6379 44.6426 15.2054 44.5913 15.773 44.467C15.9624 44.4313 16.0935 44.2948 16.225 44.1581C16.2803 44.1005 16.3357 44.0428 16.3956 43.9926V43.9925C16.3956 43.6367 16.3956 43.281 16.4124 42.9252C16.9136 42.6124 17.409 42.2907 17.9046 41.9688C18.5902 41.5234 19.2764 41.0777 19.9796 40.6548C20.3151 41.8697 20.6279 43.0898 20.9405 44.309C21.6001 46.8816 22.2586 49.4499 23.1262 51.9559C23.2359 52.3031 23.3675 52.6429 23.4989 52.9822C23.6497 53.3715 23.8002 53.7602 23.9171 54.1585C24.8426 57.598 25.768 61.0374 27.2488 64.2736C27.9199 65.3248 28.776 66.2429 29.6181 67.1458C29.7261 67.2616 29.8339 67.3772 29.941 67.4928H30.7487C30.9785 67.2985 31.2158 67.1092 31.4541 66.9191C32.0884 66.4131 32.7299 65.9014 33.2559 65.2732C33.7943 65.934 34.5347 66.5779 35.4602 66.4762C35.9481 65.9679 36.4193 65.4427 36.84 64.8666C37.1933 64.7988 37.5972 64.6802 37.7318 64.3075C37.8327 63.3417 37.7654 62.3421 37.4457 61.4102C37.3506 61.1055 37.1888 60.8276 37.0266 60.5489C36.8732 60.2854 36.7194 60.0211 36.6212 59.7328C35.7294 57.293 34.989 54.8024 34.2823 52.2948C34.2168 52.0638 34.1921 51.8225 34.1674 51.582C34.1289 51.205 34.0905 50.8298 33.8953 50.4988C33.4999 49.7468 33.3339 48.9155 33.1681 48.0848C33.0798 47.6428 32.9916 47.2009 32.8689 46.7713C32.4611 45.6997 32.1473 44.6043 31.8338 43.5098C31.617 42.7527 31.4002 41.996 31.1525 41.2478C30.6338 39.6577 30.0835 38.0756 29.5341 36.4959C29.2815 35.7696 29.0291 35.0438 28.78 34.3181C29.7896 33.5726 30.7824 32.8101 31.7415 32.0308C31.7415 34.2842 31.9434 36.5376 32.3304 38.7572C33.0203 43.2302 33.8953 47.6693 34.7703 52.1084L34.7889 52.2021C35.0183 53.3577 35.2507 54.5281 35.5948 55.6665C35.8168 56.5488 36.42 57.2188 37.0159 57.8805C37.2782 58.1718 37.5391 58.4615 37.7654 58.7671C38.7245 60.1225 40.424 60.6308 42.0057 60.7494C45.0099 61.0069 47.9399 60.4426 50.8726 59.8777C52.5721 59.5504 54.2724 59.2229 55.9887 59.0551C56.5944 58.9704 57.217 58.784 57.6713 58.3435C57.759 57.8518 57.6323 57.3695 57.5063 56.8896C57.463 56.7245 57.4197 56.5598 57.3853 56.395C58.0415 56.5306 58.7146 56.6153 59.3877 56.6492C59.4165 56.6153 59.446 56.5817 59.4756 56.5482C59.6528 56.347 59.83 56.1457 59.8588 55.8698C60.2502 54.2033 59.9802 52.5293 59.7105 50.8578C59.5744 50.0142 59.4385 49.1712 59.3877 48.3301C59.8583 48.7696 60.2724 49.2704 60.6875 49.7724C61.0886 50.2574 61.4905 50.7436 61.9453 51.1765C62.4881 51.4053 62.9551 51.1192 63.4103 50.8404C63.5619 50.7476 63.7122 50.6555 63.8636 50.5835C64.2244 50.4114 64.5369 50.1692 64.8497 49.9269C65.0912 49.7397 65.3328 49.5525 65.5967 49.3975C65.6298 49.4118 65.6629 49.4263 65.6961 49.4407C66.6434 49.8525 67.653 50.2915 68.7096 50.1769C69.2144 49.7194 69.4332 49.0417 69.5341 48.3809C70.0726 43.6368 70.712 38.8927 71.8226 34.2503C73.0846 38.0625 74.5148 41.8239 76.1638 45.5006C77.1322 47.728 78.2272 49.8988 79.3226 52.0703C80.3019 54.0116 81.2814 55.9535 82.171 57.9369C82.5243 59.2245 82.9786 60.6139 84.106 61.4102C84.2737 61.6112 84.4186 61.8313 84.5642 62.0523C84.7254 62.2971 84.8875 62.5431 85.082 62.7657C85.5531 62.7826 86.0411 62.7318 86.4449 62.4268C87.0552 62.1509 87.6195 61.7821 88.1785 61.4167C88.3747 61.2885 88.5703 61.1607 88.767 61.0374C89.6673 60.9415 90.5609 60.9596 91.4562 60.9778C91.9833 60.9885 92.511 60.9992 93.041 60.9866L93.4448 60.58C93.6362 57.9651 93.5389 55.3391 93.4415 52.7109C93.419 52.1035 93.3965 51.496 93.3775 50.8885H94.1179C94.0842 51.4137 94.1347 51.9559 94.5049 52.3626C97.3654 52.3795 100.243 52.3964 103.103 52.3964C103.457 52.4473 103.861 52.1423 103.861 51.7695C103.911 50.6513 103.894 49.533 103.877 48.4148C103.861 47.2965 103.844 46.1783 103.894 45.0601C110.776 48.059 117.288 51.8543 123.379 56.2595C123.918 56.6661 124.507 57.005 125.18 57.0389C125.007 57.2716 124.818 57.4961 124.63 57.7211C124.215 58.2168 123.797 58.7149 123.531 59.3092C123.046 60.2702 123.099 61.3777 123.15 62.4273C123.153 62.5065 123.157 62.5855 123.161 62.664C123.464 63.0537 123.901 63.0706 124.355 63.0367C124.36 63.111 124.363 63.1869 124.366 63.2636C124.385 63.7294 124.405 64.2222 124.81 64.5277C125.449 64.5108 126.105 64.5108 126.745 64.5108C126.728 64.7311 126.728 64.9513 126.745 65.1716C126.939 65.5102 127.322 65.5985 127.687 65.6829C127.797 65.7082 127.906 65.7332 128.007 65.7646C127.99 66.0696 127.973 66.3745 127.973 66.6965C128.747 67.2725 129.757 67.3911 130.699 67.3573C130.841 67.3021 130.948 67.1895 131.052 67.0802C131.107 67.0217 131.162 66.964 131.221 66.9167C131.34 66.9104 131.463 66.9112 131.585 66.912C131.79 66.9133 131.997 66.9146 132.197 66.8828C132.903 66.4254 133.526 65.7985 133.98 65.0869C135.291 62.9423 136.615 60.8057 137.939 58.6691C141.698 52.6021 145.458 46.5347 148.905 40.2821C149.033 40.0561 149.16 39.8299 149.287 39.6036C150.083 38.1837 150.881 36.7615 151.766 35.4024C152.22 34.7756 152.641 34.0978 152.691 33.3184C152.742 32.251 152.792 31.1158 152.22 30.167C151.983 29.6686 151.611 29.2699 151.239 28.8709C150.979 28.5916 150.719 28.3122 150.504 27.9983C149.764 26.897 148.451 26.287 147.189 26.0668C144.978 26.0102 142.774 26.1196 140.572 26.2289C139.474 26.2834 138.376 26.3379 137.278 26.3717C136.318 26.4441 135.362 26.4778 134.406 26.5115C133.57 26.541 132.734 26.5706 131.894 26.6259C132.779 25.6788 133.665 24.7317 134.552 23.7843C137.995 20.1048 141.441 16.4209 144.867 12.7156C145.708 11.8515 145.103 10.4621 144.228 9.88604C143.965 9.72881 143.822 9.46648 143.68 9.20566C143.532 8.9325 143.384 8.661 143.1 8.51365C142.752 8.34285 142.475 8.07666 142.196 7.8087C141.949 7.57163 141.701 7.33317 141.401 7.15819C140.969 6.87351 140.61 6.50764 140.253 6.14325C139.845 5.7269 139.439 5.31249 138.927 5.02336C138.237 4.78615 137.48 5.14196 136.975 5.61637C133.358 9.05582 129.887 12.6478 126.417 16.2397C122.946 19.8317 119.476 23.4236 115.858 26.8631C115.675 27.0391 115.485 27.2143 115.293 27.3911C114.246 28.3549 113.146 29.3675 112.947 30.8278C112.938 30.8786 112.929 30.9302 112.92 30.9823C112.82 31.5377 112.71 32.1489 113.233 32.5052C113.227 32.652 113.209 32.7989 113.19 32.9457C113.153 33.2394 113.115 33.5331 113.182 33.8267C113.503 34.3716 113.919 34.8444 114.335 35.3166C114.617 35.6373 114.899 35.9578 115.151 36.3004C116.396 37.8423 118.567 38.2997 120.452 37.9947C123.217 37.5551 126.028 37.5067 128.827 37.4585C128.941 37.4565 129.054 37.4546 129.168 37.4526C130.384 37.4063 131.604 37.3776 132.825 37.3489C134.288 37.3145 135.752 37.28 137.211 37.2154C135.038 41.0157 132.761 44.7408 130.478 48.4757C130.339 48.7039 130.199 48.932 130.06 49.1603C130.009 49.1264 129.958 49.0932 129.907 49.06C129.702 48.9272 129.498 48.7943 129.336 48.6181C129.294 48.5393 129.261 48.4557 129.227 48.3722C129.152 48.1863 129.078 48.0012 128.915 47.8726C128.148 47.161 127.272 46.5958 126.395 46.0305C125.811 45.6537 125.227 45.2769 124.675 44.8567C118.904 40.9598 112.745 37.622 106.317 34.945C107.428 33.8267 108.521 32.6916 109.615 31.5564C110.709 30.4212 111.803 29.286 112.913 28.1677C113.511 27.551 114.11 26.9362 114.709 26.3216C118.174 22.7652 121.632 19.2159 124.759 15.3587C126.105 13.6983 127.367 11.9701 128.495 10.1402C128.949 9.49635 129.302 8.76779 129.218 7.95452C129.275 7.42596 128.889 7.07807 128.535 6.75852C128.469 6.69907 128.404 6.6406 128.343 6.58213C128.117 6.39501 127.961 6.1493 127.805 5.90502C127.637 5.64055 127.47 5.37775 127.216 5.19279C127.021 5.00677 126.776 4.909 126.53 4.81106C126.373 4.74841 126.216 4.6857 126.072 4.59978C125.912 4.51544 125.762 4.41028 125.612 4.30472C125.43 4.177 125.248 4.0487 125.045 3.95594C124.52 3.73139 124.035 3.42333 123.55 3.11441C123.01 2.77067 122.468 2.42586 121.865 2.19385ZM102.952 23.3389C108.858 17.6121 114.781 11.8345 119.846 5.32833C120.191 4.8937 120.46 4.40952 120.73 3.92286C120.934 3.55581 121.138 3.18735 121.377 2.83769C121.654 3.01682 121.941 3.17517 122.227 3.33309C122.672 3.57844 123.115 3.82275 123.514 4.14231C123.74 4.32251 124.005 4.43388 124.27 4.54509C124.578 4.67439 124.885 4.80348 125.129 5.0403C125.169 5.06657 125.208 5.09256 125.248 5.11863C125.516 5.29433 125.791 5.47378 125.937 5.76886C125.979 5.73497 126.046 5.68414 126.114 5.63331C126.181 5.58248 126.248 5.53165 126.29 5.49776C126.344 5.55118 126.398 5.60414 126.453 5.65732C126.727 5.92463 127.008 6.19776 127.149 6.56518C127.177 6.9927 126.955 7.37227 126.744 7.73415C126.704 7.80252 126.664 7.87027 126.627 7.93758C123.565 12.9866 119.476 17.3071 115.42 21.5768C114.562 22.4918 113.687 23.3897 112.795 24.2708L112.812 24.3047C112.533 24.5663 112.265 24.839 111.999 25.11C111.799 25.313 111.601 25.5151 111.399 25.711C110.928 26.2023 110.452 26.6937 109.977 27.185C109.502 27.6764 109.026 28.1677 108.555 28.6591C108.32 28.9132 108.084 29.1504 107.832 29.3707V29.4046C107.613 29.6418 107.377 29.879 107.159 30.0992C106.621 30.6796 106.077 31.2433 105.535 31.8062C105.127 32.2295 104.719 32.6522 104.315 33.0812C104.187 33.225 104.051 33.3625 103.913 33.5004C103.598 33.8176 103.281 34.1368 103.07 34.5383C104.128 34.8978 105.147 35.3448 106.165 35.7909C106.49 35.9335 106.815 36.0761 107.142 36.2157C107.167 36.2327 107.209 36.2538 107.251 36.275C107.293 36.2962 107.335 36.3174 107.36 36.3343C107.747 36.4529 108.118 36.6224 108.471 36.8257C109.699 37.3679 110.945 37.927 112.139 38.5539C112.358 38.6386 112.56 38.7402 112.762 38.8419L112.779 38.8927C112.829 38.9181 112.909 38.952 112.989 38.9859C113.069 39.0198 113.149 39.0537 113.199 39.0791C113.721 39.3333 114.226 39.6044 114.731 39.8924C114.923 39.9754 115.104 40.081 115.292 40.1907C115.335 40.2154 115.377 40.2403 115.42 40.2651C115.48 40.3012 115.574 40.3457 115.647 40.3807C115.677 40.395 115.704 40.4078 115.723 40.4176C116.133 40.6566 116.546 40.885 116.96 41.1133C117.718 41.5325 118.477 41.9512 119.206 42.4339C119.891 42.7854 120.544 43.2017 121.19 43.6138C121.354 43.7181 121.517 43.8222 121.68 43.9249L121.697 43.9587C122.771 44.5837 123.794 45.2854 124.815 45.9852C125.233 46.2719 125.651 46.5584 126.072 46.8391C126.149 46.89 126.227 46.9409 126.305 46.992C127.056 47.4843 127.824 47.9871 128.495 48.6012C128.357 48.8052 128.253 49.0272 128.149 49.2481C127.986 49.596 127.824 49.9414 127.536 50.2108C127.393 50.3067 127.351 50.4666 127.31 50.6249C127.263 50.8022 127.218 50.9774 127.031 51.0579C126.697 51.2823 126.444 51.5891 126.192 51.896C125.987 52.1453 125.782 52.3947 125.533 52.5998C125.427 52.7184 125.319 52.836 125.211 52.9537C124.671 53.542 124.131 54.1303 123.766 54.8363C123.124 54.5679 122.554 54.1525 121.989 53.7408C121.948 53.7106 121.906 53.6804 121.865 53.6502L121.848 53.5994C121.334 53.2558 120.821 52.9109 120.309 52.5662C118.976 51.6699 117.644 50.7746 116.295 49.9058H116.262C116.06 49.7872 115.858 49.6686 115.656 49.533C115.364 49.3707 115.079 49.1942 114.795 49.018C114.457 48.8083 114.119 48.599 113.771 48.4148C113.721 48.3809 113.654 48.3131 113.62 48.2793C112.711 47.8387 111.836 47.3135 110.978 46.7713C110.911 46.7544 110.759 46.7205 110.675 46.7035L110.793 46.7205C110.524 46.5849 110.255 46.4494 110.019 46.263L109.262 45.9072V45.8903C109.198 45.8496 109.129 45.8168 109.059 45.7839C108.925 45.7208 108.789 45.6569 108.69 45.5345C108.12 45.3296 107.575 45.0565 107.028 44.7827C106.671 44.6038 106.313 44.4245 105.947 44.2637C105.613 44.0988 105.271 43.9544 104.93 43.8105C104.397 43.585 103.866 43.3608 103.373 43.0608C103.043 43.0166 102.743 42.8787 102.443 42.7412C102.283 42.6678 102.123 42.5945 101.959 42.5355C101.942 42.7558 101.909 42.976 101.875 43.1963C101.892 43.7385 101.892 44.2976 101.824 44.8398C101.824 45.2125 101.83 45.5853 101.835 45.958C101.843 46.5171 101.851 47.0763 101.841 47.6354C101.843 47.7416 101.846 47.8481 101.848 47.9548C101.865 48.7159 101.881 49.4868 101.808 50.2447V50.2785C100.536 50.2379 99.2635 50.2338 97.9914 50.2297C97.1433 50.227 96.2952 50.2243 95.4472 50.2108C95.1275 50.1938 94.8246 50.1938 94.5049 50.1938C94.3429 50.1938 94.1852 50.1895 94.0296 50.1852C93.8782 50.181 93.7288 50.1769 93.5794 50.1769L93.6804 50.0752C93.5626 48.5503 93.5963 47.0255 93.6636 45.5175L93.6299 45.3481L93.8318 45.1956L93.6299 45.2295C93.6636 44.6195 93.6972 44.0096 93.714 43.3996C93.714 42.688 93.7309 41.9933 93.815 41.2987C93.7813 40.892 93.7982 40.5023 93.8486 40.0957V39.6721L93.8655 39.5027C93.8617 39.4233 93.8596 39.343 93.8576 39.2625C93.8503 38.9822 93.8429 38.6985 93.7645 38.4353C93.327 37.927 93.1083 37.2831 93.0073 36.6393C92.8895 35.7921 92.8895 34.8772 93.2766 34.1148C93.4448 33.7759 93.6636 33.4709 93.8991 33.1829C93.9277 33.1254 93.9585 33.0687 93.9893 33.012C94.1039 32.801 94.2188 32.5894 94.2188 32.3357C94.2295 31.5401 94.2876 30.7513 94.3459 29.9607C94.3794 29.5054 94.413 29.0495 94.4376 28.5913V28.1338C94.5049 27.3629 94.5638 26.5962 94.6227 25.8296C94.6816 25.0629 94.7405 24.2962 94.8078 23.5253C94.8078 23.5017 94.8114 23.4635 94.8153 23.4226C94.8198 23.3753 94.8246 23.3244 94.8246 23.2881C94.976 21.6615 95.178 20.0519 95.4977 18.4423C95.6406 17.7947 95.7029 17.1375 95.7652 16.481C95.8202 15.9008 95.8751 15.321 95.9856 14.7487C96.0361 14.7233 96.1118 14.6767 96.1876 14.6301C96.2633 14.5835 96.339 14.5369 96.3895 14.5115C96.4622 14.5408 96.5727 14.6081 96.6557 14.6587C96.6687 14.6666 96.681 14.6741 96.6924 14.681C96.9765 14.5756 97.2872 14.5772 97.6009 14.5789C97.6402 14.5791 97.6795 14.5793 97.7188 14.5793C97.7608 14.6132 97.8155 14.664 97.8702 14.7148C97.9249 14.7657 97.9796 14.8165 98.0217 14.8504C98.1446 14.7637 98.2765 14.6861 98.4043 14.611C98.4514 14.5832 98.498 14.5559 98.5433 14.5285L98.8462 14.8843C98.8776 14.8684 98.9173 14.8493 98.9595 14.8289C99.0527 14.7839 99.1584 14.7329 99.2164 14.6979C99.3099 14.715 99.4141 14.7538 99.5207 14.7934C99.836 14.9106 100.172 15.0353 100.31 14.6301C100.344 14.664 100.39 14.7148 100.436 14.7657C100.483 14.8165 100.529 14.8673 100.562 14.9012C100.966 14.7996 101.387 14.7996 101.757 15.0198C102.127 14.9012 102.514 14.7996 102.918 14.8843C103.041 16.35 102.995 17.8204 102.948 19.2906C102.906 20.6414 102.863 21.9921 102.952 23.3389ZM26.8171 4.69118C28.0847 4.56422 29.3578 4.43671 30.6309 4.4134C34.114 4.10842 37.6308 4.04065 41.1476 4.43035C41.6495 4.44158 42.1439 4.51235 42.6408 4.58347C42.8936 4.61966 43.147 4.65593 43.4023 4.68449C43.667 4.69368 43.9365 4.67297 44.2084 4.65209C44.4378 4.63447 44.6689 4.61672 44.8999 4.61672C44.9167 4.71838 44.9672 4.9217 45.0009 5.02336C45.3542 4.95558 45.7244 4.93864 46.0778 4.97253C46.3394 4.99389 46.6011 4.97635 46.8615 4.95889C47.2207 4.93481 47.5775 4.91089 47.9287 4.98947C48.871 5.31139 49.7628 5.80274 50.4864 6.49741C50.4303 6.58777 50.3779 6.68002 50.3256 6.77227C50.2209 6.95676 50.1162 7.14125 49.9816 7.31068C49.8903 7.40257 49.7854 7.48239 49.6804 7.56224C49.4562 7.73269 49.2319 7.90328 49.1402 8.19173C49.5777 8.66614 50.2171 8.83557 50.8566 8.86945C49.0056 11.7159 47.0874 14.5115 44.9336 17.1208C44.0266 18.3068 42.8888 19.2604 41.751 20.2139C41.2633 20.6226 40.7757 21.0313 40.3062 21.4582C38.8592 22.729 37.3952 23.9658 35.9145 25.2027L35.9145 25.2027C35.5611 25.5077 35.2078 25.8126 34.8208 26.0668L34.8039 26.1684L34.7366 26.1515C33.9776 26.8463 33.1734 27.4841 32.3702 28.1209C32.1941 28.2606 32.018 28.4003 31.8424 28.5405L31.8423 28.5406C31.5899 28.7439 31.3376 28.9471 31.0852 29.1335V29.1674L31.0348 29.1504C30.6575 29.5157 30.2427 29.8305 29.8228 30.1493C29.7557 30.2002 29.6885 30.2512 29.6213 30.3026L29.4531 30.455C29.2775 30.5774 29.102 30.7107 28.9352 30.8374C28.8941 30.8685 28.8535 30.8993 28.8136 30.9294C28.1069 31.5055 27.3666 32.0477 26.6262 32.5899C26.6548 32.9505 26.7688 33.2865 26.8852 33.6294C26.9055 33.6893 26.9259 33.7493 26.9459 33.8098L26.9627 33.7759C27.1142 34.3689 27.3497 34.945 27.5853 35.521C27.6021 35.5945 27.6208 35.6679 27.6395 35.7413C27.6769 35.8881 27.7143 36.035 27.7367 36.1818C28.091 36.8749 28.3174 37.6171 28.5442 38.3603C28.6944 38.8526 28.8447 39.3453 29.0324 39.8246C29.1578 40.2389 29.2907 40.6501 29.4235 41.061C29.7361 42.0283 30.0482 42.9938 30.2607 43.9926L30.328 44.0773C30.3479 44.1572 30.3703 44.2343 30.3922 44.31C30.4262 44.427 30.459 44.5402 30.4795 44.6534C30.8411 45.4562 31.0261 46.3157 31.211 47.1744C31.4046 48.0736 31.598 48.9721 31.9939 49.8041C32.2968 51.0749 32.5996 52.3456 32.9362 53.6163C33.0139 53.8549 33.0924 54.0935 33.1711 54.3324C33.4332 55.128 33.696 55.9259 33.9289 56.7339L33.9626 56.7508V56.7847C34.1421 57.1773 34.2783 57.5859 34.414 57.9929C34.6472 58.6925 34.8788 59.3871 35.3256 59.987C35.6789 60.8341 35.8304 61.7321 35.7799 62.647C35.3424 62.664 34.9217 62.6979 34.5179 62.8504C34.5515 62.9012 34.5978 62.9732 34.644 63.0451C34.6903 63.1172 34.7366 63.1892 34.7703 63.2401C34.6028 63.4555 34.4251 63.6554 34.2485 63.8541C34.1056 64.0148 33.9634 64.1747 33.828 64.3414C33.7785 64.3053 33.7277 64.2691 33.6762 64.2324C33.2196 63.9069 32.7106 63.5441 32.6501 62.9351C32.5919 62.9414 32.5333 62.9471 32.4743 62.9529C32.0559 62.994 31.6243 63.0363 31.2703 63.2739C31.0057 63.9069 30.4591 64.2997 29.9149 64.6908C29.6287 64.8964 29.3432 65.1016 29.0997 65.341C29.0516 65.2893 29.0031 65.2375 28.9543 65.1856C28.5086 64.7106 28.0501 64.2221 27.8377 63.5959C26.8113 61.2069 26.0372 58.6993 25.3305 56.1917C25.3021 56.1155 25.2791 56.0339 25.2553 55.95C25.2369 55.8847 25.218 55.8179 25.1959 55.7512C24.994 55.0735 24.8089 54.3788 24.6238 53.6841C24.5037 53.2502 24.3303 52.8343 24.1569 52.4187C23.9174 51.8443 23.6782 51.2706 23.5806 50.6513L23.5301 50.6852C23.4418 50.3594 23.3433 50.0337 23.2446 49.7073C23.0609 49.0998 22.8764 48.4898 22.756 47.8726C22.6214 47.4999 22.5036 47.1102 22.4363 46.7035C22.336 46.3378 22.2315 45.9733 22.1272 45.6095C21.8644 44.6926 21.6027 43.7793 21.4099 42.8574L21.3763 42.8913C21.3342 42.7303 21.2921 42.5651 21.25 42.3999C21.208 42.2347 21.1659 42.0696 21.1239 41.9086C21.0229 41.5528 20.9219 41.197 20.8378 40.8243C20.8042 40.6972 20.7705 40.5659 20.7368 40.4346C20.7032 40.3033 20.6695 40.1719 20.6359 40.0449C20.521 39.6784 20.4224 39.312 20.3247 38.9486C20.2507 38.6736 20.1772 38.4004 20.0974 38.1303C20.0653 38.0549 20.0196 37.9247 19.9776 37.805C19.9536 37.7365 19.9307 37.6714 19.9123 37.622C19.8619 37.6051 19.7946 37.5712 19.7609 37.5542C19.6431 37.6559 19.3907 37.8423 19.2561 37.927C19.2067 37.9643 19.1119 38.0199 19.0317 38.0669C19.0027 38.084 18.9756 38.0999 18.9532 38.1134L18.97 38.1303C18.7259 38.2765 18.4921 38.433 18.2596 38.5888C17.8991 38.8303 17.5415 39.0698 17.1528 39.2655L17.1359 39.2994C17.1159 39.3128 17.0957 39.3265 17.0753 39.3402C16.8906 39.4647 16.6936 39.5975 16.4965 39.6891L16.4965 39.6891C16.2946 39.8416 16.0927 39.994 15.8739 40.1296C15.4528 40.3699 15.055 40.6338 14.6514 40.9016C14.5712 40.9548 14.4909 41.0081 14.41 41.0615L14.3427 41.1631V42.3153C13.7706 42.4169 13.1985 42.5016 12.6096 42.5355C12.5778 42.5355 12.5273 42.5393 12.4739 42.5433C12.4143 42.5477 12.3511 42.5525 12.3067 42.5525C11.6611 42.5229 11.1563 42.8927 10.6583 43.2575C10.5852 43.311 10.5122 43.3645 10.4389 43.4166C10.3805 43.4509 10.3207 43.4866 10.26 43.5229C10.1105 43.6121 9.95501 43.705 9.79952 43.7893V43.8401C9.71766 43.8909 9.63344 43.9416 9.54774 43.9932C9.40445 44.0795 9.25704 44.1683 9.10963 44.2637C8.94921 44.3631 8.79106 44.4694 8.63268 44.5757C8.35912 44.7595 8.08489 44.9437 7.79715 45.0939C7.40982 45.3767 7.00019 45.6258 6.58752 45.8767C6.2831 46.0619 5.97701 46.248 5.67699 46.4494C5.61903 46.4808 5.56106 46.5194 5.50185 46.5588C5.33759 46.6681 5.1637 46.7838 4.95345 46.7713C4.93662 46.8052 4.91559 46.8518 4.89455 46.8984C4.87352 46.945 4.85249 46.9916 4.83566 47.0255L4.70105 46.9916C4.36451 47.2457 3.9775 47.449 3.59049 47.6354L3.45587 47.6185L3.52318 47.8218L3.4727 47.7879L3.20347 47.8896C2.91742 47.9743 2.61454 48.059 2.34531 47.9404C2.2107 47.754 2.10974 47.5676 2.00878 47.3643C1.88148 47.2842 1.82942 47.1435 1.78144 47.0138C1.77869 47.0063 1.77595 46.9989 1.77321 46.9916C1.70589 46.8899 1.63858 46.7925 1.57126 46.695C1.50397 46.5976 1.43667 46.5002 1.36937 46.3986C1.3273 46.3223 1.28103 46.2461 1.23475 46.1698C1.18848 46.0936 1.14221 46.0173 1.10014 45.9411L1.11697 45.9072C1.03533 45.7788 0.949057 45.6534 0.863299 45.5289C0.666235 45.2426 0.471911 44.9604 0.342943 44.6534L-0.818096 42.9252L-0.85175 42.9422C-0.885403 42.8829 -0.919056 42.8193 -0.95271 42.7558C-0.986363 42.6922 -1.02002 42.6287 -1.05367 42.5694C-1.50799 42.2475 -1.17146 41.7392 -0.818096 41.5189C-0.708602 41.3949 -0.565708 41.3269 -0.425638 41.2603C-0.393505 41.245 -0.361521 41.2298 -0.330123 41.214C-0.307294 41.1938 -0.284465 41.1732 -0.261554 41.1526C-0.149368 41.0513 -0.0352142 40.9483 0.0905428 40.892L0.10737 40.8243C0.549184 40.5662 0.967798 40.2755 1.38758 39.984C1.76717 39.7203 2.14772 39.456 2.54723 39.2147V39.1808C2.60613 39.1469 2.66502 39.1088 2.72391 39.0706C2.78281 39.0325 2.8417 38.9944 2.90059 38.9605C3.30851 38.6854 3.71725 38.4103 4.12628 38.1351C5.55635 37.1727 6.9898 36.208 8.40291 35.233C9.31155 34.5621 10.2747 33.9643 11.2379 33.3666C11.88 32.9681 12.5221 32.5695 13.148 32.1494C13.6385 31.8302 14.1223 31.5008 14.6053 31.172C15.1994 30.7675 15.7924 30.3638 16.3956 29.9806C16.4829 29.8549 16.6166 29.7759 16.7416 29.7019C16.7852 29.6762 16.8276 29.6511 16.8667 29.6248C17.1899 29.4892 17.1467 29.1692 17.1079 28.8818C17.0982 28.8101 17.0888 28.7403 17.0855 28.676C17.0013 28.5066 16.9508 28.3371 16.9004 28.1677C16.6674 27.4836 16.442 26.797 16.2163 26.1098C15.8551 25.01 15.4935 23.9086 15.0999 22.8137L14.6961 21.6446C14.6708 21.5768 14.6456 21.5048 14.6204 21.4328C14.5951 21.3608 14.5699 21.2888 14.5446 21.221C14.0398 19.8995 13.5182 18.5779 12.8956 17.2902C12.7556 17.0082 12.5256 16.7914 12.2956 16.5745C12.028 16.3222 11.7603 16.0698 11.6336 15.7145C11.6143 15.6505 11.5954 15.586 11.5764 15.5213C11.48 15.1921 11.3817 14.8569 11.213 14.5454C11.3747 14.4866 11.5353 14.4181 11.6966 14.3493C12.1393 14.1605 12.5874 13.9693 13.0807 13.9693C12.91 12.9106 12.5232 11.9147 12.1359 10.9171C11.7979 10.0468 11.4594 9.17523 11.2634 8.2595C11.5663 8.12396 11.8692 8.0223 12.2057 7.98841C12.4024 7.7508 12.6622 7.61154 12.9215 7.47259C13.1059 7.37375 13.29 7.27506 13.4509 7.14125C13.6781 6.72191 13.6781 6.24538 13.6781 5.78315C13.6781 5.62907 13.6781 5.47659 13.6865 5.32833C14.0519 5.33801 14.4172 5.36983 14.7826 5.40164C15.0567 5.4255 15.3307 5.44936 15.6047 5.46388C16.1482 5.49428 16.6796 5.41559 17.2133 5.33655C17.572 5.28343 17.9318 5.23016 18.297 5.20973C19.143 5.15294 19.9913 5.1408 20.8384 5.12868C22.2661 5.10824 23.6904 5.08786 25.0949 4.85392C25.6675 4.80632 26.2418 4.74881 26.8171 4.69118ZM127.063 16.7938C130.433 13.3079 133.803 9.82183 137.295 6.46352C137.63 6.12587 138.049 5.9228 138.502 5.70344L138.507 5.70108C138.684 5.84397 138.836 6.02033 138.987 6.19488C139.051 6.2687 139.115 6.34219 139.18 6.41269C139.24 6.45635 139.302 6.49734 139.365 6.53818C139.617 6.70338 139.866 6.86604 139.92 7.19208C140.118 7.32929 140.316 7.45731 140.521 7.58967C140.595 7.6371 140.669 7.68509 140.745 7.73426C140.758 7.81726 140.806 7.95673 140.841 8.06046C140.849 8.08378 140.856 8.10529 140.862 8.12395C140.917 8.11613 140.993 8.10831 141.068 8.1005C141.157 8.09137 141.245 8.08225 141.3 8.07313C141.424 8.51846 141.803 8.73438 142.182 8.94977C142.524 9.14411 142.864 9.33803 143.016 9.69967C143.043 9.76487 143.077 9.82832 143.111 9.89227C143.184 10.0277 143.257 10.1654 143.269 10.3266C143.134 10.5977 142.932 10.8349 142.73 11.0551C140.976 12.9302 139.225 14.808 137.475 16.6853C134.875 19.4728 132.277 22.2591 129.673 25.0332C129.471 25.2422 129.272 25.4549 129.074 25.6677C128.678 26.0931 128.282 26.5186 127.855 26.9139V26.9309C127.788 27.0118 127.679 27.1679 127.594 27.288C127.573 27.3188 127.553 27.3472 127.536 27.3714L127.704 27.49C128.813 27.5295 129.922 27.4883 131.031 27.4472C131.824 27.4177 132.616 27.3883 133.408 27.3883C133.576 27.3799 133.749 27.3714 133.921 27.3629C134.094 27.3544 134.266 27.346 134.435 27.3375C134.588 27.3289 134.746 27.3247 134.906 27.3204C135.061 27.3162 135.219 27.312 135.377 27.3036C136.01 27.2482 136.648 27.223 137.285 27.1978C137.817 27.1768 138.349 27.1558 138.877 27.1172C139.321 27.0784 139.77 27.0618 140.222 27.0451C140.558 27.0327 140.895 27.0203 141.233 26.9986C141.709 26.9902 142.189 26.9693 142.671 26.9483C143.16 26.9269 143.652 26.9055 144.144 26.897C144.364 26.8884 144.589 26.8842 144.817 26.8799C145.04 26.8757 145.265 26.8715 145.49 26.8631C145.539 26.8616 145.588 26.86 145.638 26.8583C146.146 26.8415 146.665 26.8243 147.156 26.9478C147.711 27.0325 148.232 27.2697 148.737 27.5408C149.393 27.9983 150.016 28.5913 150.268 29.3876C150.309 29.5425 150.381 29.684 150.452 29.8239C150.56 30.0358 150.666 30.2439 150.655 30.4889C150.656 30.5342 150.658 30.5797 150.659 30.6255C150.676 31.3513 150.696 32.1378 150.268 32.7593C149.354 34.1328 148.528 35.5692 147.702 37.0035C147.571 37.2324 147.439 37.4613 147.307 37.6898C146.831 38.5989 146.329 39.4903 145.825 40.3832C145.635 40.7216 145.444 41.0603 145.254 41.4003L145.22 41.4173C145.001 41.8583 144.747 42.2921 144.494 42.7235C144.358 42.955 144.222 43.1858 144.093 43.4166C143.857 43.8401 143.622 44.2637 143.353 44.6534C142.738 45.7017 142.111 46.7436 141.483 47.787C141.096 48.4299 140.709 49.0734 140.324 49.7194L139.163 51.6001C138.786 52.2095 138.414 52.8207 138.042 53.4314C137.236 54.7561 136.431 56.0788 135.579 57.3777C135.562 57.4117 135.537 57.4583 135.511 57.505C135.486 57.5515 135.461 57.598 135.444 57.6319C135.015 58.3166 134.593 59.0081 134.17 59.7006C133.432 60.9101 132.692 62.1227 131.911 63.3078C131.698 63.7891 131.287 64.1228 130.883 64.4502C130.775 64.5377 130.667 64.6248 130.564 64.7141C130.295 64.5786 130.026 64.6294 129.774 64.7141L129.841 64.6125C129.757 64.5701 129.673 64.532 129.588 64.4939C129.504 64.4557 129.42 64.4176 129.336 64.3753C129.269 64.6633 129.168 64.9513 129.05 65.2224C128.528 65.0699 128.007 64.9344 127.468 64.8497C127.479 64.6164 127.526 64.3782 127.573 64.1391C127.676 63.6142 127.779 63.0852 127.502 62.5962C127.255 62.5807 127.026 62.4941 126.799 62.408C126.53 62.3061 126.263 62.2051 125.971 62.2235C125.626 62.2319 125.281 62.2701 124.936 62.3082C124.591 62.3463 124.246 62.3844 123.901 62.3929C123.8 61.5288 123.884 60.6308 124.238 59.8175C124.431 59.3522 124.748 58.9697 125.066 58.5864C125.246 58.3696 125.426 58.1525 125.584 57.9199C126.066 57.2271 126.493 56.5005 126.92 55.7737C127.401 54.9542 127.882 54.1344 128.444 53.3622C128.988 52.4812 129.534 51.6022 130.079 50.7236C131.779 47.9859 133.477 45.2511 135.108 42.4677L135.141 42.5016C135.167 42.4593 135.209 42.4 135.251 42.3407C135.293 42.2814 135.335 42.2221 135.36 42.1797L135.31 42.0442L135.41 41.8917H135.562C135.596 41.7053 135.663 41.5189 135.781 41.3664C136.044 40.9354 136.296 40.4975 136.55 40.0589C136.864 39.515 137.178 38.9699 137.514 38.4353L137.564 38.4183C137.615 38.2997 137.749 38.0625 137.817 37.9439C137.825 37.9355 137.834 37.9185 137.842 37.9016C137.85 37.8846 137.859 37.8677 137.867 37.8592C137.985 37.5542 138.153 37.2662 138.355 37.012C138.485 36.6205 138.704 36.2792 138.921 35.9417C138.986 35.8411 139.051 35.7408 139.112 35.6396L139.096 35.5888C139.154 35.4786 139.209 35.3685 139.264 35.2583C139.319 35.1482 139.373 35.0381 139.432 34.928L139.096 34.8264C138.759 34.8433 138.439 34.8603 138.12 34.8772L138.027 34.8857C137.69 34.9166 137.366 34.9464 137.043 34.9619C136.454 34.9789 135.869 35.0043 135.284 35.0297C134.7 35.0551 134.115 35.0805 133.526 35.0975C133.492 35.0805 133.438 35.0593 133.383 35.0382C133.328 35.017 133.273 34.9958 133.24 34.9789L133.391 35.0805C131.843 35.1822 130.278 35.1822 128.73 35.1822H128.31C127.848 35.2548 127.361 35.2527 126.882 35.2506C126.802 35.2503 126.723 35.25 126.644 35.25C126.509 35.2669 126.375 35.2838 126.24 35.2838C125.916 35.2838 125.593 35.2964 125.269 35.3089C124.751 35.329 124.234 35.349 123.716 35.3177C123.251 35.404 122.786 35.4185 122.321 35.4331C122.146 35.4386 121.972 35.444 121.798 35.4533C121.123 35.4767 120.464 35.573 119.805 35.6695C119.511 35.7125 119.216 35.7555 118.92 35.7921L118.895 35.7938C118.383 35.8271 117.886 35.8594 117.389 35.826C116.783 35.7413 116.161 35.5888 115.69 35.1822C115.459 35.1334 115.308 34.9616 115.159 34.7933C115.101 34.7279 115.044 34.663 114.983 34.6061C114.569 34.5644 114.358 34.1461 114.175 33.782C114.135 33.7024 114.097 33.6255 114.057 33.5556C113.852 33.1825 114.087 32.9044 114.323 32.6245C114.473 32.4469 114.624 32.2685 114.663 32.0646C114.439 31.7994 114.102 31.7625 113.772 31.7265C113.681 31.7165 113.59 31.7066 113.502 31.6919C113.536 31.5563 113.603 31.4377 113.67 31.3191C113.738 30.777 113.94 30.2687 114.243 29.8281C114.583 29.1668 115.152 28.6648 115.715 28.1686C115.931 27.9783 116.145 27.7889 116.346 27.5916L116.598 27.3375H116.581C116.75 27.1765 116.918 27.0198 117.086 26.8631C117.255 26.7064 117.423 26.5496 117.591 26.3887C120.813 23.2584 123.938 20.0261 127.063 16.7938ZM68.7769 9.90299C68.8611 9.02194 68.8274 8.1409 68.7601 7.25985C68.936 7.25985 69.114 7.25251 69.2928 7.24513C69.8323 7.22286 70.3789 7.20029 70.8971 7.37846C71.5365 7.6326 72.1927 7.93758 72.6807 8.42893C73.8081 9.54718 74.7841 10.8857 75.2384 12.4275C75.789 14.3383 76.2419 16.2722 76.6979 18.2191C77.0223 19.6041 77.3482 20.9956 77.7119 22.3901C78.3177 24.7621 78.9402 27.1172 79.6974 29.4215C79.7143 29.4893 79.7269 29.5571 79.7395 29.6248C79.7521 29.6926 79.7647 29.7604 79.7816 29.8281C80.0676 30.5906 80.32 31.37 80.5219 32.1494C80.5656 32.2624 80.6099 32.3755 80.6542 32.4887C80.8488 32.9861 81.0442 33.4855 81.195 33.9962L81.2623 34.03L81.2118 34.047C81.2791 34.2503 81.3633 34.4706 81.4474 34.6908L81.6493 35.1991C81.6914 35.3431 81.7377 35.4829 81.7839 35.6226C81.8302 35.7624 81.8765 35.9022 81.9186 36.0463H81.9859C81.9859 36.0802 81.9901 36.1352 81.9943 36.1903C81.9985 36.2454 82.0027 36.3004 82.0027 36.3343C82.0202 36.3679 82.0378 36.4016 82.0555 36.4352C82.2247 36.7578 82.3961 37.0844 82.457 37.4526C82.4991 37.4695 82.5664 37.4907 82.6337 37.5119C82.701 37.533 82.7683 37.5542 82.8104 37.5712C82.8356 37.0883 82.8356 36.6054 82.8356 36.1226C82.8356 35.6397 82.8356 35.1568 82.8608 34.6739C82.8104 34.4536 82.7767 34.2334 82.8608 34.0131C82.8669 33.7342 82.8427 33.4487 82.8185 33.1622C82.775 32.6482 82.7312 32.1306 82.8608 31.6411L82.9618 31.5902L82.7599 31.6411C82.7905 31.518 82.821 31.2692 82.839 31.123L82.844 31.0819C82.7599 30.8109 82.7599 30.5398 82.7767 30.2687C82.7556 28.7139 82.7527 27.1609 82.7498 25.6089C82.7436 22.2224 82.7373 18.8414 82.5411 15.4603C82.5411 15.0349 82.4783 14.5993 82.4151 14.162C82.2797 13.2235 82.1432 12.2778 82.6253 11.4109L82.8074 11.4407C83.9904 11.634 85.1596 11.825 86.344 11.9701C87.2305 12.0062 88.1085 11.8707 88.9901 11.7345C89.3467 11.6795 89.704 11.6243 90.0627 11.5804C90.3062 11.4823 90.3774 11.7471 90.4275 11.9332L90.4328 11.9531C90.5753 12.4608 90.6107 12.9901 90.646 13.5175C90.6649 13.7998 90.6837 14.0815 90.7189 14.359C91.0415 19.0205 91.0085 23.6975 90.9755 28.3602C90.9741 28.5615 90.9727 28.7628 90.9713 28.964C90.9881 29.0318 91.0218 29.1504 91.0386 29.2012C91.0302 29.2436 91.0218 29.3071 91.0134 29.3707C91.0049 29.4342 90.9965 29.4978 90.9881 29.5401V29.8451L91.0218 30.0992C91.005 30.3873 91.005 30.6753 91.005 30.9633L91.0554 31.8274C91.0554 32.6407 91.0554 33.4709 91.0723 34.3011C91.0723 34.3543 91.0676 34.4306 91.0633 34.5034C91.0593 34.5699 91.0554 34.6335 91.0554 34.6739C91.0554 35.1059 91.0596 35.538 91.0638 35.97C91.068 36.4021 91.0723 36.8341 91.0723 37.2662C91.0892 37.9812 91.1098 38.6943 91.1305 39.4067C91.1715 40.8216 91.2125 42.2339 91.2237 43.6538C91.2742 44.9245 91.3078 46.2122 91.3247 47.4829C91.3807 48.1268 91.392 48.7706 91.4032 49.4145C91.4088 49.7364 91.4144 50.0583 91.4256 50.3802C91.4593 51.4646 91.4929 52.5489 91.5098 53.6333L91.3583 53.413C91.4929 53.6333 91.5434 53.8705 91.5434 54.1246C91.3415 54.2941 91.2237 54.4974 91.1564 54.7346C91.2132 54.7003 91.2929 54.6351 91.3595 54.5808C91.3916 54.5546 91.4206 54.5309 91.4424 54.5143C91.7003 55.6488 91.5969 56.8273 91.4943 57.9966C91.4697 58.2768 91.4451 58.5564 91.4256 58.8348C89.9112 58.784 88.3968 58.784 86.8992 58.9026C86.6805 59.1398 86.4618 59.3431 86.2094 59.5465C85.5868 59.9023 84.9473 60.2411 84.2911 60.563C84.2154 60.4529 84.1439 60.3385 84.0724 60.2242C84.0009 60.1098 83.9293 59.9954 83.8536 59.8853C83.4655 59.2932 83.2665 58.6184 83.0669 57.9417C82.9809 57.6503 82.8949 57.3584 82.7935 57.0728C82.3633 56.2108 81.9293 55.35 81.4953 54.4892C80.317 52.152 79.1384 49.8141 78.0316 47.449C77.7193 46.9344 77.4788 46.3716 77.2395 45.8114C77.1952 45.7076 77.1508 45.6039 77.1061 45.5006C76.9716 45.2127 76.8538 44.9078 76.7361 44.6029L76.7359 44.6026C76.5004 44.4332 76.4499 44.2129 76.5845 43.9757H76.4499C76.2558 43.595 76.0989 43.2019 75.9415 42.8076C75.8397 42.5526 75.7377 42.2971 75.6254 42.0442H75.5244C75.5329 42.0357 75.5455 42.0187 75.5581 42.0018C75.5707 41.9848 75.5833 41.9679 75.5917 41.9594C75.5469 41.8465 75.5001 41.7354 75.4534 41.6244C75.3599 41.4022 75.2664 41.1801 75.1879 40.9429C75.164 40.8868 75.1383 40.8307 75.1124 40.7744C75.0289 40.5926 74.9444 40.4084 74.9187 40.2143C74.6706 39.6621 74.463 39.0894 74.2566 38.5201C74.1971 38.3558 74.1376 38.1918 74.0773 38.0286H74.1951L73.9595 38.0117L74.0605 37.91C73.9091 37.6051 73.7913 37.3001 73.724 36.9782L73.623 36.8596H73.5894C73.5978 36.8087 73.602 36.7325 73.6062 36.6562C73.6104 36.58 73.6146 36.5038 73.623 36.4529C73.6062 36.4275 73.5725 36.3851 73.5389 36.3428C73.5052 36.3004 73.4716 36.2581 73.4548 36.2327C73.344 35.9724 73.2585 35.7019 73.1733 35.4323C73.1033 35.2107 73.0335 34.9897 72.95 34.7755C72.8682 34.5562 72.7976 34.3257 72.729 34.102C72.7128 34.0493 72.6968 33.997 72.6807 33.9453H72.6302C72.6134 33.8691 72.5924 33.7928 72.5714 33.7166C72.5503 33.6404 72.5293 33.5641 72.5125 33.4879C72.4452 33.2845 72.3778 33.0643 72.3105 32.844C72.2164 32.5191 72.1116 32.2051 72.0046 31.8845C71.9776 31.8039 71.9506 31.7228 71.9235 31.6411C71.8796 31.4991 71.8354 31.3568 71.791 31.2142C71.5126 30.3186 71.2303 29.4104 70.9981 28.4896C70.9644 28.4727 70.9139 28.4388 70.8634 28.4049C70.813 28.371 70.7625 28.3371 70.7288 28.3202L70.6952 28.4557L70.611 28.4388C70.3923 29.7725 70.1297 31.0974 69.8676 32.4198C69.7667 32.9286 69.666 33.4369 69.5678 33.9453C69.551 34.03 69.5299 34.1148 69.5089 34.1995C69.4879 34.2842 69.4668 34.3689 69.45 34.4536C69.4332 34.5722 69.4121 34.6908 69.3911 34.8094C69.3701 34.928 69.349 35.0466 69.3322 35.1652H69.2986C69.2317 35.5882 69.1433 36.0057 69.0546 36.4239C68.987 36.7428 68.9193 37.0622 68.8611 37.3848C68.8442 37.4865 68.7938 37.6728 68.7601 37.7575C68.7441 38.1607 68.6824 38.5485 68.6184 38.9501L68.6087 39.0113C68.5414 39.367 68.4909 39.7227 68.4405 40.0783L68.4404 40.0788C68.3749 40.4809 68.3222 40.8881 68.2693 41.2965C68.1863 41.9378 68.1029 42.5818 67.9693 43.2132V43.281C67.8809 43.8038 67.8342 44.3357 67.7876 44.8672C67.6921 45.9548 67.5969 47.0405 67.1448 48.042C66.1688 47.9065 65.2602 47.5168 64.3684 47.0932C63.8328 47.3815 63.3276 47.7258 62.8223 48.0703C62.4068 48.3536 61.9911 48.6369 61.5583 48.8892C61.491 48.9316 61.4237 48.9697 61.3564 49.0078C61.2891 49.0459 61.2218 49.084 61.1545 49.1264C61.0967 49.0391 61.019 48.9558 60.9406 48.8717C60.7907 48.7109 60.6381 48.5472 60.616 48.347C60.3468 48.3131 60.229 48.1606 60.3131 47.8896L60.0607 47.8218C60.2458 47.6185 60.4982 47.4829 60.7675 47.4321C60.8011 47.2457 61.0872 47.161 61.2554 47.161L61.6088 46.7544L61.5415 46.6188C61.3732 46.6019 61.2049 46.568 61.0367 46.5172C60.5655 46.4155 60.0776 46.3647 59.6064 46.3647C59.6401 46.08 59.6683 45.7954 59.6966 45.5107C59.739 45.0838 59.7814 44.6568 59.842 44.2298C59.9033 43.8147 59.9535 43.3996 60.0036 42.9851C60.1049 42.1477 60.2059 41.3127 60.3973 40.4854C60.4141 39.8246 60.5655 39.1808 60.717 38.5539C60.6952 38.2688 60.7509 37.9838 60.8066 37.6987C60.837 37.5433 60.8674 37.3878 60.8852 37.2323C61.0606 36.1581 61.2487 35.0967 61.4384 34.0259C61.4671 33.8637 61.4959 33.7014 61.5247 33.5387C61.7182 32.4373 61.9159 31.3359 62.1136 30.2344C62.3113 29.1332 62.509 28.0321 62.7025 26.9309C62.7102 26.8784 62.7179 26.8262 62.7256 26.7742C62.785 26.3722 62.8429 25.9804 62.8876 25.5754L62.9213 25.5415C62.9012 25.3289 62.9531 25.1224 63.0054 24.9146C63.0406 24.7747 63.076 24.6343 63.0895 24.491H63.1064C63.1715 24.0516 63.2392 23.6128 63.3068 23.1742C63.5885 21.3471 63.8695 19.5245 63.9645 17.6799C64.0127 17.6265 64.0678 17.5773 64.1226 17.5283C64.2594 17.4062 64.3948 17.2852 64.4188 17.1038C64.6589 16.0977 64.8064 15.0688 64.954 14.0397C65.189 12.3999 65.4242 10.7594 66.0342 9.20832C66.5789 9.22723 67.0765 9.39922 67.5736 9.57108C67.9672 9.70713 68.3606 9.8431 68.7769 9.90299ZM53.8918 18.0305C54.1361 18.0762 54.3809 18.1219 54.6257 18.1713C54.737 17.8943 54.8331 17.6097 54.9297 17.3234C55.0813 16.874 55.2344 16.4203 55.4502 15.9856C55.955 16.2397 56.4935 16.443 57.0319 16.5955C56.8468 17.0869 56.6618 17.5952 56.5103 18.1035C56.8805 18.1543 57.2507 18.1543 57.6209 18.1204C57.6545 19.0862 57.6545 20.0858 57.2843 21.0008C57.1571 22.8179 57.1173 24.635 57.0776 26.4522C57.0595 27.2782 57.0414 28.1042 57.0151 28.9302C57.0151 29.0826 56.9983 29.3876 56.9815 29.5401L57.0488 29.6757C56.9983 30.7939 56.9815 31.8952 56.9983 33.0135C56.9899 33.6573 56.9941 34.3011 56.9983 34.945C57.0025 35.5888 57.0067 36.2327 56.9983 36.8765C56.9851 37.1297 57.0004 37.3855 57.0158 37.6408C57.0395 38.0348 57.0631 38.4276 56.9815 38.808C57.0488 39.2485 57.0656 39.706 57.0656 40.1465C57.0488 40.4346 57.0572 40.7226 57.0656 41.0106C57.074 41.2987 57.0824 41.5867 57.0656 41.8747C57.0726 41.9876 57.0803 42.0997 57.088 42.2113C57.1173 42.6363 57.1462 43.055 57.1329 43.4843C57.1616 43.9327 57.1995 44.3841 57.2375 44.836C57.2885 45.4429 57.3395 46.0506 57.3685 46.6527C57.4526 47.5337 57.5536 48.4148 57.6545 49.2958C57.668 49.3941 57.6821 49.4924 57.6963 49.5907C57.7528 49.9837 57.8093 50.3768 57.8228 50.7699C58.1761 51.9559 58.1425 53.2436 57.7555 54.4296C57.2339 54.311 56.6954 54.2263 56.1738 54.1755L56.1906 54.1077C55.9309 54.1418 55.6787 54.0691 55.429 53.9971C55.3067 53.9618 55.185 53.9267 55.0632 53.9044C55.0456 54.3736 55.1981 54.8198 55.35 55.2645C55.4888 55.6708 55.6273 56.076 55.6353 56.4967C54.8886 56.7974 54.0866 56.885 53.2907 56.9719C53.0105 57.0025 52.7311 57.033 52.4551 57.0728C52.2262 57.1066 51.9974 57.1459 51.7686 57.1852C51.4253 57.2442 51.082 57.3032 50.7388 57.3438C50.3003 57.4632 49.8535 57.5405 49.4101 57.6172C49.2239 57.6494 49.0383 57.6815 48.8542 57.7166C48.0297 57.903 47.2052 58.0724 46.3638 58.1741L46.3807 58.2079C46.1874 58.2312 45.9934 58.2552 45.7988 58.2792C43.7229 58.5358 41.5783 58.801 39.5322 58.2588C39.1789 58.1571 38.8423 58.0046 38.5058 57.8352C37.6476 57.4624 37.0755 56.6831 36.5876 55.9037C36.3274 55.2726 36.167 54.608 36.007 53.9453C35.9393 53.665 35.8717 53.385 35.7967 53.1081L35.8304 53.0403C35.5786 52.1455 35.418 51.2244 35.257 50.3001C35.235 50.1744 35.2131 50.0486 35.1909 49.9227C35.1124 49.5048 35.0245 49.0888 34.9367 48.6727C34.7609 47.8406 34.5852 47.0085 34.4842 46.1614C34.2823 45.3989 34.1309 44.6365 34.0467 43.8571C33.8616 43.0099 33.7102 42.1628 33.5924 41.2987C33.4568 40.6979 33.3649 40.0861 33.2727 39.4722C33.2505 39.3243 33.2283 39.1763 33.2054 39.0283H33.1886C33.1732 38.8996 33.1517 38.771 33.1301 38.6418C33.0805 38.3458 33.0305 38.0473 33.054 37.7406C32.9698 37.4187 32.8857 37.0968 32.8689 36.7748L32.8635 36.7366C32.579 34.7151 32.283 32.6111 32.7679 30.6075C32.8773 30.6414 32.9909 30.6795 33.1044 30.7177C33.218 30.7558 33.3316 30.7939 33.441 30.8278C33.4915 30.76 33.6092 30.6075 33.6765 30.5398C34.012 30.5773 34.3319 30.5109 34.6535 30.4442C34.9127 30.3904 35.173 30.3364 35.4433 30.3364C35.7803 30.3067 36.1194 30.3041 36.4583 30.3015C37.0841 30.2968 37.7095 30.292 38.3207 30.1162C38.6068 30.167 38.9096 30.2348 39.1957 30.3026L39.3303 30.2517L39.4649 30.3026C39.4649 30.3473 39.4602 30.4109 39.4558 30.4709C39.4518 30.5247 39.4481 30.5755 39.4481 30.6075C39.4795 30.8089 39.5172 31.012 39.5552 31.2164C39.6802 31.8891 39.8077 32.5749 39.7173 33.2507L39.8183 33.0473C39.914 33.5911 40.0041 34.1376 40.0943 34.6847C40.2262 35.4843 40.3583 36.285 40.5082 37.0798L40.4913 37.1306C40.8153 38.6569 41.1234 40.1912 41.432 41.7281C41.5721 42.4261 41.7124 43.1246 41.8543 43.8232C41.8724 43.878 41.8911 43.9329 41.9097 43.9878C42.0467 44.3908 42.1848 44.797 42.1403 45.2295C42.2413 45.4328 42.2918 45.6361 42.2918 45.8564C42.3718 46.2157 42.445 46.575 42.5181 46.9334C42.6448 47.5554 42.7711 48.1749 42.9312 48.7875L43.0322 49.1095C43.0574 49.2111 43.0784 49.317 43.0995 49.4229C43.1205 49.5288 43.1415 49.6347 43.1668 49.7364C43.2341 50.143 43.3014 50.5496 43.3855 50.9563L43.5538 51.041L43.6379 50.9902C44.8888 50.8102 46.1312 50.5454 47.3772 50.2798C47.8911 50.1702 48.4056 50.0605 48.9215 49.9566C48.9827 49.9566 49.071 49.9658 49.156 49.9745C49.2347 49.9827 49.3105 49.9905 49.359 49.9905C49.3514 49.4873 49.2961 48.9841 49.2407 48.4793C49.1729 47.8624 49.1049 47.2432 49.1234 46.6188C49.0025 46.0288 48.9895 45.4232 48.9766 44.8164C48.9661 44.3255 48.9556 43.8338 48.8878 43.3488C48.843 42.6711 48.828 41.9933 48.813 41.3156C48.8056 40.9767 48.7981 40.6379 48.7869 40.299C48.7869 40.2567 48.7827 40.1974 48.7785 40.1381C48.7743 40.0788 48.7701 40.0195 48.7701 39.9771C48.7532 39.6552 48.7532 39.3502 48.7532 39.0452C48.7027 37.7914 48.7027 36.5207 48.7196 35.2669C48.6791 35.0496 48.6819 34.8215 48.6846 34.5999C48.6853 34.545 48.6859 34.4905 48.6859 34.4367C48.6859 34.3943 48.6901 34.3308 48.6943 34.2673C48.6985 34.2037 48.7027 34.1402 48.7027 34.0978C48.6838 32.8002 48.7129 31.508 48.7419 30.2182C48.7644 29.2175 48.7869 28.2182 48.7869 27.2189C48.7869 24.508 48.8878 21.7971 49.0729 19.1031C49.258 18.1035 49.7628 17.1885 50.4022 16.3922C50.5614 16.4884 50.7242 16.5807 50.8876 16.6733C51.415 16.9723 51.947 17.2739 52.371 17.7138C52.8719 17.8399 53.3806 17.935 53.8918 18.0305ZM30.2238 10.2348C29.6228 11.1342 29.0214 12.0343 28.394 12.9187C26.7382 12.2884 25.0825 11.6764 23.4267 11.0644C22.3229 10.6564 21.2191 10.2485 20.1153 9.83505C19.5431 9.63173 18.8869 9.41147 18.298 9.66562C18.0512 9.80475 17.9666 10.0663 17.8811 10.3306C17.8208 10.5169 17.76 10.7045 17.6417 10.8516C17.1706 11.5294 16.9855 12.3596 16.9182 13.1898C16.943 13.2117 16.9678 13.2336 16.9927 13.2556C17.3721 13.5908 17.7569 13.9308 18.2307 14.1217C20.1489 14.9858 22.1008 15.7821 24.0527 16.5445C24.5743 16.7309 25.0959 16.9342 25.6007 17.2053C24.6753 18.6285 23.6825 20.0009 22.6224 21.3056C22.5527 21.3964 22.4816 21.4872 22.4101 21.5784C21.8946 22.2359 21.3629 22.9142 21.2595 23.7623L21.3941 23.8979C21.7071 24.1927 22.0382 24.4692 22.3694 24.7457C22.5901 24.93 22.8109 25.1144 23.0263 25.3041C23.4301 25.643 23.8171 25.9988 24.1705 26.3716C24.3387 26.3264 24.507 26.2661 24.6753 26.2059C24.7594 26.1758 24.8435 26.1456 24.9277 26.1174C25.2642 25.8971 25.5503 25.6091 25.8195 25.3041C25.87 25.2533 25.9541 25.1516 25.9878 25.1008C26.3158 24.6237 26.713 24.2061 27.1098 23.789C27.4456 23.436 27.7811 23.0832 28.0743 22.6949C28.4007 22.2384 28.7027 21.7672 29.0039 21.2971C29.2617 20.8947 29.519 20.4933 29.7906 20.1026C29.8537 20.0094 29.9147 19.9141 29.9757 19.8188C30.1587 19.5329 30.3417 19.247 30.5814 19.0182C30.817 19.086 31.0357 19.1707 31.2713 19.2724C31.4245 19.3279 31.5799 19.3812 31.736 19.4347C32.0084 19.5281 32.2827 19.6221 32.5501 19.7298C32.7605 19.8061 32.9666 19.8866 33.1727 19.967C33.3788 20.0475 33.585 20.128 33.7953 20.2043C34.164 20.336 34.5242 20.4846 34.882 20.6322C35.0305 20.6935 35.1785 20.7546 35.3265 20.8142C36.1847 21.17 37.2616 21.458 38.1198 20.9328C38.227 20.7277 38.1907 20.5019 38.1547 20.2773C38.1341 20.1496 38.1137 20.0222 38.1198 19.8993C38.2964 19.9077 38.4689 19.9162 38.6414 19.9247C38.8139 19.9332 38.9863 19.9416 39.163 19.9501C39.1779 19.9201 39.1986 19.8799 39.2217 19.835C39.2771 19.7275 39.3462 19.5932 39.3818 19.5096C39.6678 18.7133 39.5837 17.8153 39.1798 17.0698C38.9443 17.0867 38.7087 17.1037 38.4731 17.1037C38.4227 16.9343 38.3554 16.7818 38.2881 16.6293L38.288 16.6292C37.0677 15.9946 35.7618 15.5429 34.4641 15.094C34.1336 14.9797 33.8036 14.8655 33.4756 14.7486C34.4303 13.4625 35.2366 12.0868 36.0462 10.7055C36.2926 10.2852 36.5392 9.86434 36.7905 9.44536C37.0933 8.92012 37.1775 8.22545 36.9756 7.64938C36.6935 7.47398 36.3706 7.43857 36.0471 7.40311C35.7144 7.36663 35.381 7.33008 35.091 7.14109C34.9311 7.04367 34.7755 6.93671 34.6198 6.82976C34.1529 6.5089 33.6859 6.18804 33.1054 6.1245C32.0832 7.45234 31.1541 8.84271 30.2238 10.2348ZM29.2858 15.0027C30.7833 12.6476 32.3651 10.3264 33.9972 8.05602C34.3366 8.31733 34.6996 8.54883 35.0548 8.77528C35.2983 8.93058 35.5381 9.0835 35.764 9.24204H36.2352C36.0979 9.47446 35.9611 9.70712 35.8243 9.93973C34.8042 11.6742 33.7856 13.4062 32.5838 15.0196C32.6744 15.0512 32.765 15.0813 32.8552 15.1114C33.201 15.2263 33.5424 15.3398 33.8626 15.5279C33.6271 15.816 33.4083 16.121 33.2064 16.4259C34.3261 16.7795 35.4191 17.2031 36.5125 17.6268C37.3579 17.9545 38.2036 18.2822 39.0621 18.5777C39.0064 18.8438 38.9393 19.0983 38.8702 19.3604C38.8557 19.4154 38.8411 19.4707 38.8265 19.5265C38.4395 19.4588 38.0356 19.374 37.6486 19.2893C37.6486 19.5181 37.6528 19.7468 37.657 19.9755C37.6612 20.2043 37.6654 20.433 37.6654 20.6617C37.0933 20.7464 36.4876 20.7803 35.9491 20.5262C34.8602 20.0433 33.7415 19.6321 32.625 19.2217C31.8609 18.9408 31.0978 18.6603 30.3459 18.3574C29.6109 19.3482 28.9343 20.381 28.2574 21.4143C27.9735 21.8478 27.6896 22.2813 27.4012 22.7118C27.3002 22.8643 27.153 22.9745 27.0058 23.0846C26.8585 23.1947 26.7113 23.3048 26.6103 23.4573C26.5716 23.5061 26.533 23.5548 26.4944 23.6035C25.8612 24.4015 25.2336 25.1926 24.4565 25.8633C23.9686 25.2533 23.3965 24.762 22.7066 24.3892C23.1434 23.7945 23.5933 23.2085 24.0435 22.6224C25.1195 21.2213 26.1967 19.8187 27.0983 18.2897C26.8964 18.2134 26.6903 18.1372 26.4842 18.061C26.278 17.9847 26.0719 17.9085 25.87 17.8322C26.0551 17.5103 26.257 17.2053 26.4757 16.9003C23.6993 15.8499 20.9566 14.7486 18.2643 13.5456C18.3951 13.2885 18.5098 13.0174 18.6245 12.7461C18.8197 12.2846 19.0152 11.8225 19.2908 11.4277C20.0266 11.4927 20.703 11.7571 21.3807 12.0221C21.5864 12.1025 21.7922 12.183 21.9998 12.2579C23.2348 12.7449 24.4831 13.2051 25.7332 13.666C26.9189 14.1031 28.1063 14.5409 29.2858 15.0027Z" fill="black"></path><path fill-rule="evenodd" clip-rule="evenodd" d="M127.032 51.0405C127.23 50.959 127.274 50.7808 127.318 50.6015C127.357 50.4452 127.396 50.288 127.537 50.1933C127.825 49.924 127.987 49.5785 128.151 49.2307C128.255 49.0097 128.359 48.7878 128.496 48.5837C127.825 47.9697 127.058 47.467 126.306 46.9746L126.306 46.9746L126.301 46.9712C126.225 46.9213 126.149 46.8715 126.073 46.8217C125.653 46.541 125.235 46.2547 124.817 45.968L124.816 45.9677L124.816 45.9677C123.796 45.2679 122.772 44.5663 121.698 43.9413L121.681 43.9074C121.518 43.8048 121.355 43.7007 121.192 43.5964L121.191 43.5963C120.545 43.1842 119.893 42.768 119.208 42.4164C118.487 41.9326 117.724 41.513 116.959 41.0927L116.959 41.0927C116.546 40.8654 116.132 40.638 115.725 40.4002C115.705 40.3903 115.678 40.3776 115.648 40.3633C115.575 40.3283 115.481 40.2838 115.422 40.2477C115.203 40.1122 114.968 39.9766 114.732 39.875C114.227 39.5869 113.722 39.3158 113.201 39.0617C113.1 39.0109 112.881 38.9092 112.78 38.8753L112.763 38.8245C112.561 38.7228 112.359 38.6212 112.141 38.5365C110.946 37.9096 109.701 37.3504 108.472 36.8083C108.119 36.6049 107.749 36.4355 107.362 36.3169C107.337 36.3 107.295 36.2788 107.253 36.2576C107.21 36.2364 107.168 36.2152 107.143 36.1983C106.817 36.0587 106.492 35.9161 106.166 35.7734C105.149 35.3274 104.129 34.8804 103.071 34.5209C103.282 34.1194 103.6 33.8002 103.915 33.483L103.915 33.4828C104.052 33.345 104.189 33.2075 104.316 33.0638C104.787 32.5646 105.262 32.0695 105.736 31.5745L105.738 31.5728L105.74 31.5711C106.215 31.0761 106.689 30.5811 107.16 30.0818C107.318 29.9344 107.468 29.7793 107.616 29.6268C107.688 29.5515 107.761 29.4769 107.833 29.4041V29.3702C108.085 29.15 108.321 28.9128 108.557 28.6586C109.028 28.1673 109.503 27.6759 109.978 27.1846C110.454 26.6932 110.929 26.2019 111.4 25.7105C111.602 25.5146 111.801 25.3125 112 25.1096C112.267 24.8385 112.535 24.5658 112.814 24.3042L112.797 24.2703C113.689 23.3893 114.564 22.4913 115.422 21.5764C119.477 17.3067 123.549 12.9862 126.628 7.93714C126.668 7.86551 126.71 7.79388 126.753 7.72176C126.962 7.36739 127.178 7.00116 127.15 6.56475C127.01 6.19733 126.729 5.9242 126.454 5.65689C126.399 5.6037 126.345 5.55075 126.292 5.49733C126.25 5.5312 126.183 5.58201 126.115 5.63282L126.115 5.63322C126.048 5.68393 125.98 5.73461 125.939 5.76842C125.791 5.45615 125.514 5.27438 125.243 5.09713C125.205 5.07242 125.168 5.0478 125.131 5.02292C124.887 4.7861 124.579 4.65701 124.271 4.52772C124.006 4.4165 123.741 4.30514 123.515 4.12493C123.116 3.80537 122.673 3.56107 122.229 3.31571C121.942 3.1578 121.655 2.99945 121.378 2.82031C121.097 3.19331 120.865 3.59735 120.633 4.00087L120.633 4.00098C120.381 4.44058 120.129 4.87955 119.814 5.27707C114.749 11.7832 108.826 17.5608 102.92 23.2876C102.831 21.9408 102.874 20.5901 102.916 19.2393C102.962 17.7691 103.009 16.2988 102.886 14.833C102.482 14.7483 102.095 14.8499 101.725 14.9685C101.355 14.7483 100.934 14.7483 100.53 14.8499C100.497 14.8161 100.45 14.7653 100.404 14.7144L100.404 14.7144C100.358 14.6636 100.312 14.6127 100.278 14.5789C100.14 14.9841 99.8038 14.8593 99.4885 14.7421C99.3819 14.7025 99.2777 14.6637 99.1841 14.6466C99.1263 14.6816 99.0207 14.7326 98.9275 14.7775L98.9273 14.7776C98.8851 14.798 98.8454 14.8172 98.814 14.833L98.5111 14.4772C98.466 14.5044 98.4197 14.5317 98.3729 14.5592L98.3721 14.5597C98.2443 14.6349 98.1124 14.7125 97.9895 14.7991C97.9474 14.7652 97.8927 14.7144 97.8381 14.6636L97.838 14.6635L97.8378 14.6634C97.7832 14.6126 97.7286 14.5619 97.6866 14.528C97.6728 14.528 97.6591 14.528 97.6453 14.528C97.6198 14.5279 97.5942 14.5277 97.5687 14.5276C97.255 14.5259 96.9443 14.5243 96.6601 14.6297C96.576 14.5789 96.4246 14.4941 96.3573 14.4603C96.2563 14.528 96.0544 14.6466 95.9534 14.6975C95.8429 15.2697 95.7879 15.8494 95.7329 16.4296V16.4297V16.4297C95.6707 17.0863 95.6084 17.7435 95.4655 18.3911C95.1626 20.0007 94.9438 21.6103 94.7924 23.2368C94.7924 23.2731 94.7876 23.324 94.7831 23.3713C94.7792 23.4122 94.7756 23.4504 94.7756 23.474C94.6888 24.3573 94.6241 25.2351 94.5594 26.1137L94.5594 26.1139L94.5593 26.1145C94.5111 26.7692 94.4629 27.4243 94.4054 28.0825V28.54C94.3808 28.9982 94.3472 29.4542 94.3137 29.9095C94.2554 30.7001 94.1973 31.4889 94.1866 32.2844C94.1866 32.5381 94.0717 32.7497 93.9571 32.9607L93.957 32.9608C93.9262 33.0175 93.8954 33.0742 93.8669 33.1316C93.6314 33.4196 93.4126 33.7246 93.2443 34.0635C92.8573 34.8259 92.8573 35.7408 92.9751 36.588C93.0761 37.2318 93.2948 37.8757 93.7323 38.384C93.8107 38.6472 93.8181 38.9309 93.8253 39.2112V39.2112C93.8274 39.2917 93.8295 39.372 93.8333 39.4514L93.8165 39.6208V40.0444C93.766 40.451 93.7491 40.8407 93.7828 41.2474C93.6987 41.942 93.6818 42.6367 93.6818 43.3314C93.665 43.9413 93.6313 44.5513 93.5977 45.1612L93.7996 45.1273L93.5977 45.2798L93.6313 45.4493C93.564 46.9572 93.5304 48.4821 93.6482 50.007L93.5472 50.1086H94.4727C94.6325 50.1086 94.7882 50.1129 94.9438 50.1171C95.0995 50.1213 95.2551 50.1256 95.415 50.1256C96.2627 50.1391 97.1105 50.1418 97.9582 50.1446H97.9591C99.2312 50.1486 100.503 50.1527 101.775 50.1933V50.1595C101.849 49.4016 101.832 48.6307 101.816 47.8697C101.813 47.763 101.811 47.6565 101.809 47.5502C101.819 46.9913 101.811 46.4325 101.803 45.8736V45.8729C101.798 45.5001 101.792 45.1274 101.792 44.7546C101.86 44.2124 101.86 43.6533 101.843 43.1111C101.876 42.8909 101.91 42.6706 101.927 42.4503C102.091 42.5093 102.251 42.5826 102.411 42.656L102.411 42.656C102.711 42.7936 103.011 42.9314 103.34 42.9756C103.833 43.2756 104.364 43.4998 104.898 43.7253C105.239 43.8692 105.581 44.0136 105.915 44.1785C106.281 44.3393 106.639 44.5185 106.996 44.6975L106.996 44.6976C107.543 44.9713 108.088 45.2444 108.658 45.4493C108.757 45.5717 108.893 45.6356 109.027 45.6987C109.097 45.7316 109.166 45.7644 109.23 45.8051V45.822L109.987 46.1778C110.222 46.3642 110.492 46.4997 110.761 46.6353L110.643 46.6183C110.727 46.6353 110.879 46.6692 110.946 46.6861C111.804 47.2283 112.679 47.7535 113.588 48.1941C113.605 48.211 113.634 48.2364 113.663 48.2618C113.693 48.2872 113.722 48.3127 113.739 48.3296C114.087 48.5138 114.424 48.723 114.763 48.9327L114.763 48.9328C115.047 49.109 115.332 49.2855 115.624 49.4478C115.826 49.5834 116.028 49.702 116.23 49.8206H116.263C117.612 50.6893 118.943 51.5845 120.276 52.4807C120.789 52.8255 121.302 53.1705 121.816 53.5142L121.833 53.565L121.957 53.6556L121.957 53.6556C122.522 54.0674 123.092 54.4827 123.734 54.7511C124.099 54.0451 124.639 53.4568 125.179 52.8685C125.286 52.7508 125.394 52.6332 125.501 52.5146C125.786 52.3176 126.012 52.0571 126.238 51.7964C126.479 51.519 126.72 51.2415 127.032 51.0405ZM34.7549 26.134L34.7718 26.0492C35.1588 25.7951 35.5121 25.4901 35.8655 25.1852C37.3462 23.9483 38.8102 22.7115 40.2572 21.4407C40.7267 21.0137 41.2144 20.6051 41.702 20.1964C42.8398 19.2428 43.9776 18.2893 44.8846 17.1033C47.0384 14.494 48.9566 11.6984 50.8076 8.8689C50.1681 8.83502 49.5287 8.66559 49.0912 8.19118C49.1852 7.89538 49.4188 7.72352 49.6485 7.55443C49.7477 7.48138 49.8463 7.40886 49.9326 7.32708C50.1345 7.07293 50.2859 6.7849 50.4374 6.49686C49.7138 5.80219 48.822 5.31084 47.8797 4.98892C47.5285 4.91034 47.1717 4.93426 46.8125 4.95834C46.5521 4.9758 46.2904 4.99334 46.0288 4.97198C45.6754 4.93809 45.3052 4.95504 44.9519 5.02281C44.9182 4.92115 44.8677 4.71783 44.8509 4.61617C44.6215 4.61617 44.392 4.63368 44.1626 4.65118C43.8872 4.67218 43.6119 4.69319 43.3365 4.68395C43.0812 4.65538 42.8278 4.61911 42.575 4.58293C42.0781 4.51181 41.5836 4.44103 41.0818 4.4298C37.5986 4.07399 34.0819 4.12482 30.5987 4.4298C29.3257 4.45311 28.0526 4.58062 26.785 4.70758C26.2096 4.7652 25.6354 4.82272 25.0628 4.87032C23.6583 5.10425 22.2339 5.12464 20.8063 5.14507C19.9591 5.1572 19.1108 5.16934 18.2648 5.22613C17.8996 5.24656 17.5398 5.29983 17.1811 5.35295C16.6474 5.43199 16.116 5.51067 15.5726 5.48027C15.2985 5.46575 15.0245 5.44189 14.7505 5.41803C14.3851 5.38622 14.0197 5.35441 13.6543 5.34473C13.6459 5.49298 13.6459 5.64547 13.6459 5.79955C13.6459 6.26178 13.6459 6.7383 13.4187 7.15765C13.2557 7.29329 13.0687 7.39284 12.8805 7.49305C12.622 7.63066 12.3612 7.76951 12.1567 8.0048C11.8202 8.03869 11.5173 8.14035 11.2145 8.27589C11.4104 9.19162 11.7489 10.0632 12.0869 10.9335C12.4743 11.9311 12.861 12.927 13.0317 13.9857C12.5384 13.9857 12.0903 14.1769 11.6476 14.3657L11.6476 14.3657L11.6476 14.3657L11.6476 14.3657C11.4863 14.4345 11.3257 14.503 11.164 14.5618C11.3327 14.8733 11.431 15.2085 11.5274 15.5377L11.5275 15.538C11.5464 15.6026 11.5653 15.667 11.5846 15.7309C11.7193 16.0834 11.9832 16.3346 12.2462 16.5849C12.4761 16.8038 12.7053 17.022 12.8466 17.3066C13.4692 18.5943 13.9908 19.9158 14.4956 21.2374C14.5461 21.3899 14.5966 21.5254 14.6471 21.6609L14.6471 21.661L15.0509 22.8301C15.4445 23.925 15.8061 25.0263 16.1673 26.1261L16.1674 26.1263L16.1674 26.1266L16.1675 26.1268C16.3931 26.8138 16.6185 27.5002 16.8514 28.1841C16.9019 28.3535 16.9523 28.5229 17.0365 28.6924C17.0399 28.7617 17.0497 28.8353 17.0596 28.91C17.0982 29.2002 17.1389 29.5064 16.8177 29.6412C16.7672 29.6768 16.7151 29.7079 16.6638 29.7384C16.5444 29.8097 16.429 29.8785 16.3466 29.997C15.7434 30.3801 15.1504 30.7839 14.5564 31.1883C14.0733 31.5172 13.5896 31.8466 13.099 32.1657C12.4731 32.5859 11.831 32.9844 11.1889 33.3829C10.2257 33.9807 9.26256 34.5784 8.35392 35.2494C6.94071 36.2244 5.50715 37.1892 4.07698 38.1516L4.07595 38.1523L4.07351 38.154L4.07177 38.1551C3.66459 38.4292 3.25769 38.703 2.85161 38.9769C2.79272 39.0108 2.73382 39.0489 2.67493 39.087C2.61604 39.1251 2.55714 39.1632 2.49825 39.1971V39.231C2.09874 39.4724 1.71821 39.7367 1.33863 40.0003L1.33858 40.0003L1.33855 40.0003C0.918786 40.2919 0.500185 40.5826 0.0583851 40.8406L0.0415586 40.9084C-0.0841992 40.9647 -0.198354 41.0677 -0.31054 41.1689C-0.333451 41.1896 -0.356279 41.2102 -0.379108 41.2303C-0.410384 41.2461 -0.442241 41.2612 -0.474248 41.2765L-0.474428 41.2765L-0.474625 41.2766C-0.614694 41.3433 -0.757586 41.4113 -0.86708 41.5353C-1.22044 41.7555 -1.55697 42.2638 -1.10265 42.5858C-1.06903 42.645 -1.03541 42.7085 -1.00178 42.772L-1.00169 42.7721C-0.96804 42.8357 -0.934387 42.8992 -0.900734 42.9585H-0.86708L0.293958 44.6867C0.414648 44.9739 0.59257 45.2396 0.771747 45.5071C0.867362 45.6498 0.963334 45.7931 1.05116 45.9405L1.03433 45.9744C1.0764 46.0506 1.12267 46.1269 1.16894 46.2031C1.21522 46.2794 1.26149 46.3556 1.30356 46.4319C1.37086 46.5335 1.43816 46.6309 1.50545 46.7283C1.57277 46.8258 1.64008 46.9232 1.7074 47.0249L1.71563 47.0471C1.7636 47.1768 1.81566 47.3175 1.94297 47.3976C2.04393 47.6009 2.14489 47.7873 2.2795 47.9737C2.54873 48.0923 2.85161 48.0076 3.13766 47.9228L3.40689 47.8042L3.45737 47.8381L3.39006 47.6348L3.52467 47.6687C3.91169 47.4823 4.2987 47.279 4.63523 47.0249L4.76985 47.0587C4.78665 47.0249 4.80766 46.9784 4.82867 46.9318L4.82874 46.9317C4.84977 46.8851 4.87081 46.8385 4.88763 46.8046C5.09789 46.8171 5.27178 46.7014 5.43604 46.5921L5.43607 46.592L5.43611 46.592C5.4953 46.5526 5.55324 46.5141 5.61118 46.4827C5.91119 46.2813 6.21727 46.0952 6.52168 45.91L6.52178 45.91C6.93443 45.6591 7.34403 45.41 7.73134 45.1272C8.01908 44.977 8.29332 44.7928 8.56688 44.609C8.72526 44.5026 8.8834 44.3964 9.04381 44.297C9.19093 44.2018 9.33804 44.1132 9.48105 44.027L9.48116 44.027L9.48168 44.0266L9.48192 44.0265L9.48206 44.0264L9.48241 44.0262C9.56794 43.9747 9.652 43.9241 9.73371 43.8734V43.8226C9.8892 43.7383 10.0447 43.6454 10.1941 43.5562C10.2549 43.5199 10.3147 43.4842 10.3731 43.4499C10.4659 43.3867 10.5583 43.3203 10.651 43.2537C11.1302 42.9096 11.6206 42.5574 12.2409 42.5858C12.2853 42.5858 12.3485 42.581 12.4081 42.5766H12.4081H12.4082C12.4615 42.5726 12.512 42.5688 12.5438 42.5688C13.1327 42.5519 13.7048 42.4502 14.2769 42.3486V41.1964L14.3442 41.0948C14.4251 41.0414 14.5055 40.988 14.5857 40.9348L14.5857 40.9348L14.5858 40.9348C14.9894 40.667 15.387 40.4032 15.8081 40.1629C16.0269 40.0274 16.2288 39.8749 16.4307 39.7224L16.4307 39.7224C16.6277 39.6308 16.8248 39.498 17.0095 39.3735L17.0701 39.3327L17.087 39.2988C17.4677 39.097 17.8186 38.8652 18.1716 38.632L18.1717 38.632L18.1717 38.6319C18.4116 38.4735 18.6524 38.3144 18.9042 38.1636L18.8874 38.1467C18.9098 38.1332 18.9368 38.1173 18.9659 38.1002C19.0461 38.0532 19.1409 37.9976 19.1903 37.9603C19.3249 37.8756 19.5773 37.6892 19.6951 37.5875L19.6951 37.5875C19.7288 37.6045 19.7961 37.6384 19.8465 37.6553C19.8649 37.7047 19.8878 37.7698 19.9118 37.8383C19.9538 37.958 19.9995 38.0882 20.0316 38.1636C20.1569 38.5526 20.2627 38.948 20.3693 39.346C20.4344 39.5894 20.4998 39.8338 20.5701 40.0782C20.6037 40.2052 20.6374 40.3365 20.671 40.4678C20.7047 40.5991 20.7383 40.7305 20.772 40.8576C20.8561 41.2303 20.9571 41.5861 21.058 41.9419C21.1001 42.1029 21.1422 42.268 21.1842 42.4332C21.2263 42.5984 21.2684 42.7636 21.3104 42.9246L21.3441 42.8907C21.5539 43.8351 21.818 44.7704 22.0833 45.7099C22.1797 46.0515 22.2763 46.3935 22.3705 46.7368C22.4287 47.0883 22.5372 47.4272 22.6416 47.7533L22.6416 47.7534L22.6418 47.7541C22.6581 47.805 22.6743 47.8556 22.6902 47.9059C22.8106 48.5231 22.9951 49.1331 23.1788 49.7406L23.1789 49.7407C23.2776 50.0671 23.376 50.3928 23.4643 50.7185L23.5147 50.6846C23.6115 51.2986 23.8476 51.8679 24.085 52.4406L24.0851 52.4406L24.0851 52.4407L24.0851 52.4407C24.2604 52.8635 24.4365 53.2882 24.558 53.7343C24.7431 54.429 24.9282 55.1067 25.1301 55.8014C25.1522 55.8681 25.171 55.9348 25.1895 56.0001L25.1895 56.0002C25.2133 56.0841 25.2363 56.1657 25.2647 56.2419C25.9714 58.7495 26.7454 61.2571 27.7719 63.6461C27.9645 64.2578 28.4181 64.7382 28.8569 65.2028C28.9164 65.2658 28.9756 65.3285 29.0339 65.3912C29.2756 65.1537 29.5586 64.9498 29.8419 64.7457C30.3869 64.353 30.933 63.9596 31.1877 63.3242C31.5417 63.0865 31.9732 63.0442 32.3917 63.0031L32.4972 62.9926L32.5675 62.9853C32.6299 63.6137 33.1552 63.9799 33.6337 64.3135C33.6713 64.3397 33.7086 64.3657 33.7453 64.3916C33.8808 64.2249 34.0229 64.065 34.1658 63.9044L34.1658 63.9043C34.3425 63.7056 34.5202 63.5057 34.6876 63.2903C34.654 63.2394 34.6077 63.1674 34.5614 63.0954C34.5152 63.0234 34.4689 62.9514 34.4352 62.9006C34.8391 62.7481 35.2597 62.7142 35.6972 62.6973C35.7477 61.7823 35.5963 60.8843 35.2429 60.0372C34.7997 59.4422 34.5683 58.7472 34.337 58.0526L34.3369 58.0525L34.3369 58.0525L34.3369 58.0524C34.1994 57.6394 34.0619 57.2266 33.8799 56.8349V56.8011L33.8463 56.7841C33.5434 55.7336 33.2069 54.7001 32.8535 53.6666C32.517 52.3958 32.2141 51.1251 31.9112 49.8544C31.5153 49.0224 31.3219 48.1239 31.1283 47.2247L31.1283 47.2246C30.9435 46.3659 30.7585 45.5065 30.3968 44.7037C30.3744 44.5794 30.337 44.4551 30.2996 44.3309C30.2809 44.2688 30.2622 44.2066 30.2454 44.1445L30.1781 44.0598C29.9594 43.0324 29.6356 42.0315 29.3141 41.038L29.314 41.0378C29.1902 40.655 29.0667 40.2734 28.9497 39.8918C28.762 39.4125 28.6117 38.9198 28.4615 38.4275L28.4615 38.4275C28.2348 37.6842 28.0084 36.9421 27.6541 36.249C27.6317 36.1022 27.5943 35.9553 27.5569 35.8085C27.5382 35.7351 27.5195 35.6617 27.5026 35.5882C27.2671 35.0122 27.0315 34.4361 26.8801 33.8431L26.8632 33.877C26.8452 33.8226 26.8269 33.7685 26.8087 33.7146C26.6905 33.3655 26.5749 33.024 26.5604 32.6571L26.5605 32.657C27.3008 32.1148 28.0411 31.5727 28.7478 30.9966C28.9497 30.8272 29.1685 30.6747 29.3872 30.5222L29.5555 30.3698C29.6226 30.3185 29.6896 30.2676 29.7565 30.2168L29.757 30.2165C30.1769 29.8977 30.5917 29.5829 30.9689 29.2176L31.0194 29.2346V29.2007C31.2718 29.0143 31.5242 28.811 31.7766 28.6077C31.9522 28.4675 32.1282 28.3278 32.3044 28.1882L32.3045 28.1881C33.1076 27.5512 33.9118 26.9134 34.6708 26.2187L34.7549 26.134ZM31.7197 19.4513L31.7196 19.4512L31.7195 19.4512L31.7193 19.4511L31.7191 19.451C31.5632 19.3976 31.408 19.3444 31.255 19.2889C31.0194 19.1873 30.8007 19.1026 30.5651 19.0348C30.3253 19.2635 30.1423 19.5494 29.9593 19.8353C29.8983 19.9307 29.8373 20.026 29.7742 20.1192C29.5027 20.5098 29.2454 20.9113 28.9876 21.3136L28.9876 21.3136L28.9875 21.3137C28.6863 21.7838 28.3843 22.255 28.0579 22.7115C27.7648 23.0998 27.4293 23.4525 27.0934 23.8056C26.6967 24.2227 26.2995 24.6402 25.9714 25.1174C25.9378 25.1682 25.8536 25.2699 25.8032 25.3207C25.5339 25.6257 25.2479 25.9137 24.9113 26.134C24.8272 26.1622 24.7431 26.1923 24.659 26.2224C24.4907 26.2827 24.3224 26.3429 24.1541 26.3881C23.8008 26.0154 23.4138 25.6596 23.0099 25.3207C22.8035 25.1388 22.5922 24.9645 22.3806 24.7899L22.3806 24.7899L22.3805 24.7898L22.3804 24.7897L22.3803 24.7897C22.0401 24.5089 21.6993 24.2278 21.3777 23.9144L21.2431 23.7789C21.3466 22.9307 21.8783 22.2525 22.3937 21.5949L22.3938 21.5949C22.4652 21.5037 22.5364 21.4129 22.6061 21.3221C23.6662 20.0175 24.6589 18.6451 25.5844 17.2219C25.0796 16.9508 24.558 16.7475 24.0364 16.5611C22.0845 15.7986 20.1326 15.0023 18.2143 14.1382C17.7406 13.9474 17.3557 13.6073 16.9764 13.2721L16.9019 13.2063C16.9692 12.3761 17.1543 11.5459 17.6254 10.8682C17.7437 10.7211 17.8044 10.5334 17.8647 10.3471C17.9503 10.0828 18.0349 9.8213 18.2816 9.68217C18.8706 9.42803 19.5268 9.64829 20.0989 9.85161C20.9175 10.1582 21.736 10.4633 22.5542 10.7682L22.5545 10.7683L22.5548 10.7684L22.5551 10.7685C24.4947 11.4914 26.4319 12.2134 28.3608 12.9522C28.9882 12.0678 29.5897 11.1677 30.1906 10.2684C31.1209 8.87622 32.05 7.48584 33.0723 6.158C33.6528 6.22154 34.1197 6.5424 34.5867 6.86326L34.5868 6.86332C34.7424 6.97025 34.898 7.07718 35.0578 7.17459C35.3393 7.36357 35.6727 7.40012 36.0054 7.4366C36.329 7.47207 36.6518 7.50746 36.9256 7.68288C37.1275 8.25895 37.0434 8.95362 36.7405 9.47886C36.4893 9.89773 36.2427 10.3185 35.9964 10.7387L35.9964 10.7387L35.9963 10.7388L35.9962 10.739C35.1866 12.1203 34.3803 13.496 33.4256 14.7821C33.7248 14.8887 34.0257 14.9937 34.3271 15.0988C35.6534 15.5614 36.9904 16.0277 38.238 16.6627C38.3054 16.8152 38.3727 16.9677 38.4231 17.1372C38.5409 17.1372 38.6587 17.1329 38.7765 17.1287C38.8943 17.1244 39.0121 17.1202 39.1299 17.1202C39.5337 17.8657 39.6178 18.7637 39.3318 19.56C39.2962 19.6436 39.2272 19.7776 39.1719 19.885L39.1718 19.8854C39.1486 19.9303 39.1279 19.9706 39.113 20.0005C38.9361 19.9921 38.7635 19.9836 38.5908 19.9751C38.4185 19.9666 38.2463 19.9582 38.0698 19.9497C38.0637 20.0726 38.0841 20.2 38.1047 20.3278C38.1407 20.5523 38.177 20.7781 38.0698 20.9833C37.2116 21.5085 36.1347 21.2205 35.2766 20.8646C35.1085 20.7969 34.9404 20.7274 34.7723 20.6578L34.7718 20.6576C34.4352 20.5183 34.0987 20.3789 33.7622 20.2547C33.3583 20.0683 32.9545 19.8989 32.5338 19.7464C32.2664 19.6387 31.9921 19.5447 31.7197 19.4513ZM57.6213 49.3298C57.5203 48.4487 57.4193 47.5677 57.3352 46.6867C57.3063 46.0845 57.2552 45.4768 57.2042 44.8699C57.1663 44.4181 57.1284 43.9666 57.0996 43.5183C57.113 43.0889 57.0841 42.6702 57.0548 42.2453L57.0547 42.2449C57.047 42.1333 57.0393 42.0214 57.0323 41.9087C57.0492 41.6206 57.0407 41.3326 57.0323 41.0446C57.0239 40.7565 57.0155 40.4685 57.0323 40.1805C57.0323 39.74 57.0155 39.2825 56.9482 38.842C57.0299 38.4616 57.0062 38.0687 56.9825 37.6748V37.6747V37.6747V37.6746C56.9672 37.4193 56.9518 37.1636 56.965 36.9104C56.9734 36.2668 56.9692 35.6233 56.965 34.9797V34.9791C56.9608 34.3352 56.9566 33.6913 56.965 33.0474C56.9482 31.9292 56.965 30.8279 57.0155 29.7096L56.9482 29.5741C56.965 29.4216 56.9819 29.1166 56.9819 28.9641C57.0081 28.1381 57.0262 27.3121 57.0443 26.4862C57.0841 24.669 57.1238 22.8519 57.2511 21.0347C57.6213 20.1198 57.6213 19.1201 57.6044 18.1544C57.2343 18.1883 56.8641 18.1883 56.4939 18.1374C56.6453 17.6291 56.8304 17.1208 57.0155 16.6295C56.4771 16.477 55.9386 16.2737 55.4338 16.0195C55.2616 16.3937 55.1285 16.7874 54.995 17.1823C54.8806 17.5207 54.7659 17.8599 54.6261 18.1883C54.3813 18.139 54.1365 18.0932 53.8923 18.0476L53.8922 18.0475C53.381 17.952 52.8723 17.8569 52.3713 17.7308C51.9473 17.2909 51.4154 16.9893 50.888 16.6903C50.7246 16.5977 50.5617 16.5054 50.4026 16.4092C49.7632 17.2056 49.2584 18.1205 49.0733 19.1201C48.8882 21.8141 48.7873 24.525 48.7873 27.2359C48.7873 28.2366 48.7647 29.2373 48.7422 30.238C48.7132 31.5246 48.6842 32.8113 48.7031 34.0979V34.098C48.7031 34.1828 48.7031 34.3521 48.6863 34.4367L48.6861 34.4918C48.6859 34.5271 48.6854 34.5627 48.685 34.5984L48.685 34.5997V34.5999C48.6823 34.8215 48.6795 35.0497 48.72 35.267C48.7031 36.5208 48.7031 37.7915 48.7536 39.0453C48.7536 39.3503 48.7536 39.6722 48.7704 39.9772C48.7704 40.0195 48.7747 40.0788 48.7789 40.1381C48.7831 40.1974 48.7873 40.2567 48.7873 40.2991C48.7985 40.6379 48.806 40.9768 48.8134 41.3157C48.8284 41.9934 48.8434 42.6711 48.8882 43.3488C48.9643 43.8392 48.975 44.3366 48.9857 44.833C48.9987 45.4343 49.0116 46.0342 49.1406 46.6189C49.1221 47.2432 49.1901 47.8624 49.2579 48.4793L49.2579 48.4794L49.2579 48.4794C49.3134 48.9842 49.3686 49.4874 49.3762 49.9906C49.3277 49.9906 49.2519 49.9827 49.1732 49.9746C49.0883 49.9658 48.9999 49.9567 48.9387 49.9567C48.4228 50.0606 47.9083 50.1702 47.3945 50.2798L47.3943 50.2798C46.1484 50.5454 44.906 50.8103 43.6551 50.9902L43.571 51.041L43.4027 50.9563C43.3186 50.5497 43.2513 50.1431 43.184 49.7364C43.1588 49.6348 43.1377 49.5289 43.1167 49.423L43.1166 49.4228C43.0956 49.3169 43.0746 49.2111 43.0494 49.1095L42.9484 48.7876C42.7883 48.175 42.6621 47.5556 42.5353 46.9337L42.5353 46.9335L42.5353 46.9333C42.4622 46.5749 42.389 46.2157 42.309 45.8564C42.309 45.6362 42.2585 45.4329 42.1576 45.2295C42.202 44.7971 42.0639 44.3909 41.927 43.9878L41.9269 43.9877L41.9269 43.9875L41.9268 43.9874C41.9082 43.9327 41.8896 43.878 41.8715 43.8233C41.7297 43.1253 41.5896 42.4274 41.4496 41.73L41.4495 41.7295L41.4494 41.729L41.4493 41.7284L41.4492 41.7282L41.4491 41.7279L41.4491 41.7276C41.1405 40.191 40.8325 38.6568 40.5086 37.1307L40.5254 37.0799C40.3755 36.2852 40.2435 35.4845 40.1116 34.6849L40.1116 34.6848C40.0213 34.1377 39.9312 33.5912 39.8355 33.0474L39.7345 33.2507C39.8249 32.5749 39.6974 31.8892 39.5724 31.2164C39.5344 31.0121 39.4967 30.8089 39.4653 30.6076C39.4653 30.5756 39.4691 30.5247 39.473 30.471C39.4774 30.4109 39.4821 30.3473 39.4821 30.3026L39.3475 30.2518L39.2129 30.3026C38.9268 30.2348 38.624 30.1671 38.3379 30.1162C37.7267 30.2921 37.1013 30.2968 36.4755 30.3016H36.4755H36.4755H36.4754C36.1365 30.3042 35.7975 30.3067 35.4606 30.3365C35.1891 30.3365 34.9244 30.391 34.6619 30.4449C34.3386 30.5114 34.0188 30.5772 33.6938 30.5398C33.6686 30.5736 33.6224 30.6286 33.5762 30.6835L33.5761 30.6837L33.576 30.6838C33.5297 30.7389 33.4834 30.794 33.4582 30.8279L33.3967 30.8089L33.3329 30.7894L33.3328 30.7894L33.3327 30.7893L33.3326 30.7893L33.3323 30.7892C33.1508 30.7338 32.9624 30.6763 32.7851 30.6076C32.2971 32.6238 32.5832 34.7417 32.8861 36.7749C32.9029 37.0968 32.987 37.4187 33.0712 37.7407C33.0477 38.036 33.0979 38.3397 33.1475 38.64L33.1475 38.6402C33.1691 38.7705 33.1905 38.9002 33.2058 39.0283H33.2226C33.2455 39.1763 33.2677 39.3243 33.2899 39.4722C33.3821 40.0861 33.474 40.6979 33.6096 41.2987C33.7274 42.1628 33.8789 43.01 34.0639 43.8571C34.1481 44.6365 34.2995 45.399 34.5014 46.1614C34.6024 47.0085 34.7781 47.8406 34.9539 48.6726L34.9539 48.6728L34.9539 48.6729L34.9539 48.673L34.954 48.6731C35.0418 49.089 35.1297 49.505 35.2082 49.9228L35.2317 50.0568L35.2742 50.3001C35.4352 51.2244 35.5958 52.1455 35.8476 53.0403L35.8139 53.1081C35.8889 53.385 35.9565 53.6649 36.0241 53.9451L36.0241 53.9451L36.0242 53.9452L36.0242 53.9453C36.1842 54.6081 36.3446 55.2726 36.6048 55.9037C37.0759 56.6831 37.6648 57.4625 38.523 57.8353C38.8595 58.0047 39.1961 58.1572 39.5494 58.2588C41.5877 58.7989 43.7098 58.5379 45.7884 58.2822H45.7885L45.7897 58.2821C45.9929 58.2571 46.1957 58.2321 46.3979 58.208L46.3811 58.1741C47.2224 58.0725 48.0469 57.903 48.8714 57.7166C49.0553 57.6816 49.2407 57.6495 49.4267 57.6173L49.4273 57.6172L49.4274 57.6172C49.8708 57.5405 50.3175 57.4632 50.756 57.3439C51.0993 57.3032 51.4425 57.2443 51.7858 57.1853C52.0146 57.146 52.2435 57.1067 52.4723 57.0728C52.7483 57.0331 53.0277 57.0026 53.3079 56.972C54.1038 56.8851 54.9058 56.7975 55.6525 56.4967C55.6446 56.078 55.5073 55.6746 55.3692 55.2683C55.2166 54.8197 55.0628 54.3676 55.0804 53.8875C55.2022 53.9098 55.3239 53.9449 55.4462 53.9802C55.6959 54.0522 55.9481 54.1249 56.2078 54.0908L56.191 54.1586C56.7295 54.2094 57.2511 54.2941 57.7727 54.4127C58.1597 53.2267 58.1934 51.956 57.84 50.753C57.7895 50.3125 57.7054 49.8211 57.6213 49.3298ZM91.5278 54.1074C91.3259 54.2768 91.2081 54.4802 91.1408 54.7174C91.1529 54.7082 91.1678 54.6974 91.1842 54.6856C91.2005 54.6739 91.2182 54.6614 91.2364 54.6485C91.3016 54.6023 91.3716 54.5527 91.3932 54.531C91.6465 55.6452 91.5406 56.802 91.4355 57.9507L91.4355 57.9513C91.4079 58.2522 91.3805 58.5526 91.3595 58.8515C89.8619 58.8007 88.3475 58.8007 86.8331 58.9193C86.6144 59.1565 86.3956 59.3598 86.1432 59.5631C85.5207 59.9189 84.8813 60.2578 84.225 60.5797C84.1493 60.4695 84.0778 60.3552 84.0062 60.2408C83.9347 60.1264 83.8632 60.0121 83.7875 59.902C83.3994 59.3099 83.2004 58.635 83.0008 57.9584C82.9148 57.6669 82.8288 57.3751 82.7274 57.0894C82.2974 56.2278 81.8636 55.3675 81.4299 54.5071L81.4291 54.5057L81.4291 54.5056L81.4291 54.5055C80.2508 52.1684 79.0722 49.8306 77.9655 47.4657C77.6532 46.9511 77.4127 46.3882 77.1734 45.828C77.1501 45.7736 77.1269 45.7192 77.1037 45.665C77.0825 45.6157 77.0613 45.5664 77.04 45.5172C76.9055 45.2293 76.7877 44.9244 76.6699 44.6195L76.6699 44.6193C76.4343 44.4498 76.3838 44.2296 76.5184 43.9924H76.3838C76.2116 43.6359 76.0666 43.2685 75.9209 42.8995C75.8104 42.6195 75.6995 42.3386 75.5761 42.0608H75.4752C75.4836 42.0524 75.4961 42.0355 75.5087 42.0186L75.5088 42.0185L75.5088 42.0185C75.5214 42.0015 75.5341 41.9846 75.5425 41.9761C75.391 41.6373 75.2564 41.2984 75.1386 40.9595C75.1148 40.9036 75.0891 40.8477 75.0633 40.7915L75.0632 40.7911C74.9797 40.6093 74.8951 40.4251 74.8694 40.231C74.668 39.7827 74.5 39.3209 74.3317 38.8584L74.3313 38.8574L74.3313 38.8573C74.2326 38.586 74.1338 38.3145 74.0281 38.0453H74.1459L73.9103 38.0284L74.0112 37.9267C73.8598 37.6217 73.742 37.3168 73.6747 36.9948L73.5738 36.8762H73.5401C73.5569 36.7746 73.5738 36.5713 73.5738 36.4696C73.5569 36.4442 73.5233 36.4019 73.4897 36.3596L73.4896 36.3595C73.456 36.3171 73.4223 36.2748 73.4055 36.2493C73.2947 35.9891 73.2092 35.7186 73.1241 35.4491C73.0541 35.2274 72.9842 35.0064 72.9007 34.7922C72.7997 34.5211 72.7156 34.2501 72.6315 33.962H72.581C72.5642 33.8858 72.5431 33.8095 72.5221 33.7333C72.5011 33.657 72.48 33.5808 72.4632 33.5046L72.2613 32.8438C72.1435 32.4371 72.0089 32.0305 71.8743 31.6408C71.814 31.4429 71.7532 31.245 71.6924 31.047L71.6923 31.0469L71.6923 31.0467C71.4301 30.1937 71.1673 29.3387 70.9488 28.4724C70.9449 28.4698 70.9404 28.4667 70.9355 28.4633C70.9327 28.4614 70.9298 28.4593 70.9267 28.4572L70.8897 28.4309C70.828 28.3868 70.7448 28.3274 70.6964 28.303L70.6627 28.4386H70.5786C70.3599 29.772 70.0974 31.0965 69.8353 32.4186L69.8353 32.4187L69.8351 32.4195L69.8348 32.4214L69.8344 32.4233C69.7338 32.9308 69.6333 33.4379 69.5354 33.9451C69.5185 34.0298 69.4975 34.1145 69.4765 34.1992C69.4554 34.2839 69.4344 34.3687 69.4176 34.4534C69.4007 34.572 69.3797 34.6906 69.3587 34.8092C69.3376 34.9278 69.3166 35.0464 69.2998 35.165H69.2661C69.1993 35.5878 69.1109 36.0053 69.0222 36.4234L69.0222 36.4236L69.0222 36.4237L69.0221 36.4238C68.9546 36.7427 68.8869 37.062 68.8286 37.3845C68.8118 37.4862 68.7613 37.6726 68.7277 37.7573C68.7117 38.1604 68.6499 38.5481 68.586 38.9497V38.9498V38.9498L68.5762 39.0111L68.4248 40.0785C68.3594 40.4803 68.3067 40.8872 68.2539 41.2953L68.2538 41.2957L68.2537 41.2962C68.1707 41.9375 68.0873 42.5816 67.9537 43.213L67.9368 43.2808C67.8485 43.8035 67.8018 44.3355 67.7551 44.8669C67.6597 45.9545 67.5645 47.0402 67.1123 48.0418C66.1364 47.9062 65.2277 47.5165 64.3359 47.093C63.8004 47.3812 63.2952 47.7255 62.7899 48.07C62.3743 48.3533 61.9587 48.6366 61.5259 48.8889C61.4586 48.9312 61.3914 48.9693 61.3241 49.0074L61.324 49.0075L61.3238 49.0076C61.2565 49.0457 61.1893 49.0838 61.122 49.1261C61.0642 49.0388 60.9866 48.9555 60.9081 48.8714C60.7583 48.7106 60.6057 48.5469 60.5836 48.3467C60.3144 48.3129 60.1966 48.1604 60.2807 47.8893L60.0283 47.8215C60.2134 47.6182 60.4658 47.4826 60.735 47.4318C60.7687 47.2454 61.0379 47.1607 61.223 47.1607L61.5764 46.7541L61.5259 46.6185C61.3576 46.6016 61.1894 46.5677 61.0211 46.5169C60.5499 46.4152 60.062 46.3644 59.5908 46.3644C59.6189 46.1272 59.645 45.89 59.6712 45.6528C59.7236 45.1784 59.7759 44.704 59.8432 44.2296C59.9045 43.8144 59.9547 43.3993 60.0049 42.9848V42.9848C60.1062 42.1474 60.2072 41.3125 60.3985 40.4851C60.4153 39.8243 60.5668 39.1805 60.7182 38.5536C60.6964 38.2686 60.7522 37.9835 60.8079 37.6985C60.8383 37.543 60.8687 37.3875 60.8865 37.232C61.0619 36.1577 61.2499 35.0961 61.4397 34.0252L61.5259 33.5384C61.7194 32.437 61.9171 31.3356 62.1149 30.2342C62.3126 29.133 62.5103 28.0318 62.7038 26.9306L62.7269 26.7739L62.7269 26.7738V26.7737C62.7863 26.3718 62.8442 25.9801 62.8888 25.5752L62.9225 25.5413C62.902 25.3251 62.9562 25.1089 63.0093 24.8965C63.0436 24.7593 63.0776 24.6238 63.0908 24.4908H63.1076C63.1727 24.0513 63.2404 23.6125 63.308 23.1739L63.3081 23.1736V23.1735C63.5898 21.3465 63.8708 19.5241 63.9657 17.6797C64.0139 17.6263 64.069 17.5771 64.1239 17.5281C64.2606 17.4059 64.396 17.285 64.4201 17.1036C64.6719 16.0759 64.8219 15.0246 64.972 13.9734C65.2028 12.3557 65.4337 10.7383 66.0354 9.20809C66.5801 9.22701 67.0777 9.39899 67.5749 9.57085C67.9685 9.7069 68.3618 9.84287 68.7782 9.90276C68.8623 9.02172 68.8286 8.14067 68.7613 7.25963C68.9372 7.25963 69.1152 7.25228 69.294 7.2449C69.8335 7.22263 70.3801 7.20007 70.8983 7.37823C71.5377 7.63238 72.194 7.93736 72.6819 8.42871C73.8093 9.54696 74.7853 10.8855 75.2396 12.4273C75.8283 14.4702 76.3053 16.5396 76.7856 18.623L76.7856 18.6231L76.7856 18.6232C77.0741 19.8746 77.3638 21.131 77.6795 22.3899C78.2852 24.7619 78.9078 27.117 79.665 29.4213C79.6818 29.489 79.6944 29.5568 79.7071 29.6245C79.7197 29.6923 79.7323 29.7601 79.7491 29.8279C80.0352 30.5903 80.2876 31.3697 80.4895 32.1491L80.5277 32.2477C80.558 32.3255 80.5884 32.4032 80.6188 32.481L80.6217 32.4885L80.6218 32.4887L80.6219 32.4888C80.8164 32.9861 81.0118 33.4854 81.1626 33.9959L81.2299 34.0298L81.1794 34.0637C81.2466 34.2668 81.3307 34.4868 81.4147 34.7068L81.4148 34.7071L81.415 34.7075L81.6169 35.2158C81.6589 35.3598 81.7052 35.4995 81.7514 35.6392L81.7515 35.6393L81.7517 35.6399C81.7979 35.7795 81.8441 35.9191 81.8861 36.063H81.9534C81.9534 36.0969 81.9576 36.1519 81.9618 36.207C81.966 36.2621 81.9702 36.3171 81.9702 36.351L82.023 36.4519C82.1923 36.7745 82.3636 37.101 82.4246 37.4693C82.4666 37.4862 82.5339 37.5074 82.6012 37.5285L82.6013 37.5286C82.6686 37.5498 82.7359 37.5709 82.7779 37.5879C82.8032 37.105 82.8032 36.6221 82.8032 36.1392C82.8032 35.6563 82.8032 35.1735 82.8284 34.6906C82.7779 34.4703 82.7443 34.2331 82.8284 34.0128C82.8284 33.7475 82.803 33.4762 82.7776 33.2037L82.7775 33.2035C82.7282 32.6758 82.6784 32.1436 82.8116 31.6408L82.9125 31.59L82.7106 31.6408C82.7412 31.5177 82.7717 31.269 82.7897 31.1227L82.7947 31.0817C82.7106 30.8106 82.7106 30.5395 82.7274 30.2684C82.7063 28.7141 82.7034 27.1614 82.7006 25.6098V25.6093V25.6088V25.6081C82.6943 22.2218 82.688 18.8409 82.4919 15.4601C82.4919 15.0347 82.429 14.5991 82.3659 14.1619L82.3659 14.1618C82.2304 13.2233 82.0939 12.2776 82.576 11.4107L82.7582 11.4405L82.7583 11.4405C83.9411 11.6337 85.1103 11.8248 86.2947 11.9698C87.189 12.0063 88.0833 11.868 88.9714 11.7307C89.3198 11.6768 89.6673 11.6231 90.0134 11.5801C90.257 11.482 90.3282 11.7469 90.3782 11.933L90.3836 11.9529C90.5263 12.4613 90.5615 12.9841 90.5969 13.5072C90.6157 13.7861 90.6345 14.065 90.6696 14.3419C90.9922 19.0032 90.9592 23.6801 90.9262 28.3428L90.922 28.9469C90.9388 29.0146 90.9725 29.1332 90.9893 29.1841C90.9809 29.2263 90.9725 29.2896 90.9641 29.353L90.9641 29.3535C90.9557 29.417 90.9473 29.4806 90.9388 29.5229V29.8279L90.9725 30.082V30.9461L91.023 31.8102C91.023 32.6235 91.023 33.4537 91.0398 34.2839C91.0398 34.337 91.0352 34.4132 91.0308 34.4859L91.0308 34.4862L91.0308 34.4868C91.0268 34.553 91.023 34.6164 91.023 34.6567C91.023 35.0887 91.0272 35.5208 91.0314 35.9528C91.0356 36.3849 91.0398 36.8169 91.0398 37.249C91.0567 37.9622 91.0773 38.6735 91.0979 39.3842L91.098 39.3867L91.0981 39.3894L91.0981 39.3898C91.1391 40.8046 91.18 42.2168 91.1912 43.6366C91.2417 44.9073 91.2754 46.195 91.2922 47.4657C91.3595 48.1095 91.367 48.7534 91.3745 49.3972C91.3782 49.7191 91.3819 50.041 91.3932 50.363C91.4268 51.4473 91.4605 52.5317 91.4773 53.6161L91.3259 53.3958C91.4773 53.6161 91.5278 53.8533 91.5278 54.1074ZM148.739 27.5238C149.395 27.9813 150.018 28.5743 150.27 29.3706C150.306 29.5336 150.382 29.6818 150.457 29.8264C150.56 30.0273 150.66 30.2212 150.641 30.438C150.642 30.4833 150.643 30.5288 150.644 30.5746C150.662 31.3004 150.681 32.0868 150.254 32.7084C149.339 34.0819 148.513 35.5185 147.687 36.9528C147.556 37.1816 147.424 37.4104 147.292 37.6389C146.841 38.5227 146.349 39.3897 145.856 40.2576C145.649 40.621 145.443 40.9844 145.239 41.3494L145.206 41.3664C144.987 41.8074 144.732 42.2413 144.479 42.6726C144.343 42.9041 144.208 43.1349 144.078 43.3657L144.078 43.366C143.843 43.7894 143.607 44.2129 143.338 44.6025C142.676 45.7434 141.999 46.8691 141.322 47.9949C140.984 48.5578 140.646 49.1207 140.309 49.6854L139.148 51.5661C138.771 52.1755 138.399 52.7865 138.028 53.3971C137.221 54.722 136.416 56.0448 135.564 57.3437C135.547 57.3777 135.522 57.4243 135.497 57.471C135.471 57.5175 135.446 57.5641 135.429 57.5979C135.058 58.1964 134.691 58.7967 134.325 59.3965C133.53 60.6982 132.737 61.998 131.896 63.2738C131.695 63.7579 131.283 64.0925 130.878 64.4217C130.772 64.5074 130.667 64.5927 130.566 64.6801C130.314 64.5446 130.028 64.5954 129.776 64.6801L129.843 64.5785C129.753 64.5282 129.657 64.4839 129.559 64.4385C129.492 64.4074 129.423 64.3757 129.355 64.3413C129.288 64.6293 129.187 64.9173 129.069 65.1884C128.547 65.0359 128.026 64.9004 127.487 64.8157C127.498 64.5831 127.543 64.3455 127.588 64.1071C127.687 63.5815 127.787 63.0518 127.521 62.5622C127.274 62.5467 127.045 62.4601 126.818 62.374C126.548 62.2722 126.281 62.1711 125.99 62.1895C125.645 62.198 125.3 62.2361 124.955 62.2742C124.61 62.3123 124.265 62.3504 123.92 62.3589C123.819 61.4948 123.903 60.5968 124.256 59.7836C124.45 59.3182 124.767 58.9357 125.085 58.5524C125.265 58.3356 125.445 58.1185 125.603 57.8859C126.085 57.1931 126.512 56.4665 126.939 55.7397C127.42 54.9202 127.901 54.1004 128.463 53.3282C129.007 52.4471 129.553 51.5679 130.098 50.6891C131.798 47.9516 133.496 45.2169 135.126 42.4338L135.16 42.4677C135.185 42.4253 135.227 42.366 135.269 42.3067C135.312 42.2474 135.354 42.1881 135.379 42.1457L135.328 42.0102L135.429 41.8577H135.581C135.614 41.6713 135.682 41.5019 135.8 41.3325C136.062 40.9014 136.315 40.4635 136.568 40.025C136.883 39.481 137.197 38.936 137.533 38.4013L137.583 38.3844C137.634 38.2658 137.768 38.0286 137.836 37.91C137.852 37.8761 137.869 37.8422 137.886 37.8252C138.004 37.5203 138.172 37.2322 138.374 36.9781C138.504 36.5865 138.723 36.2452 138.94 35.9077C139.005 35.8071 139.069 35.7068 139.131 35.6057V35.5549C139.19 35.4447 139.245 35.3346 139.299 35.2245C139.354 35.1143 139.409 35.0042 139.468 34.8941L139.131 34.7924C138.795 34.8094 138.475 34.8263 138.155 34.8432L138.063 34.8517C137.726 34.8827 137.402 34.9124 137.078 34.928C136.489 34.9449 135.905 34.9703 135.32 34.9957C134.735 35.0212 134.15 35.0466 133.562 35.0635C133.528 35.0466 133.473 35.0254 133.419 35.0042C133.364 34.983 133.309 34.9618 133.276 34.9449L133.427 35.0466C131.879 35.1482 130.314 35.1482 128.766 35.1482H128.345C127.884 35.2209 127.397 35.2188 126.918 35.2167C126.838 35.2163 126.759 35.216 126.679 35.216C126.545 35.2329 126.41 35.2499 126.276 35.2499C125.952 35.2499 125.628 35.2624 125.305 35.2749C124.787 35.295 124.269 35.315 123.752 35.2838C123.298 35.3701 122.836 35.3846 122.372 35.3992C122.198 35.4046 122.024 35.4101 121.85 35.4193C121.175 35.4427 120.517 35.5391 119.857 35.6355C119.563 35.6785 119.269 35.7216 118.973 35.7582C118.468 35.7921 117.963 35.8259 117.458 35.7921C116.853 35.7073 116.213 35.5549 115.742 35.1482C115.512 35.0994 115.36 34.9276 115.212 34.7593C115.154 34.6939 115.097 34.6291 115.035 34.5722C114.621 34.5304 114.411 34.1121 114.228 33.748C114.188 33.6685 114.149 33.5915 114.11 33.5217C113.904 33.1485 114.139 32.8704 114.376 32.5905C114.526 32.4129 114.677 32.2346 114.716 32.0307C114.492 31.7654 114.154 31.7286 113.825 31.6926C113.733 31.6826 113.642 31.6727 113.555 31.6579C113.588 31.5224 113.656 31.4038 113.723 31.2852C113.79 30.743 113.992 30.2347 114.295 29.7942C114.636 29.1328 115.205 28.6309 115.767 28.1346C115.983 27.9444 116.198 27.7549 116.398 27.5577L116.651 27.3035H116.634C116.987 26.9986 117.307 26.6936 117.644 26.3717C120.83 23.268 123.921 20.0723 127.011 16.8777C130.416 13.3579 133.819 9.83935 137.348 6.44652C137.664 6.14344 138.056 5.93047 138.438 5.72277C138.461 5.70986 138.485 5.69697 138.509 5.68408C138.686 5.82697 138.838 6.00333 138.989 6.17788C139.053 6.2517 139.117 6.32519 139.182 6.39569C139.246 6.44509 139.315 6.49107 139.385 6.53727C139.625 6.69712 139.87 6.85963 139.922 7.17508C140.12 7.31232 140.319 7.44038 140.524 7.57278C140.597 7.62018 140.671 7.66813 140.747 7.71726C140.763 7.76809 140.784 7.8401 140.805 7.91211C140.826 7.98411 140.848 8.05612 140.864 8.10695C140.919 8.09913 140.995 8.09131 141.07 8.08349C141.159 8.07437 141.247 8.06525 141.302 8.05612C141.425 8.49831 141.8 8.70969 142.176 8.92157C142.52 9.11562 142.865 9.31009 143.018 9.68267C143.045 9.74787 143.079 9.81133 143.113 9.87529C143.186 10.0108 143.259 10.1484 143.271 10.3096C143.136 10.5807 142.934 10.8179 142.732 11.0381C140.978 12.9139 139.226 14.7924 137.475 16.6704C134.876 19.4572 132.278 22.2428 129.675 25.0162C129.473 25.2252 129.275 25.4379 129.076 25.6506C128.68 26.0761 128.284 26.5016 127.857 26.8969V26.9139C127.79 26.9948 127.681 27.1509 127.596 27.271C127.575 27.3018 127.555 27.3302 127.538 27.3544L127.706 27.473C128.815 27.5125 129.924 27.4713 131.033 27.4301C131.826 27.4007 132.618 27.3713 133.41 27.3713C133.578 27.3629 133.75 27.3544 133.923 27.3459C134.095 27.3374 134.268 27.329 134.437 27.3205C134.59 27.3119 134.748 27.3077 134.908 27.3034C135.063 27.2992 135.221 27.295 135.379 27.2866C136.012 27.2312 136.65 27.206 137.287 27.1808C137.819 27.1598 138.351 27.1388 138.879 27.1002C139.323 27.0613 139.772 27.0448 140.224 27.0281C140.56 27.0157 140.897 27.0033 141.235 26.9816C141.711 26.9732 142.191 26.9523 142.673 26.9313C143.162 26.9099 143.654 26.8885 144.146 26.88C144.366 26.8714 144.591 26.8672 144.819 26.8629C145.042 26.8587 145.267 26.8545 145.492 26.8461C145.541 26.8446 145.59 26.8429 145.64 26.8413C146.148 26.8245 146.667 26.8073 147.158 26.9308C147.713 27.0155 148.234 27.2527 148.739 27.5238Z" fill="white"></path></g><defs><clipPath id="clip0_307_43794"><rect width="160" height="68" fill="white"></rect></clipPath></defs></svg>