<svg xmlns="http://www.w3.org/2000/svg" viewBox="0 0 64 64"><defs><style>.cls-1{fill:#d1e7ff;}.cls-2{fill:#8bc4ff;}.cls-3{fill:#a2d0ff;}.cls-4{fill:#e8f3ff;}.cls-5{fill:#2e58ff;}</style></defs><title></title><g id="album"><rect class="cls-1" height="60" rx="6" width="60" x="2" y="2"></rect><rect class="cls-2" height="44" width="44" x="10" y="10"></rect><path class="cls-3" d="M54,44.09V54H10V44.09a10,10,0,0,1,6.86,1.62,9,9,0,0,0,9.28,0,10.82,10.82,0,0,1,11.72,0,9,9,0,0,0,9.28,0A9.82,9.82,0,0,1,54,44.09Z"></path><path class="cls-3" d="M54,35.09v9a10,10,0,0,0-6.86,1.62,9,9,0,0,1-9.28,0,10.82,10.82,0,0,0-11.72,0,9,9,0,0,1-9.28,0A9.82,9.82,0,0,0,10,44.09v-9c3.91-.55,6.3,1.37,7.57,2a9,9,0,0,0,8.57-.39,10.82,10.82,0,0,1,11.72,0,9,9,0,0,0,8.57.39C47.56,36.53,50,34.54,54,35.09Z"></path><path class="cls-4" d="M46.43,37.1a9.06,9.06,0,0,1-8.86-.56,10.86,10.86,0,0,0-11.14,0,9.08,9.08,0,0,1-8.86.56,15,15,0,1,1,28.86,0Z"></path><path class="cls-5" d="M56,0H8A8,8,0,0,0,0,8V56a8,8,0,0,0,8,8H56a8,8,0,0,0,8-8V8A8,8,0,0,0,56,0Zm4,56a4,4,0,0,1-4,4H8a4,4,0,0,1-4-4V8A4,4,0,0,1,8,4H56a4,4,0,0,1,4,4Z"></path><path class="cls-5" d="M54,8H10a2,2,0,0,0-2,2V54a2,2,0,0,0,2,2H54a2,2,0,0,0,2-2V10A2,2,0,0,0,54,8ZM46.1,44a7.07,7.07,0,0,1-7.23,0A12.82,12.82,0,0,0,25.1,44a7,7,0,0,1-7.23,0A12.22,12.22,0,0,0,12,42V37c2.27.21,3.33,1.19,4.7,1.87a11.2,11.2,0,0,0,10.76-.65,9,9,0,0,1,9.36.17,11.18,11.18,0,0,0,9.23,1c2.59-.88,3.14-2.12,6-2.38,0,5.47.08,5-.19,5A12.18,12.18,0,0,0,46.1,44ZM32,20A13,13,0,0,1,44.73,35.63,7.15,7.15,0,0,1,38.87,35,12.82,12.82,0,0,0,25.1,35a7.12,7.12,0,0,1-5.83.63A13,13,0,0,1,32,20Zm20-8V33a11.87,11.87,0,0,0-3,.58,17,17,0,1,0-34,0A11.87,11.87,0,0,0,12,33V12ZM12,52c0-6.41,0-6,.06-6a8.45,8.45,0,0,1,3.76,1.38,11.22,11.22,0,0,0,11.64-.17,9,9,0,0,1,9.36.17,11,11,0,0,0,11.33,0A8.41,8.41,0,0,1,51.92,46c.12,0,.08-.45.08,6Z"></path></g></svg>