<svg xmlns="http://www.w3.org/2000/svg" viewBox="0 0 64 64"><defs><style>.cls-1{fill:#d1e7ff;}.cls-2{fill:#8bc4ff;}.cls-3{fill:#2e58ff;}</style></defs><title></title><g id="Note"><rect class="cls-1" height="60" rx="6" width="50" x="7" y="2"></rect><path class="cls-2" d="M13,2H51a6,6,0,0,1,6,6v6a0,0,0,0,1,0,0H7a0,0,0,0,1,0,0V8A6,6,0,0,1,13,2Z"></path><path class="cls-3" d="M48,25H26a2,2,0,0,0,0,4H48a2,2,0,0,0,0-4Z"></path><path class="cls-3" d="M48,35H26a2,2,0,0,0,0,4H48a2,2,0,0,0,0-4Z"></path><path class="cls-3" d="M48,45H26a2,2,0,0,0,0,4H48a2,2,0,0,0,0-4Z"></path><path class="cls-3" d="M51,0H13A8,8,0,0,0,5,8V56a8,8,0,0,0,8,8H51a8,8,0,0,0,8-8V8A8,8,0,0,0,51,0Zm4,56a4,4,0,0,1-4,4H13a4,4,0,0,1-4-4V16H55Zm0-44H9V8a4,4,0,0,1,4-4H51a4,4,0,0,1,4,4Z"></path><circle class="cls-3" cx="17" cy="47" r="3"></circle><circle class="cls-3" cx="17" cy="37" r="3"></circle><circle class="cls-3" cx="17" cy="27" r="3"></circle></g></svg>